<?xml version="1.0" standalone="no"?>
<!DOCTYPE svg PUBLIC "-//W3C//DTD SVG 1.1//EN" "http://www.w3.org/Graphics/SVG/1.1/DTD/svg11.dtd">
<svg width="100%" height="100%" viewBox="0 0 180 180" version="1.1" xmlns="http://www.w3.org/2000/svg" xmlns:xlink="http://www.w3.org/1999/xlink" xml:space="preserve" style="fill-rule:evenodd;clip-rule:evenodd;stroke-linejoin:round;stroke-miterlimit:1.41421;">
    <g transform="matrix(1.06488,0,0,1.06488,43.5037,-31.7555)">
        <g id="email">
            <path d="M155.9,82.4C155.2,98.4 151.3,111.1 144,120.5C136.8,129.9 127.1,134.6 114.9,134.6C109.5,134.6 104.9,133.4 101,131.1C97.1,128.8 94.1,125.5 92.1,121.2C85.9,129.9 77.7,134.3 67.6,134.3C58.5,134.3 51.4,130.5 46.4,122.8C41.4,115.1 39.5,105 40.8,92.4C42,82 44.6,72.9 48.7,64.8C52.8,56.8 58,50.6 64.2,46.3C70.4,42 77.2,39.8 84.4,39.8C93.3,39.8 101,41.9 107.3,46L113.2,50L108.4,104.1C107.8,109 108.3,112.8 110,115.4C111.7,118 114.5,119.3 118.2,119.3C123.9,119.3 128.8,115.9 132.6,109.2C136.5,102.5 138.6,93.7 139,82.8C140.1,61 135.7,44.3 125.8,32.6C116,20.9 101.4,15 82.1,15C70,15 59.3,18.1 49.9,24.2C40.5,30.3 33,39 27.6,50.3C22.2,61.6 19.1,74.5 18.4,89C17.4,111.1 21.8,128.2 31.7,140.3C41.6,152.4 56.3,158.4 76,158.4C81.2,158.4 86.6,157.8 92.3,156.7C98,155.5 102.9,154 107,152.1L110.6,166.5C106.8,169 101.7,171 95.2,172.5C88.7,174 82.2,174.8 75.7,174.8C59.2,174.8 45.2,171.5 33.5,164.8C21.9,158.2 13.2,148.4 7.5,135.4C1.8,122.4 -0.7,107 0.1,89C0.9,72 4.8,56.6 11.9,42.9C19.1,29.2 28.8,18.6 41,11.2C53.3,3.7 67.2,0 82.6,0C98.3,0 111.8,3.4 123.1,10.1C134.4,16.8 142.9,26.4 148.5,38.9C154.1,51.3 156.5,65.9 155.9,82.4ZM61.7,92.3C61,100.5 61.7,106.8 63.9,111.1C66,115.4 69.5,117.5 74.2,117.5C77.3,117.5 80.2,116.2 82.9,113.5C85.6,110.8 87.9,106.9 89.7,101.9L93.6,57.6C91.2,56.8 88.7,56.4 86.1,56.4C78.9,56.4 73.3,59.5 69.4,65.6C65.5,71.7 62.9,80.6 61.7,92.3Z" style="fill:rgb(89,209,197);fill-rule:nonzero;"/>
        </g>
    </g>
</svg>
