<?xml version="1.0" standalone="no"?>
<!DOCTYPE svg PUBLIC "-//W3C//DTD SVG 1.1//EN" "http://www.w3.org/Graphics/SVG/1.1/DTD/svg11.dtd">
<svg width="100%" height="100%" viewBox="0 0 180 180" version="1.1" xmlns="http://www.w3.org/2000/svg" xmlns:xlink="http://www.w3.org/1999/xlink" xml:space="preserve" style="fill-rule:evenodd;clip-rule:evenodd;stroke-linejoin:round;stroke-miterlimit:1.41421;">
    <g transform="matrix(1.11704,0,0,1.11704,53.25,-34.8457)">
        <g id="github">
            <path d="M0,105C0,76 10.3,51.3 30.8,30.8C51.3,10.3 76,0 105,0C134,0 158.7,10.3 179.2,30.8C199.7,51.3 210,76 210,105C210,134 199.7,158.7 179.2,179.2C158.7,199.7 134,210 105,210C76,210 51.3,199.7 30.8,179.2C10.3,158.7 0,134 0,105ZM11.5,105C11.5,130.7 20.7,152.7 39,171C57.3,189.3 79.3,198.5 105,198.5C130.7,198.5 152.7,189.3 171,171C189.3,152.7 198.5,130.7 198.5,105C198.5,79.3 189.3,57.3 171,39C152.7,20.7 130.7,11.5 105,11.5C79.3,11.5 57.3,20.6 39,39C20.6,57.3 11.5,79.3 11.5,105ZM41,127.6C40.5,127.1 40.5,126.5 41,126C42.1,124.9 43.5,124.5 45.1,124.8C46.7,125.1 47.7,125.3 48,125.6C49.9,126.4 52,128.3 54.4,131.1C56.7,134 58.6,136 59.9,137C66.5,142.5 73.2,142.9 80,138.2C80.5,136.3 81.4,134.6 82.7,133.3C83.9,131.9 85.1,131 86.2,130.4C87.3,129.9 89.2,129 91.9,127.9C82.9,127.1 75.6,125.5 70,123.2C64.4,120.9 60,117.9 56.7,114.4C52.3,109.5 49.7,103.1 48.7,95.1C47.7,87.1 48.3,80 50.4,73.4C52,69.3 54.4,65.6 57.4,62.3C55.2,55.5 55.6,47.7 58.6,38.9C67.4,39.4 75.3,42.5 82.4,47.9C96.1,44.3 110.3,44.2 125.1,47.5C127,46.1 130,44.4 133.9,42.4C137.9,40.3 142.9,39.2 148.9,38.9C150,41.9 150.7,45.5 151.2,49.6C151.6,53.7 151.4,57.5 150.6,61.1C156.9,67.7 160.2,76.4 160.4,87.3C160.4,96.1 158.9,103.3 155.9,109C152.9,114.7 147.6,119.5 139.9,123.4C134.7,125.9 127.9,127.4 119.4,127.9C123.2,129.8 126,131.8 127.8,133.8C129.6,135.9 130.7,139.1 131.3,143.4L131.3,156.3C131.3,156.3 131.4,160.5 131.7,168.8C132.5,170.2 133.5,171.3 134.6,172.3C135.7,173.3 136.7,173.9 137.5,174.4C138.3,174.8 138.6,175.4 138.3,176.2C138,177 136.9,177.4 135,177.4C130.4,177.4 126.7,175.8 123.9,172.5C123.1,171.1 122.7,169.5 122.7,167.6L122.7,147.9C122.7,145.7 122.2,144.1 121.1,143.2C120,142.2 118.9,141.6 117.8,141.4L117.8,167.2C117.8,171.8 118.3,174.9 119.4,176.2C120.5,177.6 121.2,178.9 121.5,180.3C121.8,180.6 121.6,180.8 120.9,180.9C120.2,181 119.1,180.8 117.4,180.3C113.8,179.5 111.4,177.6 110,174.8C108.6,171.9 107.9,168.9 107.9,165.6L107.9,140.2L102.6,140.2L102.6,165.6C102.6,168.9 101.9,172 100.5,175C98.6,178.8 95,180.9 89.8,181.2C89,180.9 88.6,180.7 88.6,180.4C88.9,180.1 89.7,178.8 91.1,176.3C91.4,175.8 91.7,174.7 92.1,173C92.5,171.4 92.7,169.4 92.7,167.3L92.7,141.5C91.6,141.8 90.6,142.4 89.6,143.3C88.6,144.3 88.2,145.8 88.2,148L88.2,167.7C88.2,169.6 87.8,171.3 87,172.6C84.5,175.9 80.8,177.5 75.9,177.5C74,177.5 72.9,177.1 72.6,176.3C72.3,175.8 72.4,175.3 72.8,174.9C73.2,174.5 73.8,174 74.6,173.5C75.4,173 76,172.5 76.2,172.3C77.3,171.5 78.1,170.4 78.7,169C79.5,167.9 79.7,165 79.3,160.4C78.9,155.8 78.8,152.7 79.1,151.4C72,153.9 64.7,152.6 57.4,147.7C55.2,145.5 53,142.4 50.8,138.3C49.2,135.2 45.9,131.7 41,127.6Z" style="fill:rgb(2,204,188);fill-rule:nonzero;"/>
        </g>
    </g>
</svg>
