<?xml version="1.0" standalone="no"?>
<!DOCTYPE svg PUBLIC "-//W3C//DTD SVG 1.1//EN" "http://www.w3.org/Graphics/SVG/1.1/DTD/svg11.dtd">
<svg width="100%" height="100%" viewBox="0 0 180 180" version="1.1" xmlns="http://www.w3.org/2000/svg" xmlns:xlink="http://www.w3.org/1999/xlink" xml:space="preserve" style="fill-rule:evenodd;clip-rule:evenodd;stroke-linejoin:round;stroke-miterlimit:1.41421;">
    <g transform="matrix(22.827,2.90759e-15,-1.4538e-15,22.827,36.5487,61.6094)">
        <g id="linkedin">
            <path d="M6,3.516L6,5.735L4.715,5.735L4.715,3.664C4.715,3.391 4.662,3.177 4.557,3.022C4.451,2.867 4.286,2.789 4.062,2.789C3.898,2.789 3.761,2.834 3.65,2.924C3.54,3.014 3.457,3.125 3.402,3.258C3.374,3.336 3.359,3.442 3.359,3.575L3.359,5.735L2.074,5.735C2.079,4.696 2.082,3.853 2.082,3.207C2.082,2.562 2.081,2.176 2.078,2.051L2.074,1.864L3.359,1.864L3.359,2.426L3.352,2.426C3.404,2.343 3.457,2.27 3.512,2.207C3.566,2.145 3.64,2.077 3.732,2.004C3.825,1.931 3.938,1.875 4.072,1.834C4.206,1.794 4.355,1.774 4.52,1.774C4.965,1.774 5.323,1.922 5.594,2.217C5.865,2.513 6,2.946 6,3.516M1.363,5.735L0.074,5.735L0.074,1.864L1.363,1.864L1.363,5.735ZM1.445,0.668C1.448,0.858 1.382,1.017 1.248,1.145C1.114,1.273 0.937,1.336 0.719,1.336L0.711,1.336C0.497,1.336 0.326,1.273 0.195,1.145C0.065,1.017 0,0.858 0,0.668C0,0.476 0.067,0.316 0.201,0.19C0.335,0.064 0.51,0 0.727,0C0.943,0 1.116,0.064 1.246,0.19C1.376,0.316 1.443,0.476 1.445,0.668" style="fill:rgb(31,204,189);fill-rule:nonzero;"/>
        </g>
    </g>
</svg>
