<?xml version="1.0" standalone="no"?>
<!DOCTYPE svg PUBLIC "-//W3C//DTD SVG 1.1//EN" "http://www.w3.org/Graphics/SVG/1.1/DTD/svg11.dtd">
<svg width="100%" height="100%" viewBox="0 0 180 180" version="1.1" xmlns="http://www.w3.org/2000/svg" xmlns:xlink="http://www.w3.org/1999/xlink" xml:space="preserve" style="fill-rule:evenodd;clip-rule:evenodd;stroke-linejoin:round;stroke-miterlimit:1.41421;">
    <g transform="matrix(1.17246,0,0,1.17246,72.4725,16.3628)">
        <g id="phone">
            <path d="M1.6,188.8C3,190.3 5.1,192 8,193.9C10.8,195.8 13.2,197.1 15.1,198C18.9,199.7 25,199.4 33.6,197.3C41.5,195.2 48,191.8 53.1,187C54.6,185.6 56,184.1 57.2,182.6C58.4,181.1 59.7,179.2 61,177.1C62.3,174.9 63.2,173.3 63.8,172.2C64.4,171.1 65.4,169.1 66.8,166.1C68.2,163.2 69.1,161.4 69.5,160.8C73.1,153.7 75.8,146.9 77.6,140.2C80.6,129.1 82.3,116.2 82.7,101.5C83.1,86.8 82.2,73.8 79.9,62.6C78.5,55.8 76.3,48.8 73.1,41.5C72.8,40.8 72,39 70.8,36C69.5,33 68.7,30.9 68.2,29.8C67.7,28.7 66.9,27 65.7,24.7C64.5,22.4 63.4,20.5 62.2,18.9C61.1,17.3 59.8,15.8 58.4,14.3C53.4,9 47.1,5.2 39.3,2.6C31,-0.1 24.8,-0.7 21,0.8C19,1.5 16.6,2.7 13.7,4.4C10.7,6.1 8.5,7.7 7,9.1C6.2,9.8 5.7,10.4 5.4,11C4.8,12.3 5.3,15.7 7,21.5C7.4,23.1 8,25.4 8.7,28.3C9.5,31.2 10.2,33.9 10.8,36.3C11.4,38.7 11.9,41 12.4,43.2C12.4,43.6 12.6,44.7 12.9,46.7C13.2,48.6 13.5,50.2 13.9,51.3C14.3,52.5 14.8,53.4 15.6,54.2C16.6,55.3 18.7,56 21.9,56.1C25,56.3 28.2,56.2 31.4,55.8C34.6,55.4 37.7,55.3 40.7,55.3C43.7,55.4 45.7,55.9 46.7,56.9C47.2,57.4 47.6,58.2 48,59.2C48.4,60.2 48.7,61 48.9,61.6C49.1,62.2 49.3,63.2 49.6,64.7C49.9,66.2 50.1,67 50.1,67.2C53,78.8 54.4,89.8 54,100.4C53.7,111 51.7,121.9 48.1,133.3C48,133.5 47.8,134.3 47.4,135.7C47,137.2 46.7,138.2 46.5,138.7C46.3,139.2 45.9,140 45.5,141C45,142 44.5,142.7 44,143.2C43,144.1 41,144.6 37.9,144.4C34.9,144.3 31.8,143.9 28.6,143.4C25.4,142.9 22.3,142.6 19.2,142.6C16,142.6 13.9,143.1 12.8,144.1C12,144.8 11.4,145.8 11,146.9C10.6,148 10.1,149.6 9.7,151.5C9.3,153.4 9.1,154.5 9,154.9C8.4,157 7.7,159.3 7,161.7C6.3,164.1 5.4,166.7 4.5,169.6C3.6,172.5 2.8,174.7 2.4,176.3C0.3,181.9 -0.4,185.4 0.2,186.7C0.4,187.4 0.9,188 1.6,188.8Z" style="fill:rgb(176,227,221);fill-rule:nonzero;"/>
        </g>
    </g>
</svg>
