<?xml version="1.0" standalone="no"?>
<!DOCTYPE svg PUBLIC "-//W3C//DTD SVG 1.1//EN" "http://www.w3.org/Graphics/SVG/1.1/DTD/svg11.dtd">
<svg width="100%" height="100%" viewBox="0 0 20 23" version="1.1" xmlns="http://www.w3.org/2000/svg" xmlns:xlink="http://www.w3.org/1999/xlink" xml:space="preserve" style="fill-rule:evenodd;clip-rule:evenodd;stroke-linejoin:round;stroke-miterlimit:1.41421;">
    <g transform="matrix(1,0,0,1,-7.25859,-4.90954)">
        <g transform="matrix(2.07512,0,0,2.08941,-30.4879,-31.7428)">
            <path d="M27.807,22.915C27.772,23.759 27.529,24.485 27.08,25.095C26.631,25.704 25.959,26.009 25.065,26.009C24.772,26.009 24.519,25.927 24.306,25.763C24.093,25.599 23.94,25.366 23.846,25.065C23.662,25.378 23.436,25.611 23.166,25.766C22.897,25.92 22.582,25.997 22.223,25.997C21.703,25.997 21.304,25.764 21.025,25.297C20.745,24.83 20.641,24.214 20.711,23.448C20.805,22.448 21.079,21.646 21.534,21.04C21.989,20.435 22.541,20.132 23.19,20.132C23.619,20.132 23.966,20.183 24.23,20.284C24.493,20.386 24.781,20.542 25.094,20.753L25.076,20.776L25.106,20.776L24.807,24.169C24.776,24.563 24.811,24.835 24.912,24.983C25.014,25.132 25.149,25.206 25.317,25.206C25.781,25.206 26.153,24.99 26.433,24.559C26.712,24.127 26.867,23.579 26.899,22.915C26.961,21.481 26.688,20.364 26.078,19.563C25.469,18.763 24.524,18.362 23.242,18.362C22.047,18.362 21.091,18.794 20.374,19.657C19.657,20.521 19.27,21.663 19.211,23.085C19.141,24.511 19.429,25.634 20.075,26.454C20.722,27.274 21.651,27.685 22.861,27.685C23.201,27.685 23.547,27.646 23.899,27.567C24.25,27.489 24.551,27.386 24.801,27.257L25.024,28.019C24.762,28.183 24.429,28.311 24.025,28.402C23.62,28.494 23.225,28.54 22.838,28.54C21.326,28.54 20.158,28.053 19.334,27.078C18.51,26.104 18.131,24.772 18.197,23.085C18.268,21.429 18.76,20.091 19.674,19.071C20.588,18.052 21.785,17.542 23.266,17.542C24.762,17.542 25.908,18.022 26.705,18.983C27.502,19.944 27.869,21.255 27.807,22.915ZM21.889,23.448C21.85,23.968 21.889,24.362 22.006,24.632C22.123,24.901 22.317,25.036 22.586,25.036C22.817,25.036 23.029,24.988 23.225,24.893C23.42,24.797 23.594,24.626 23.746,24.38C23.746,24.349 23.747,24.317 23.749,24.286C23.751,24.255 23.754,24.216 23.758,24.169L24.022,21.151C23.932,21.116 23.836,21.088 23.735,21.066C23.633,21.045 23.528,21.034 23.418,21.034C22.957,21.034 22.606,21.234 22.363,21.635C22.121,22.035 21.963,22.64 21.889,23.448Z" style="fill:white;fill-opacity:0.2;fill-rule:nonzero;"/>
        </g>
    </g>
</svg>
