<?xml version="1.0" standalone="no"?>
<!DOCTYPE svg PUBLIC "-//W3C//DTD SVG 1.1//EN" "http://www.w3.org/Graphics/SVG/1.1/DTD/svg11.dtd">
<svg width="100%" height="100%" viewBox="0 0 32 32" version="1.1" xmlns="http://www.w3.org/2000/svg" xmlns:xlink="http://www.w3.org/1999/xlink" xml:space="preserve" style="fill-rule:evenodd;clip-rule:evenodd;stroke-linejoin:round;stroke-miterlimit:1.41421;">
    <path d="M15.999,0.395C7.165,0.395 0,7.559 0,16.396C0,23.466 4.584,29.463 10.942,31.579C11.742,31.725 12.034,31.232 12.034,30.808C12.034,30.428 12.02,29.42 12.013,28.085C7.562,29.052 6.623,25.94 6.623,25.94C5.896,24.093 4.847,23.6 4.847,23.6C3.394,22.609 4.957,22.627 4.957,22.627C6.563,22.74 7.408,24.277 7.408,24.277C8.836,26.72 11.153,26.014 12.065,25.606C12.21,24.572 12.624,23.866 13.081,23.467C9.528,23.062 5.793,21.691 5.793,15.558C5.793,13.811 6.417,12.383 7.44,11.265C7.274,10.86 6.725,9.234 7.595,7.031C7.595,7.031 8.939,6.601 11.995,8.672C13.271,8.317 14.64,8.139 16.001,8.133C17.36,8.139 18.728,8.317 20.007,8.672C23.062,6.601 24.403,7.031 24.403,7.031C25.276,9.234 24.726,10.861 24.562,11.265C25.586,12.384 26.207,13.812 26.207,15.558C26.207,21.705 22.466,23.058 18.901,23.453C19.476,23.949 19.987,24.926 19.987,26.418C19.987,28.557 19.967,30.281 19.967,30.808C19.967,31.235 20.255,31.732 21.068,31.577C27.42,29.457 32,23.464 32,16.396C32,7.559 24.836,0.395 15.999,0.395Z" style="fill:white;fill-opacity:0.2;"/>
</svg>
