<?xml version="1.0" standalone="no"?>
<!DOCTYPE svg PUBLIC "-//W3C//DTD SVG 1.1//EN" "http://www.w3.org/Graphics/SVG/1.1/DTD/svg11.dtd">
<svg width="100%" height="100%" viewBox="0 0 23 18" version="1.1" xmlns="http://www.w3.org/2000/svg" xmlns:xlink="http://www.w3.org/1999/xlink" xml:space="preserve" style="fill-rule:evenodd;clip-rule:evenodd;stroke-linejoin:round;stroke-miterlimit:1.41421;">
    <g transform="matrix(3.2457,0,0,3.2457,0,0)">
        <path d="M6.5,4.875L6.5,1.875C6.417,1.969 6.327,2.055 6.23,2.133C5.533,2.669 4.978,3.109 4.566,3.453C4.434,3.565 4.326,3.652 4.242,3.715C4.159,3.777 4.046,3.841 3.904,3.904C3.762,3.968 3.629,4 3.504,4L3.5,4L3.496,4C3.371,4 3.238,3.968 3.096,3.904C2.954,3.841 2.841,3.777 2.758,3.715C2.674,3.652 2.566,3.565 2.434,3.453C2.022,3.109 1.467,2.669 0.77,2.133C0.673,2.055 0.583,1.969 0.5,1.875L0.5,4.875C0.5,4.909 0.512,4.938 0.537,4.963C0.562,4.988 0.591,5 0.625,5L6.375,5C6.409,5 6.438,4.988 6.463,4.963C6.488,4.938 6.5,4.909 6.5,4.875M6.5,0.77L6.5,0.727L6.5,0.674C6.5,0.662 6.499,0.645 6.498,0.623C6.497,0.601 6.493,0.585 6.486,0.574C6.48,0.564 6.473,0.552 6.465,0.539C6.457,0.526 6.445,0.516 6.43,0.51C6.414,0.503 6.396,0.5 6.375,0.5L0.625,0.5C0.591,0.5 0.562,0.512 0.537,0.537C0.512,0.562 0.5,0.591 0.5,0.625C0.5,1.062 0.691,1.432 1.074,1.734C1.577,2.13 2.099,2.543 2.641,2.973C2.656,2.986 2.702,3.024 2.777,3.088C2.853,3.152 2.913,3.201 2.957,3.234C3.001,3.268 3.059,3.309 3.131,3.357C3.202,3.406 3.268,3.441 3.328,3.465C3.388,3.488 3.444,3.5 3.496,3.5L3.504,3.5C3.556,3.5 3.612,3.488 3.672,3.465C3.732,3.441 3.797,3.406 3.869,3.357C3.941,3.309 3.999,3.268 4.043,3.234C4.087,3.201 4.147,3.152 4.223,3.088C4.298,3.024 4.344,2.986 4.359,2.973C4.901,2.543 5.423,2.13 5.926,1.734C6.066,1.622 6.197,1.472 6.318,1.283C6.439,1.094 6.5,0.923 6.5,0.77M7,0.625L7,4.875C7,5.047 6.939,5.194 6.816,5.316C6.694,5.439 6.547,5.5 6.375,5.5L0.625,5.5C0.453,5.5 0.306,5.439 0.184,5.316C0.061,5.194 0,5.047 0,4.875L0,0.625C0,0.453 0.061,0.306 0.184,0.184C0.306,0.061 0.453,0 0.625,0L6.375,0C6.547,0 6.694,0.061 6.816,0.184C6.939,0.306 7,0.453 7,0.625" style="fill:white;fill-opacity:0.2;fill-rule:nonzero;"/>
    </g>
</svg>
