<?xml version="1.0" standalone="no"?>
<!DOCTYPE svg PUBLIC "-//W3C//DTD SVG 1.1//EN" "http://www.w3.org/Graphics/SVG/1.1/DTD/svg11.dtd">
<svg width="100%" height="100%" viewBox="0 0 18 14" version="1.1" xmlns="http://www.w3.org/2000/svg" xmlns:xlink="http://www.w3.org/1999/xlink" xml:space="preserve" style="fill-rule:evenodd;clip-rule:evenodd;stroke-linejoin:round;stroke-miterlimit:1.41421;">
    <g transform="matrix(1,0,0,1,-6.03271,-9.01426)">
        <g transform="matrix(2.78816,0,0,2.78816,6.03347,9.01337)">
            <path d="M5.395,2.863C5.398,2.868 5.399,2.876 5.399,2.886L5.399,4.761C5.399,4.829 5.374,4.888 5.325,4.937C5.275,4.987 5.217,5.011 5.149,5.011L3.649,5.011L3.649,3.511L2.649,3.511L2.649,5.011L1.149,5.011C1.081,5.011 1.023,4.987 0.973,4.937C0.924,4.888 0.899,4.829 0.899,4.761L0.899,2.886C0.899,2.884 0.9,2.88 0.901,2.875C0.902,2.87 0.903,2.866 0.903,2.863L3.149,1.011L5.395,2.863ZM6.27,2.617L6.028,2.906C6.007,2.929 5.98,2.944 5.946,2.949L5.934,2.949C5.9,2.949 5.873,2.94 5.852,2.922L3.149,0.668L0.446,2.922C0.415,2.942 0.383,2.952 0.352,2.949C0.318,2.944 0.291,2.929 0.27,2.906L0.028,2.617C0.007,2.591 -0.002,2.56 0,2.525C0.003,2.49 0.017,2.462 0.043,2.441L2.852,0.101C2.935,0.034 3.034,0 3.149,0C3.263,0 3.362,0.034 3.446,0.101L6.254,2.441C6.28,2.462 6.295,2.49 6.297,2.525C6.3,2.56 6.291,2.591 6.27,2.617" style="fill:white;fill-opacity:0.2;fill-rule:nonzero;"/>
        </g>
    </g>
</svg>
