<?xml version="1.0" standalone="no"?>
<!DOCTYPE svg PUBLIC "-//W3C//DTD SVG 1.1//EN" "http://www.w3.org/Graphics/SVG/1.1/DTD/svg11.dtd">
<svg width="100%" height="100%" viewBox="0 0 7 14" version="1.1" xmlns="http://www.w3.org/2000/svg" xmlns:xlink="http://www.w3.org/1999/xlink" xml:space="preserve" style="fill-rule:evenodd;clip-rule:evenodd;stroke-linejoin:round;stroke-miterlimit:1.41421;">
    <g transform="matrix(-1.28169,-1.5656,1.5656,-1.28169,1.57792,14.7169)">
        <path d="M5.488,4.262C5.496,4.28 5.5,4.308 5.5,4.344C5.5,4.414 5.487,4.506 5.461,4.619C5.435,4.733 5.407,4.822 5.379,4.887C5.324,5.017 5.165,5.155 4.902,5.301C4.657,5.434 4.415,5.5 4.176,5.5C4.105,5.5 4.037,5.496 3.97,5.487C3.904,5.478 3.829,5.461 3.746,5.438C3.662,5.414 3.601,5.396 3.56,5.381C3.52,5.367 3.448,5.34 3.343,5.301C3.239,5.262 3.175,5.239 3.152,5.231C2.897,5.14 2.669,5.032 2.468,4.907C2.135,4.701 1.791,4.42 1.435,4.065C1.08,3.709 0.799,3.365 0.593,3.032C0.468,2.831 0.36,2.603 0.269,2.348C0.261,2.325 0.238,2.261 0.199,2.157C0.16,2.052 0.133,1.98 0.119,1.94C0.105,1.899 0.086,1.838 0.062,1.754C0.039,1.671 0.022,1.596 0.013,1.53C0.004,1.463 0,1.395 0,1.324C0,1.085 0.066,0.843 0.199,0.598C0.345,0.335 0.483,0.176 0.613,0.121C0.678,0.093 0.767,0.065 0.881,0.039C0.994,0.013 1.086,0 1.156,0C1.192,0 1.22,0.004 1.238,0.012C1.285,0.028 1.354,0.127 1.445,0.309C1.474,0.358 1.513,0.429 1.562,0.52C1.612,0.611 1.657,0.694 1.699,0.768C1.741,0.842 1.781,0.912 1.82,0.977C1.828,0.987 1.851,1.02 1.888,1.074C1.926,1.129 1.954,1.175 1.972,1.213C1.991,1.251 2,1.288 2,1.324C2,1.377 1.963,1.442 1.888,1.52C1.814,1.598 1.733,1.67 1.646,1.735C1.559,1.8 1.478,1.869 1.404,1.942C1.33,2.015 1.293,2.074 1.293,2.121C1.293,2.145 1.299,2.174 1.312,2.209C1.325,2.244 1.336,2.271 1.345,2.289C1.355,2.308 1.373,2.339 1.4,2.383C1.427,2.427 1.442,2.452 1.445,2.457C1.643,2.814 1.869,3.12 2.125,3.375C2.38,3.631 2.686,3.857 3.043,4.055C3.048,4.058 3.073,4.073 3.117,4.1C3.161,4.127 3.192,4.146 3.211,4.155C3.229,4.164 3.256,4.175 3.291,4.188C3.326,4.201 3.355,4.207 3.379,4.207C3.425,4.207 3.485,4.17 3.558,4.096C3.631,4.022 3.7,3.941 3.765,3.854C3.83,3.767 3.902,3.686 3.98,3.612C4.058,3.537 4.123,3.5 4.176,3.5C4.212,3.5 4.249,3.509 4.287,3.528C4.325,3.546 4.371,3.574 4.426,3.612C4.48,3.649 4.513,3.672 4.523,3.68C4.588,3.719 4.658,3.759 4.732,3.801C4.806,3.843 4.889,3.888 4.98,3.938C5.071,3.987 5.142,4.026 5.191,4.055C5.373,4.146 5.472,4.215 5.488,4.262" style="fill:rgb(102,152,145);fill-opacity:0.3;fill-rule:nonzero;"/>
    </g>
</svg>
