<?xml version="1.0" standalone="no"?>
<!DOCTYPE svg PUBLIC "-//W3C//DTD SVG 1.1//EN" "http://www.w3.org/Graphics/SVG/1.1/DTD/svg11.dtd">
<svg width="100%" height="100%" viewBox="0 0 27 22" version="1.1" xmlns="http://www.w3.org/2000/svg" xmlns:xlink="http://www.w3.org/1999/xlink" xml:space="preserve" style="fill-rule:evenodd;clip-rule:evenodd;stroke-linejoin:round;stroke-miterlimit:1.41421;">
    <g transform="matrix(4.33331,0,0,4.33331,0.00129734,-0.000447818)">
        <path d="M5.43,0.789C5.672,0.763 5.914,0.698 6.157,0.594C5.982,0.849 5.771,1.066 5.524,1.246C5.526,1.283 5.528,1.337 5.528,1.41C5.528,1.749 5.478,2.087 5.379,2.424C5.28,2.761 5.13,3.085 4.928,3.394C4.726,3.704 4.486,3.978 4.207,4.217C3.929,4.455 3.593,4.645 3.2,4.787C2.806,4.929 2.386,5 1.938,5C1.232,5 0.586,4.811 0,4.434C0.091,4.444 0.193,4.449 0.305,4.449C0.891,4.449 1.413,4.269 1.871,3.91C1.598,3.905 1.353,3.821 1.137,3.658C0.921,3.495 0.772,3.288 0.692,3.035C0.778,3.048 0.857,3.055 0.93,3.055C1.042,3.055 1.153,3.04 1.262,3.012C0.97,2.952 0.729,2.807 0.537,2.576C0.346,2.346 0.25,2.078 0.25,1.773L0.25,1.758C0.427,1.857 0.618,1.91 0.821,1.918C0.649,1.803 0.512,1.654 0.41,1.469C0.309,1.284 0.258,1.083 0.258,0.867C0.258,0.638 0.315,0.426 0.43,0.23C0.745,0.618 1.129,0.929 1.58,1.162C2.032,1.395 2.516,1.525 3.032,1.551C3.011,1.452 3,1.355 3,1.262C3,0.913 3.123,0.615 3.369,0.369C3.616,0.123 3.913,0 4.262,0C4.627,0 4.934,0.133 5.184,0.398C5.468,0.344 5.735,0.242 5.985,0.094C5.888,0.393 5.703,0.625 5.43,0.789" style="fill:white;fill-opacity:0.16;fill-rule:nonzero;"/>
    </g>
</svg>
