<?xml version="1.0" encoding="UTF-8" standalone="no"?>
<svg width="940px" height="370px" viewBox="0 0 940 370" version="1.1" xmlns="http://www.w3.org/2000/svg" xmlns:xlink="http://www.w3.org/1999/xlink" xmlns:sketch="http://www.bohemiancoding.com/sketch/ns">
    <title>logo-text-dark@2x</title>
    <description>Created with Sketch (http://www.bohemiancoding.com/sketch)</description>
    <defs></defs>
    <g id="Page-1" stroke="none" stroke-width="1" fill="none" fill-rule="evenodd" sketch:type="MSPage">
        <g id="Rectangle-1-+-netlify-logo" sketch:type="MSLayerGroup" transform="translate(-11.000000, -9.000000)">
            <rect id="Rectangle-1" fill="#303C3D" sketch:type="MSShapeGroup" x="0" y="0" width="960" height="387"></rect>
            <g id="netlify-logo" transform="translate(105.365854, 62.545455)" sketch:type="MSShapeGroup">
                <g id="netlify-img-link" transform="translate(0.000000, -0.000000)" fill="#00C7B7">
                    <path d="M151.293659,163.865182 L90.0409756,151.043364 C89.7795122,151.543727 89.4985366,152.028455 89.1863415,152.485818 L144.948293,233.966909 L148.312195,230.601182 L157.799024,171.507455 C154.571707,170.151 152.14439,167.316909 151.293659,163.865182 L151.293659,163.865182 Z M128.948293,83.6584545 C126.653659,87.1844545 122.692683,89.5181818 118.181463,89.5181818 C117.486829,89.5181818 116.811707,89.4478182 116.148293,89.3422727 L88.2146341,133.124091 L162.844878,100.952273 C162.821463,100.651273 162.755122,100.369818 162.755122,100.061 C162.755122,99.4316364 162.840976,98.8218182 162.942439,98.2198182 L128.948293,83.6584545 L128.948293,83.6584545 Z M130.977561,75.68 L167.137561,91.1678182 C168.280976,90.2726364 169.58439,89.6080909 171.016585,89.2054545 L176.96,52.1863636 L154.318049,29.5058182 L128.83122,69.4528182 C130.052683,71.2588182 130.809756,73.3853636 130.977561,75.68 L130.977561,75.68 Z M206.747317,82.0244545 L184.054634,59.2891818 L179.121951,89.9833636 C180.378537,90.6205455 181.498537,91.4688182 182.435122,92.5086364 L206.747317,82.0244545 L206.747317,82.0244545 Z M152.378537,155.781182 C154.146341,152.579636 157.40878,150.367091 161.244878,150.07 L167.761951,109.466273 C167.250732,109.126182 166.794146,108.719636 166.345366,108.301364 L91.2858537,140.660818 C91.4770732,141.446545 91.6097561,142.247909 91.6721951,143.080545 L152.378537,155.781182 L152.378537,155.781182 Z M212.92878,88.2203636 L186.673171,99.5371818 L251.453659,127.28 L251.687805,127.045455 L212.92878,88.2203636 L212.92878,88.2203636 Z M166.009756,171.628636 L158.119024,220.769818 L203.937561,174.873182 L170.934634,167.969727 C169.674146,169.615455 167.98439,170.889818 166.009756,171.628636 L166.009756,171.628636 Z M76.9521951,158.994455 C75.2936585,158.994455 73.7053659,158.709091 72.2185366,158.204818 L56.9990244,182.062 L51.1180488,176.174909 L65.5336585,153.580364 C65.1746341,153.138636 64.8468293,152.673455 64.5385366,152.196545 L38.4234146,163.458636 L32.2341463,157.258818 L60.8195122,144.933455 L9.1395122,134.128727 L2.07219512,127.045455 L4.30829268,124.805545 L63.902439,137.267727 C64.5931707,135.962091 65.4712195,134.762 66.5053659,133.733909 L37.5804878,91.4727273 L43.422439,85.6208182 L73.6429268,129.777909 C74.7082927,129.535545 75.8126829,129.390909 76.9521951,129.390909 C78.2282927,129.390909 79.4653659,129.570727 80.6478049,129.875636 L108.924878,85.5543636 C106.708293,83.2401818 105.338537,80.1050909 105.338537,76.6455455 C105.338537,75.6291818 105.467317,74.6440909 105.689756,73.6980909 L70.4117073,58.5894545 L76.6009756,52.3896364 L110.025366,66.7086364 C112.245854,64.8791818 115.086829,63.7807273 118.185366,63.7807273 C119.64878,63.7807273 121.053659,64.0387273 122.36878,64.4921818 L148.440976,23.6187273 L126.813659,1.95454545 L1.93560976,127.045455 L126.813659,252.136364 L139.102439,239.826636 L82.9229268,157.727909 C81.0926829,158.537091 79.075122,158.994455 76.9521951,158.994455 L76.9521951,158.994455 Z M175.71122,111.217545 L169.080976,152.493636 C171.363902,154.338727 172.885854,157.039909 173.174634,160.128091 L210.805854,167.997091 L245.26439,133.479818 L183.067317,106.843273 C181.322927,109.165273 178.716098,110.775818 175.71122,111.217545 L175.71122,111.217545 Z" id="netlify-img"></path>
                </g>
                <g id="netlify-text-link" transform="translate(331.707317, 62.545455)" fill="#FFFFFF">
                    <path d="M36.7765854,31.2258182 C28.097561,31.2258182 21.0887805,34.5446364 15.7502439,41.1744545 L15.2819512,32.5979091 L0,32.5979091 L0,106.839364 L16.2185366,106.839364 L16.2185366,54.008 C19.422439,47.9254545 24.2926829,44.8802727 30.8331707,44.8802727 C35.3287805,44.8802727 38.5639024,46.0139091 40.542439,48.2772727 C42.524878,50.5445455 43.5160976,54.0314545 43.5160976,58.738 L43.5160976,106.839364 L59.7307317,106.839364 L59.7307317,57.7763636 C59.4614634,40.076 51.8087805,31.2258182 36.7765854,31.2258182 L36.7765854,31.2258182 Z M106.86439,31.2258182 C100.682927,31.2258182 95.075122,32.852 90.044878,36.0965455 C85.0185366,39.3489091 81.1121951,43.8873636 78.3336585,49.7197273 C75.5512195,55.5520909 74.1619512,62.1740909 74.1619512,69.5818182 L74.1619512,71.6419091 C74.1619512,82.7163636 77.3541463,91.5743636 83.7385366,98.2276364 C90.1229268,104.884818 98.4546341,108.211455 108.733659,108.211455 C114.739512,108.211455 120.156098,106.991818 124.983415,104.544727 C129.810732,102.097636 133.670244,98.6537273 136.561951,94.2208182 L127.820488,85.6403636 C123.149268,91.8167273 117.096585,94.9088182 109.666341,94.9088182 C104.374634,94.9088182 99.9804878,93.1223636 96.4878049,89.5572727 C92.995122,85.9882727 91.004878,81.1370909 90.5170732,75.0037273 L137.697561,75.0037273 L137.697561,68.2800909 C137.697561,56.4785455 135.016585,47.3547273 129.654634,40.9047273 C124.292683,34.4508182 116.694634,31.2258182 106.86439,31.2258182 L106.86439,31.2258182 Z M121.678049,62.7878182 L90.7785366,62.7878182 C91.5356098,57.0727273 93.2839024,52.6124545 96.0195122,49.4109091 C98.7590244,46.2093636 102.349268,44.6066364 106.794146,44.6066364 C111.289756,44.6066364 114.805854,46.0373636 117.342439,48.8949091 C119.875122,51.7563636 121.322927,55.9781818 121.678049,61.5525455 L121.678049,62.7878182 L121.678049,62.7878182 Z M172.917073,92.5320909 C171.828293,91.2811818 171.285854,89.2289091 171.285854,86.3948182 L171.285854,44.9506364 L184.035122,44.9506364 L184.035122,32.5979091 L171.285854,32.5979091 L171.285854,14.5535455 L155.067317,14.5535455 L155.067317,32.5979091 L143.188293,32.5979091 L143.188293,44.9506364 L155.067317,44.9506364 L155.067317,87.0124545 C155.067317,101.143818 161.29561,108.211455 173.752195,108.211455 C177.178537,108.211455 180.741463,107.683727 184.433171,106.636091 L184.433171,93.74 C182.517073,94.1973636 180.628293,94.428 178.759024,94.428 C175.953171,94.4240909 174.005854,93.7947273 172.917073,92.5320909 L172.917073,92.5320909 Z M198.130732,106.839364 L214.345366,106.839364 L214.345366,1.44636364 L198.130732,1.44636364 L198.130732,106.839364 L198.130732,106.839364 Z M233.720976,106.839364 L249.931707,106.839364 L249.931707,32.5979091 L233.720976,32.5979091 L233.720976,106.839364 L233.720976,106.839364 Z M233.720976,14.5535455 L249.931707,14.5535455 L249.931707,0.00390909091 L233.720976,0.00390909091 L233.720976,14.5535455 L233.720976,14.5535455 Z M280.647805,6.73145455 C276.199024,11.2151818 273.974634,17.5752727 273.974634,25.8078182 L273.974634,32.5979091 L262.961951,32.5979091 L262.961951,44.9506364 L273.974634,44.9506364 L273.974634,106.839364 L290.193171,106.839364 L290.193171,44.9506364 L304.874146,44.9506364 L304.874146,32.5979091 L290.193171,32.5979091 L290.193171,26.0110909 C290.193171,17.8215455 294.06439,13.7287273 301.802927,13.7287273 C304.163902,13.7287273 306.232195,13.9124545 308.01561,14.276 L308.413659,1.23918182 C305.213659,0.418272727 302.185366,0.00390909091 299.340488,0.00390909091 C291.324878,0.00390909091 285.096585,2.24772727 280.647805,6.73145455 L280.647805,6.73145455 Z M357.346341,32.5979091 L342.661463,82.9665455 L327.383415,32.5979091 L309.900488,32.5979091 L335.262439,106.444545 L332.924878,112.820273 C331.722927,116.432273 330.087805,119.000545 328.019512,120.536818 C325.95122,122.065273 322.872195,122.831455 318.778537,122.831455 L315.707317,122.624273 L315.707317,135.586818 C318.552195,136.415545 321.155122,136.826 323.512195,136.826 C334.060488,136.826 341.533659,130.579273 345.939512,118.093636 L374.634146,32.5979091 L357.346341,32.5979091 L357.346341,32.5979091 Z" id="netlify-text"></path>
                </g>
            </g>
        </g>
    </g>
</svg>