<?xml version="1.0" encoding="utf-8"?>
<!-- Generator: Adobe Illustrator 16.0.0, SVG Export Plug-In . SVG Version: 6.00 Build 0)  -->
<!DOCTYPE svg PUBLIC "-//W3C//DTD SVG 1.1//EN" "http://www.w3.org/Graphics/SVG/1.1/DTD/svg11.dtd">
<svg version="1.1" id="Layer_1" xmlns="http://www.w3.org/2000/svg" xmlns:xlink="http://www.w3.org/1999/xlink" x="0px" y="0px"
	 width="1700.008px" height="970.948px" viewBox="6.999 3.332 1700.008 970.948"
	 enable-background="new 6.999 3.332 1700.008 970.948" xml:space="preserve">
<rect fill="#313D3E" width="1707" height="976.67"/>
<path fill="#364242" d="M128,974.28c-1.273-0.675-2.488-1.504-3.826-2.003c-37.466-13.987-74.942-27.948-112.43-41.875
	c-1.512-0.562-3.16-0.756-4.744-1.122v-3c39.317,14.655,78.636,29.305,117.942,43.989c2.07,0.771,4.8,0.883,5.058,4.011H128z
	 M7,808.336v-6c1.624,1.878,3.365,3.67,4.85,5.65c5.88,7.84,11.676,15.739,17.76,23.965c17.196-10.124,34.368-10.12,51.61-0.45
	c0.648-0.845,1.02-1.405,1.468-1.897c83.033-91.557,166.06-183.12,249.162-274.613c2.765-3.044,2.91-5.977,1.742-9.646
	c-39.9,0.906-75.417-10.652-105.426-37.033c-30.13-26.484-45.955-60.167-47.986-100.723c-2.062,0-3.695,0.03-5.327-0.005
	c-43.8-0.95-87.597-1.933-131.396-2.84c-12.15-0.25-24.304-0.278-36.457-0.407v-3c1.827-0.038,3.655-0.145,5.48-0.103
	c54.45,1.252,108.902,2.52,163.353,3.773c1.295,0.03,2.593-0.11,4.39-0.195c0.357-24.39,6.44-47.11,18.59-68.02
	c-1.392-1.475-2.39-2.58-3.44-3.637c-61.51-61.926-123.02-123.85-184.552-185.754c-1.14-1.15-2.54-2.05-3.82-3.064v-4
	c1.584,1.473,3.218,2.894,4.74,4.427c61.41,61.8,122.807,123.61,184.21,185.413c1.34,1.348,2.745,2.634,3.855,3.697l22.023-27.307
	c-1.23-0.856-2.766-1.64-3.948-2.79C148.86,236.64,79.876,169.475,10.867,102.33c-1.16-1.13-2.573-2.003-3.868-2.996v-8
	c1.944,1.47,4.073,2.752,5.807,4.44c70.006,68.095,139.976,136.228,209.958,204.35c1.15,1.12,2.386,2.15,3.663,3.295
	c25.79-22.13,55.32-33.91,89.085-35.15c0-1.483,0.063-2.61-0.01-3.728c-1.825-28.267-3.657-56.534-5.505-84.8
	c-1.326-20.284-2.71-40.565-3.983-60.853c-0.17-2.71-0.87-4.126-3.964-4.478c-19.03-2.164-38.034-4.567-57.05-6.86
	c-34.396-4.15-68.796-8.265-103.19-12.416c-35.06-4.232-70.118-8.457-105.167-12.76C26.746,81.164,16.88,79.69,7,78.336v-2
	c17.855,2.167,35.712,4.32,53.564,6.505c36.863,4.514,73.723,9.05,110.585,13.564c37.357,4.574,74.717,9.14,112.08,13.69
	c7.19,0.877,14.387,1.672,22.116,2.566c-0.195-4.21-0.303-7.673-0.526-11.127c-0.904-13.964-1.805-27.928-2.78-41.887
	c-1.311-18.77-2.69-37.54-4.04-56.31h6c0.27,1.803,0.666,3.598,0.786,5.412c1.824,27.592,3.604,55.187,5.413,82.78
	c0.475,7.252,1.015,14.5,1.544,22.02l341,41.648c3.577-13.11,11.745-21.257,25.13-23.04v-44.35
	c-9.29-1.462-15.932-6.21-19.615-14.46c-3.804-8.52-1.914-16.658,3.09-24.33c-15.012-13.868-29.83-27.526-44.597-41.238
	c-1.41-1.31-2.51-2.954-3.754-4.442h2c13.492,12.59,26.982,25.18,40.477,37.768c2.29,2.135,4.591,4.256,6.316,5.856L678,40V3.335h2
	v37.723c17.07,1.105,29.588,21.055,17.066,39.26l57.983,56.078c16.16-10.976,31.247-2.8,34.86,12.19
	c25.55-2.275,51.177-4.556,75.467-6.72l8.132-17.085c-0.477-0.676-1.6-2.3-2.743-3.907c-26.703-37.612-53.414-75.22-80.095-112.847
	c-1.035-1.46-1.788-3.122-2.673-4.69h2c0.59,0.998,1.115,2.044,1.784,2.987c27.28,38.465,54.574,76.92,81.875,115.37
	c0.66,0.93,1.434,1.778,2.064,2.555c0.563-0.04,0.916,0.02,1.19-0.098c13.383-5.802,22.54-2.18,28.265,11.306
	c0.955,2.244,2.286,2.756,4.644,2.507c8.944-0.944,17.916-1.657,26.878-2.45c31.864-2.822,63.729-5.628,95.59-8.464
	c31.697-2.823,63.39-5.69,95.085-8.51c31.862-2.833,63.729-5.622,95.59-8.45c32.36-2.872,64.72-5.763,97.077-8.657
	c8.92-0.797,17.836-1.635,25.65-2.354l6.855-16.084c-25.018-24.89-50.3-50.04-75.565-75.208c-1.405-1.404-2.655-2.967-3.979-4.455h3
	c1.008,1.106,1.973,2.254,3.03,3.312c24.343,24.395,48.693,48.78,73.052,73.163c0.8,0.8,1.66,1.542,1.688,1.567l19.909-6.436
	L1392,3.335h2c-0.24,1.62-0.334,3.276-0.74,4.853c-5.493,21.424-11.035,42.836-16.544,64.257c-0.359,1.396-0.547,2.836-0.857,4.494
	c7.09,1.567,11.174,6.528,15.055,11.764c1.05-0.37,1.826-0.627,2.59-0.913c73.562-27.44,147.124-54.88,220.673-82.353
	c1.351-0.504,2.553-1.392,3.825-2.1h7c-1.772,1.062-3.434,2.436-5.34,3.144c-74.463,27.647-148.95,55.23-223.431,82.83
	c-1.666,0.618-3.303,1.317-4.933,1.97c2.216,9.478-0.515,17.386-7.026,23.28c-3.2,2.9-3.101,4.387-1.363,7.618
	c31.562,58.677,63.027,117.407,94.524,176.12c0.765,1.42,1.664,2.768,2.476,4.107c20.604-9.372,48.66-2.48,57.064,26.322
	c3.857-0.492,7.776-1.165,11.725-1.45c4.582-0.33,7.91-2.357,11.109-5.695c47.15-49.202,94.42-98.29,141.717-147.354
	c1.527-1.585,3.641-2.607,5.479-3.89v7c-1.253,1.034-2.625,1.957-3.746,3.12c-45.04,46.774-90.06,93.568-135.073,140.365
	c-0.885,0.922-1.702,1.907-3.072,3.447c1.886,0,2.989,0.134,4.055-0.02c23.714-3.437,47.42-6.93,71.134-10.36
	c22.23-3.216,44.473-6.37,66.708-9.552v3c-0.952,0.28-1.887,0.687-2.859,0.827c-19.446,2.785-38.897,5.526-58.345,8.302
	c-27.026,3.86-54.062,7.677-81.062,11.72c-2.392,0.357-5.043,1.757-6.75,3.486c-12.17,12.327-24.146,24.844-36.136,37.346
	c-4.782,4.984-4.66,3.423-1.381,9.547c52.271,97.623,104.562,195.233,156.873,292.833c9.83,18.342,19.771,36.627,29.658,54.938v5
	c-1.56-1.744-3.544-3.26-4.613-5.265c-61.461-115.061-122.847-230.16-184.244-345.254c-0.82-1.538-1.728-3.03-2.854-4.997
	L1247.729,653.98l174.138,191.063c14.553-9.848,29.724-11.04,45.13-3.534c15.622,7.61,23.546,20.891,25.602,38.154
	c13.506,1.271,26.756,2.533,40.009,3.767c31.018,2.889,62.04,5.7,93.044,8.728c3.573,0.35,5.805-0.594,8.132-3.266
	c22.66-26.01,45.438-51.916,68.25-77.79c1.35-1.527,3.303-2.521,4.974-3.764v6c-0.766,0.577-1.657,1.045-2.277,1.75
	c-21.869,24.88-43.716,49.78-65.548,74.69c-0.71,0.81-1.241,1.774-2.135,3.069c1.32,0.25,2.08,0.46,2.854,0.533
	c10.27,0.977,20.537,1.974,30.814,2.88c12.092,1.068,24.19,2.056,36.29,3.077v4c-1.328-0.022-2.663,0.042-3.979-0.08
	c-21.69-2.017-43.391-3.95-65.058-6.191c-3.603-0.372-5.806,0.548-8.118,3.202c-19.662,22.582-39.458,45.047-59.196,67.561
	c-0.832,0.948-1.511,2.03-2.181,2.939l9.53,2.57h-29c2.024-0.605,4.1-1.852,6.062-1.693c5.209,0.417,8.218-2.431,11.295-5.963
	c19.039-21.853,38.199-43.603,57.31-65.396c0.96-1.095,1.82-2.277,3.34-4.19c-45.294-4.244-89.768-8.412-133.99-12.56
	c-1.673,5.242-2.636,10.186-4.804,14.527c-2.24,4.482-5.65,8.383-8.63,12.656c1.034,1.248,2.08,2.535,3.15,3.801
	c15.176,17.927,30.374,35.834,45.493,53.808c1.203,1.433,1.859,3.327,2.77,5.008h-4c-16.822-20.002-33.645-40.006-50.486-59.992
	c-0.18-0.213-0.604-0.225-0.905-0.326c-28.496,17.935-66.564-2.193-68.974-37.586l-285.199-26.8
	c8.935,23.604,10.543,46.82,4.779,70.806c1.946,0.691,3.62,1.333,5.322,1.886c25.802,8.38,51.61,16.748,77.415,25.128
	c23.271,7.56,46.544,15.109,69.793,22.732c1.97,0.646,5.115,0.452,4.254,4.153h-11c-1.47-0.668-2.89-1.488-4.416-1.982
	c-45.994-14.925-91.998-29.817-138.004-44.704c-1.538-0.5-3.116-0.876-4.825-1.351c-0.516,1.228-0.944,2.11-1.265,3.032
	c-5.653,16.297-14.601,30.514-26.853,42.662c-0.664,0.66-1.097,1.555-1.64,2.34H934c1.89-2.658,3.782-5.315,5.606-7.883
	c-33.707-41.82-38.83-86.72-14.538-135.29c-75.656-7.1-150.997-14.17-225.91-21.197c-4.688,19.25-16.391,28.688-34.717,30.05
	c-0.156,0.801-0.305,1.283-0.341,1.772c-2.346,31.905-4.649,63.813-7.036,95.717c-0.921,12.286-2.036,24.556-3.063,36.833h-3
	c0.093-0.658,0.224-1.312,0.276-1.975c1.861-23.582,3.739-47.164,5.564-70.75c1.48-19.101,2.83-38.213,4.395-57.308
	c0.302-3.687-0.721-5.294-4.559-5.986c-3.135-0.565-6.233-2.165-8.979-3.893c-8.757-5.502-13.377-13.795-15.106-24.335
	l-272.956,27.5c0,1.47-0.047,2.286,0.007,3.098c2.417,36.406,4.873,72.812,7.24,109.22c0.53,8.133,0.754,16.283,1.118,24.426h-6
	c0.037-1.822,0.21-3.653,0.092-5.466c-2.731-41.875-5.49-83.747-8.274-125.618c-0.104-1.575-0.504-3.128-0.818-5.004L97.624,862.992
	c-1.81,20.493-11.894,34.284-29.953,41.628c-19.69,8.01-37.485,4.557-52.337-11.164c-2.92,1.71-5.628,3.293-8.335,4.877v-5
	l5.686-2.653L7,875.336v-12c0.388-0.624,0.982-1.202,1.13-1.88c1.52-6.9,4.51-13.088,9.136-18.41c2.78-3.2,5.813-6.18,9.17-9.72
	L7,808.336 M1092.898,806.792l148.852-154.734c-1.59-1.793-2.785-3.165-4.007-4.512c-23.061-25.42-46.124-50.84-69.188-76.26
	c-36.162-39.854-72.342-79.693-108.446-119.604c-2.391-2.642-3.874-3.83-7.728-1.52c-4.34,2.607-9.6,4.41-15.073,2.444
	c-4.72-1.696-9.458-3.351-14.56-5.153L764.373,706.96l166.023,115.61C969.73,770.255,1041.151,761.814,1092.898,806.792
	 M967.37,386.037L702.354,403.42c-0.155,8.31-2.63,14.856-7.877,20.48c-5.395,5.783-12.449,7.63-19.951,9.119
	c-0.097,2.008-0.226,3.811-0.261,5.614c-0.22,11.16-0.396,22.323-0.63,33.484c-1.146,54.804-2.284,109.608-3.513,164.41
	c-0.074,3.283,0.704,5.432,3.6,7.428c28.386,19.582,56.65,39.345,84.958,59.04c1.181,0.82,2.462,1.495,3.73,2.26
	c1.231-1.163,2.218-2.048,3.151-2.986c37.628-37.774,75.25-75.558,112.876-113.332c46.685-46.865,93.358-93.737,140.099-140.546
	c2.426-2.43,3.189-3.951,1.044-7.435c-4.96-8.04-4.75-16.688-0.043-24.926c2.652-4.642,2.89-4.523-0.893-8.3
	c-0.92-0.92-1.933-1.752-2.867-2.594c-17.641,13.594-43.116,6.05-48.407-19.098 M906.452,140.134
	c-0.056,6.663-1.826,12.585-6.851,16.214c-3.687,2.666-3.39,4.57-1.783,8.084c25.197,55.13,50.265,110.32,75.364,165.496
	c4.061,8.925,8.141,17.842,12.253,26.858c4.105-0.787,8.047-2.455,11.79-2.094c12.71,1.226,23.543,8.444,27.03,21.75
	c0.326,1.247,1.964,3.126,2.924,3.085c11.255-0.478,22.498-1.268,33.71-1.974c1.416-13.05,7.083-22.604,18.58-28.073
	c11.806-5.618,22.74-2.922,33.074,4.443c79.864-80.17,159.43-160.035,238.662-239.567l-5.168-12.992l-439.586,38.773
	 M1457.338,345.651l-392.257,78.72c1.218,8.57-1.7,15.604-6.663,21.902l185.506,203.537
	c88.844-92.353,177.345-184.347,266.59-277.118c-30.322,7.398-48.233-8.71-53.174-27.044 M391.504,530.562
	c-14.314,6.777-28.934,11.104-44.177,13.428c-4.272,0.651-6.895,4.324-6.62,8.52c2.564,39.565,5.142,79.13,7.744,118.69
	c2.907,44.22,5.835,88.434,8.771,132.647c0.648,9.761,1.37,19.518,2.09,29.71L631.96,806.57c0.844-9.176,3.685-17.301,9.616-24.276
	l-250.07-251.731 M311.823,115.68l10,151.402c67.224,3.776,115.235,34.208,140.97,97.44c65.557-62.484,130.9-124.764,196.1-186.91
	c-1.638-3.53-3.43-6.527-4.425-9.77c-1.043-3.4-1.317-7.036-1.993-10.943C539.355,143.209,426.125,129.509,311.823,115.68
	 M1353.256,115.494c-79.93,80.283-159.496,160.2-238.38,239.43c3,6.117,5.71,11.648,8.522,17.39l332.696-33.478
	c0.674-15.492,8.032-26.843,21.046-34.94L1378.5,118.78c-9.18,2.91-17.45,2.672-25.244-3.284 M675.643,377.102
	c11.07,1.347,20.118,5.503,23.326,15.8c2.58,8.285,7.106,8.366,14.144,7.832c32.887-2.496,65.814-4.436,98.726-6.61
	c43.714-2.887,87.426-5.8,131.141-8.717c8.264-0.55,16.521-1.166,24.96-1.763c0.21-7.82,2.861-14.236,7.92-19.695L783.61,167.324
	c-14.08,10.364-29.554,3.365-33.355-10.082c-0.81-2.863-2.392-3.12-4.778-2.9c-10.116,0.926-20.239,1.775-30.357,2.68
	c-2.913,0.26-5.82,0.615-9.068,0.962c1.063,8.26-1.75,15.005-6.615,20.592c-4.955,5.69-11.92,7.955-19.894,8.254l-3.904,190.27
	 M353.238,834.154l-18.346-277.179l-1.116-0.308c-83.25,92.213-166.5,184.427-249.535,276.4c3.146,4.392,6.47,8.146,8.746,12.457
	c2.254,4.266,3.45,9.088,5.188,13.88c84.795-8.393,169.616-16.792,255.066-25.252 M1096.801,810.878
	c9.391,9.794,16.744,20.615,22.48,32.577c0.557,1.16,2.933,1.883,4.54,2.04c19.062,1.876,38.14,3.605,57.214,5.374l93.048,8.62
	c27.034,2.504,54.07,5.01,81.103,7.52c15.758,1.46,31.511,2.96,47.271,4.37c4.86,0.438,4.772,0.26,5.772-4.497
	c0.535-2.55,1.369-5.14,2.611-7.416c2.346-4.302,5.08-8.392,7.71-12.657c-57.633-63.515-115.165-126.92-172.96-190.616
	L1096.801,810.878 M445.34,484.811c74.29,51.73,148.014,103.063,222.68,155.054c0-3.443-0.034-5.431,0.008-7.417
	c0.522-24.825,1.055-49.65,1.59-74.48c0.87-40.154,1.7-80.31,2.68-120.464c0.096-3.865-1.042-5.283-4.936-6.32
	c-3.95-1.052-7.683-3.604-11.019-6.144c-6.215-4.73-9.09-11.458-9.566-19.505l-177.196,2.054c-0.272,28.18-8.226,53.73-24.24,77.22
	 M442.443,490.295c-7.88,7.672-14.851,15.36-22.765,21.903c-7.854,6.496-16.663,11.838-25.217,17.8
	C477.43,613.51,560.4,697.02,642.43,779.59l22.477-9.646c0.017-0.324,0.105-1.473,0.13-2.622c0.835-38.813,1.6-77.63,2.597-116.44
	c0.096-3.737-1.783-5.298-4.325-7.065c-72.359-50.32-144.694-100.67-217.04-151.013c-1.347-0.939-2.746-1.804-3.821-2.506
	 M659.642,179.303c-13.273,12.7-26.989,25.824-40.71,38.946c-50.8,48.592-101.582,97.204-152.456,145.72
	c-2.508,2.392-3.057,4.43-2.159,7.75c1.645,6.087,2.821,12.318,3.85,18.546c0.804,4.873,1.087,9.832,1.63,15.024l177.04-1.84
	c0.8-13.255,10.584-25.097,26.784-26.44l4.176-188.996L659.642,179.303 M785.595,166.757L977.43,362.346l6.014-4.46l-89.586-197.695
	c-6.271,2.018-11.815,1.48-17.358-1.704c-5.86-3.364-7.913-8.963-9.915-14.856c-25.573,2.27-50.87,4.518-75.09,6.67
	c-2.138,5.96-3.891,10.85-5.9,16.458 M924.924,827.237l0.266-1.12l-164.16-114.24c-23.956,23.658-47.29,46.7-70.823,69.942
	c6.578,6.731,8.804,15.186,9.22,24.573c75.372,6.97,150.436,13.909,225.5,20.847 M1065.041,421.915l390.782-78.98l-0.197-1.088
	l-332.497,32.925c-0.783,13.186-5.474,23.95-17.99,29.8c-12.556,5.872-24.014,3.185-34.176-4.663l-11.8,11.222l5.878,10.78
	 M687.751,778.238l69.64-68.902c-28.737-20-57.609-40.088-87.437-60.845l-2.559,121.532
	C674.822,773.023,681.592,775.753,687.751,778.238 M696.67,82.411l-16.407,6.462v43.355c14.368,1.85,22.894,10.165,26.378,23.78
	c14.508-1.304,28.388-2.55,41.377-3.72l5.603-14.81C734.66,119.144,715.51,100.626,696.67,82.411 M1057.24,409.729
	c2.447-2.55,4.714-4.96,7.035-7.315c4.319-4.38,4.177-4.276,1.153-9.527c-1.457-2.53-2.214-5.468-3.243-8.237
	c-0.554-1.495-1.013-3.025-1.569-4.708l-33.628,2.235c-3.051,7.82-5.645,14.475-8.516,21.84c0.34,0.374,1.534,1.518,2.543,2.807
	c2.08,2.657,3.895,3.163,7.077,0.997c2.724-1.854,6.367-2.553,9.71-3.258C1044.701,403.107,1050.734,405.727,1057.24,409.729
	 M1537.462,331.964l-0.66,10.858l13.418-11.703l-0.345-0.878C1545.777,330.811,1541.681,331.381,1537.462,331.964"/>
<path fill="#364242" d="M1707,954.335c-11.672,5.362-23.355,10.703-35.007,16.11c-1.737,0.805-3.332,1.92-4.993,2.89h-7
	c0.895-1.087,1.566-2.668,2.718-3.184c14.067-6.316,28.2-12.485,42.334-18.654c0.565-0.247,1.295-0.115,1.948-0.16v3V954.335z"/>
</svg>
