<svg xmlns="http://www.w3.org/2000/svg" width="1707" height="976.67" viewBox="0 0 1707 976.67">
    <rect fill="#313d3e" width="100%" height="100%"/>
    <path fill="#364242" d="M128 974.28c-1.273-.675-2.488-1.504-3.826-2.003-37.466-13.987-74.942-27.948-112.43-41.875-1.512-.562-3.16-.756-4.744-1.122v-3c39.317 14.656 78.636 29.305 117.942 43.99 2.07.77 4.8.882 5.058 4.01h-2zM7 808.336v-6c1.624 1.878 3.365 3.67 4.85 5.65 5.88 7.84 11.676 15.74 17.76 23.965 17.196-10.124 34.368-10.12 51.61-.45.648-.845 1.02-1.405 1.468-1.898 83.033-91.556 166.06-183.12 249.162-274.613 2.764-3.044 2.91-5.976 1.742-9.645-39.9.906-75.417-10.653-105.426-37.033-30.13-26.485-45.955-60.167-47.986-100.723-2.062 0-3.695.03-5.327-.005-43.8-.95-87.597-1.933-131.396-2.84-12.15-.25-24.304-.278-36.457-.407v-3c1.827-.038 3.655-.145 5.48-.103 54.45 1.252 108.902 2.52 163.353 3.773 1.295.03 2.593-.11 4.39-.195.357-24.39 6.44-47.11 18.59-68.02-1.392-1.475-2.39-2.58-3.44-3.637-61.51-61.926-123.02-123.85-184.552-185.754-1.14-1.15-2.54-2.05-3.82-3.064v-4c1.584 1.473 3.218 2.894 4.74 4.427 61.41 61.8 122.807 123.61 184.21 185.413 1.34 1.348 2.745 2.634 3.855 3.697l22.023-27.307c-1.23-.856-2.766-1.64-3.948-2.79C148.86 236.64 79.876 169.475 10.867 102.33c-1.16-1.13-2.573-2.003-3.868-2.996v-8c1.944 1.47 4.073 2.752 5.807 4.44 70.006 68.095 139.976 136.228 209.958 204.35 1.15 1.12 2.386 2.15 3.663 3.295 25.79-22.13 55.32-33.91 89.085-35.15 0-1.483.063-2.61-.01-3.728-1.825-28.267-3.657-56.534-5.505-84.8-1.326-20.284-2.71-40.565-3.983-60.853-.17-2.71-.87-4.126-3.964-4.478-19.03-2.164-38.034-4.567-57.05-6.86-34.396-4.15-68.796-8.265-103.19-12.416-35.06-4.232-70.118-8.457-105.167-12.76C26.746 81.164 16.88 79.69 7 78.336v-2c17.855 2.167 35.712 4.32 53.564 6.505 36.863 4.514 73.723 9.05 110.585 13.564 37.357 4.574 74.717 9.14 112.08 13.69 7.19.877 14.387 1.672 22.116 2.566-.196-4.21-.303-7.673-.527-11.127-.904-13.964-1.804-27.928-2.78-41.887-1.31-18.77-2.69-37.54-4.04-56.31h6c.27 1.803.666 3.598.786 5.412 1.824 27.592 3.604 55.187 5.413 82.78.475 7.252 1.015 14.5 1.544 22.02l341 41.648c3.577-13.11 11.745-21.257 25.13-23.04v-44.35c-9.29-1.462-15.932-6.21-19.615-14.46-3.804-8.52-1.914-16.658 3.09-24.33-15.012-13.868-29.83-27.526-44.597-41.238-1.41-1.31-2.51-2.954-3.754-4.442h2c13.492 12.59 26.983 25.18 40.477 37.768 2.29 2.135 4.59 4.256 6.316 5.856L678 40V3.335h2v37.723c17.07 1.105 29.588 21.055 17.066 39.26l57.984 56.078c16.16-10.976 31.247-2.8 34.86 12.19 25.55-2.275 51.177-4.556 75.467-6.72l8.132-17.085c-.477-.676-1.6-2.3-2.743-3.907-26.703-37.612-53.414-75.22-80.095-112.847-1.035-1.46-1.788-3.122-2.673-4.69h2c.59.998 1.115 2.044 1.784 2.987 27.28 38.465 54.574 76.92 81.875 115.37.66.93 1.434 1.778 2.065 2.555.563-.04.916.02 1.19-.098 13.383-5.802 22.54-2.18 28.265 11.306.955 2.244 2.286 2.756 4.643 2.507 8.945-.944 17.916-1.657 26.878-2.45 31.864-2.822 63.73-5.628 95.59-8.464 31.697-2.823 63.39-5.69 95.085-8.51 31.862-2.833 63.728-5.622 95.59-8.45 32.36-2.872 64.72-5.763 97.077-8.657 8.92-.797 17.836-1.635 25.65-2.354l6.856-16.084c-25.018-24.89-50.3-50.04-75.565-75.208-1.406-1.404-2.656-2.967-3.98-4.455h3c1.008 1.106 1.973 2.254 3.03 3.312 24.343 24.395 48.694 48.78 73.052 73.163.8.8 1.66 1.542 1.688 1.567l19.91-6.436L1392 3.335h2c-.24 1.62-.334 3.276-.74 4.853-5.493 21.424-11.035 42.836-16.544 64.257-.36 1.396-.547 2.836-.858 4.494 7.09 1.567 11.174 6.528 15.055 11.764 1.05-.37 1.826-.627 2.59-.913 73.562-27.44 147.124-54.88 220.673-82.353 1.35-.504 2.553-1.392 3.825-2.1h7c-1.773 1.062-3.434 2.436-5.34 3.144-74.463 27.647-148.95 55.23-223.43 82.83-1.666.618-3.303 1.317-4.933 1.97 2.216 9.478-.515 17.386-7.027 23.28-3.2 2.9-3.1 4.387-1.363 7.618 31.563 58.677 63.028 117.407 94.525 176.12.764 1.42 1.664 2.768 2.475 4.107 20.605-9.372 48.66-2.48 57.065 26.322 3.857-.492 7.776-1.165 11.724-1.45 4.582-.33 7.91-2.357 11.11-5.695 47.15-49.202 94.42-98.29 141.717-147.354 1.527-1.585 3.64-2.607 5.478-3.89v7c-1.253 1.034-2.625 1.957-3.746 3.12-45.04 46.774-90.06 93.568-135.073 140.365-.885.922-1.703 1.907-3.073 3.447 1.886 0 2.99.134 4.055-.02 23.714-3.437 47.42-6.93 71.134-10.36 22.23-3.216 44.472-6.37 66.708-9.552v3c-.952.28-1.887.687-2.86.827-19.446 2.785-38.897 5.526-58.344 8.302-27.027 3.86-54.062 7.677-81.062 11.72-2.392.357-5.043 1.757-6.75 3.486-12.17 12.327-24.145 24.844-36.136 37.346-4.782 4.984-4.66 3.423-1.38 9.547 52.27 97.622 104.562 195.233 156.873 292.833 9.83 18.342 19.77 36.627 29.658 54.938v5c-1.56-1.744-3.544-3.26-4.614-5.265-61.46-115.06-122.846-230.16-184.244-345.254-.82-1.538-1.727-3.03-2.854-4.997L1247.728 653.98l174.138 191.064c14.553-9.848 29.724-11.04 45.13-3.534 15.622 7.61 23.546 20.89 25.602 38.154 13.505 1.272 26.755 2.533 40.008 3.767 31.018 2.888 62.04 5.7 93.044 8.727 3.574.35 5.805-.593 8.132-3.265 22.66-26.01 45.438-51.916 68.25-77.79 1.35-1.528 3.303-2.522 4.974-3.764v6c-.766.577-1.657 1.045-2.277 1.75-21.87 24.88-43.716 49.78-65.548 74.69-.71.81-1.242 1.775-2.135 3.07 1.32.25 2.08.46 2.854.533 10.27.976 20.538 1.973 30.815 2.88 12.092 1.068 24.19 2.055 36.29 3.077v4c-1.328-.023-2.663.042-3.98-.08-21.69-2.017-43.39-3.95-65.057-6.192-3.603-.372-5.806.548-8.118 3.203-19.662 22.582-39.458 45.046-59.197 67.56-.832.948-1.51 2.03-2.18 2.94l9.53 2.57h-29c2.024-.606 4.1-1.852 6.062-1.694 5.208.417 8.217-2.43 11.294-5.962 19.04-21.853 38.2-43.603 57.31-65.396.96-1.095 1.82-2.277 3.34-4.19-45.294-4.245-89.768-8.413-133.99-12.56-1.673 5.242-2.636 10.186-4.804 14.527-2.24 4.483-5.65 8.383-8.63 12.657 1.034 1.248 2.08 2.535 3.15 3.8 15.176 17.927 30.374 35.834 45.493 53.808 1.204 1.433 1.86 3.327 2.77 5.008h-4c-16.822-20.002-33.645-40.006-50.486-59.992-.18-.213-.604-.225-.906-.326-28.496 17.934-66.564-2.194-68.973-37.586l-285.2-26.8c8.935 23.603 10.544 46.82 4.78 70.805 1.946.692 3.62 1.333 5.322 1.886 25.802 8.38 51.61 16.748 77.415 25.128 23.27 7.56 46.544 15.11 69.793 22.733 1.97.646 5.115.452 4.254 4.153h-11c-1.47-.668-2.89-1.488-4.416-1.983-45.994-14.924-91.998-29.817-138.004-44.704-1.538-.5-3.116-.876-4.825-1.35-.516 1.227-.945 2.11-1.265 3.032-5.653 16.297-14.6 30.514-26.852 42.662-.664.66-1.097 1.555-1.64 2.34H934c1.89-2.658 3.782-5.316 5.606-7.883-33.707-41.82-38.83-86.72-14.538-135.29-75.656-7.1-150.997-14.17-225.91-21.197-4.688 19.25-16.39 28.687-34.717 30.05-.156.8-.304 1.283-.34 1.772-2.346 31.905-4.65 63.814-7.037 95.717-.92 12.286-2.036 24.556-3.063 36.833h-3c.093-.658.224-1.313.276-1.975 1.862-23.582 3.74-47.164 5.565-70.75 1.48-19.1 2.83-38.213 4.394-57.307.302-3.687-.72-5.294-4.558-5.987-3.135-.565-6.234-2.165-8.98-3.892-8.757-5.502-13.377-13.795-15.106-24.335l-272.956 27.5c0 1.47-.047 2.286.007 3.097 2.417 36.407 4.873 72.812 7.24 109.22.53 8.133.754 16.283 1.118 24.426h-6c.037-1.822.21-3.653.092-5.466-2.732-41.875-5.49-83.747-8.275-125.618-.104-1.575-.504-3.128-.818-5.004L97.624 862.992c-1.81 20.493-11.894 34.284-29.953 41.628-19.69 8.01-37.485 4.557-52.337-11.164-2.92 1.71-5.628 3.293-8.335 4.877v-5l5.686-2.653L7 875.336v-12c.388-.624.982-1.202 1.13-1.88 1.52-6.9 4.51-13.088 9.136-18.41 2.78-3.2 5.813-6.18 9.17-9.72L7 808.336m1085.898-1.544l148.852-154.734c-1.59-1.793-2.785-3.165-4.007-4.512-23.06-25.42-46.124-50.84-69.188-76.26-36.162-39.854-72.342-79.693-108.447-119.603-2.39-2.642-3.874-3.83-7.727-1.52-4.34 2.608-9.6 4.41-15.073 2.444-4.72-1.696-9.458-3.35-14.56-5.153L764.373 706.96l166.024 115.61c39.333-52.315 110.754-60.756 162.502-15.778M967.37 386.037L702.354 403.42c-.156 8.31-2.63 14.856-7.877 20.48-5.395 5.784-12.45 7.63-19.952 9.12-.096 2.007-.225 3.81-.26 5.614-.22 11.16-.396 22.323-.63 33.484-1.146 54.804-2.284 109.608-3.513 164.41-.074 3.283.704 5.432 3.6 7.428 28.386 19.582 56.65 39.345 84.958 59.04 1.18.82 2.462 1.495 3.73 2.26 1.232-1.163 2.218-2.048 3.152-2.986 37.628-37.775 75.25-75.558 112.876-113.333 46.684-46.865 93.358-93.737 140.098-140.545 2.426-2.43 3.19-3.952 1.044-7.435-4.96-8.04-4.75-16.688-.043-24.926 2.653-4.642 2.89-4.523-.892-8.3-.92-.92-1.933-1.752-2.868-2.594-17.64 13.594-43.116 6.05-48.407-19.098m-60.918-245.905c-.055 6.663-1.826 12.585-6.85 16.214-3.687 2.666-3.39 4.57-1.784 8.084 25.198 55.13 50.265 110.32 75.365 165.496 4.06 8.925 8.14 17.842 12.253 26.858 4.105-.787 8.046-2.455 11.79-2.094 12.71 1.226 23.543 8.444 27.03 21.75.326 1.247 1.964 3.126 2.924 3.085 11.255-.478 22.498-1.268 33.71-1.974 1.416-13.05 7.083-22.604 18.58-28.073 11.806-5.618 22.74-2.922 33.074 4.443 79.865-80.17 159.43-160.035 238.662-239.567l-5.168-12.992-439.586 38.773m550.886 205.514l-392.257 78.72c1.218 8.57-1.7 15.604-6.663 21.902l185.506 203.537c88.844-92.352 177.345-184.346 266.59-277.117-30.322 7.398-48.233-8.71-53.174-27.044M391.504 530.562c-14.315 6.778-28.934 11.104-44.177 13.428-4.272.652-6.894 4.324-6.62 8.52 2.564 39.565 5.142 79.13 7.744 118.69 2.907 44.22 5.835 88.434 8.772 132.648.648 9.76 1.37 19.517 2.09 29.71L631.96 806.57c.844-9.175 3.684-17.3 9.616-24.276l-250.07-251.732M311.823 115.68l10 151.402c67.224 3.776 115.236 34.208 140.97 97.44 65.557-62.484 130.9-124.764 196.1-186.91-1.638-3.53-3.43-6.527-4.425-9.77-1.043-3.4-1.318-7.036-1.993-10.943-113.12-13.69-226.35-27.39-340.653-41.22m1041.434-.185c-79.93 80.283-159.496 160.2-238.38 239.43 3 6.117 5.71 11.648 8.522 17.39l332.697-33.478c.674-15.492 8.032-26.843 21.046-34.94L1378.5 118.78c-9.18 2.91-17.45 2.672-25.244-3.284M675.643 377.102c11.07 1.347 20.118 5.503 23.326 15.8 2.58 8.285 7.106 8.366 14.143 7.832 32.887-2.496 65.815-4.436 98.726-6.61 43.714-2.887 87.426-5.8 131.14-8.717 8.264-.55 16.522-1.166 24.96-1.763.21-7.82 2.862-14.236 7.92-19.695L783.61 167.324c-14.08 10.364-29.553 3.365-33.355-10.082-.81-2.863-2.392-3.12-4.778-2.9-10.117.926-20.24 1.775-30.358 2.68-2.913.26-5.82.615-9.068.962 1.063 8.26-1.75 15.005-6.615 20.592-4.956 5.69-11.92 7.955-19.894 8.254l-3.904 190.27m-322.4 457.054l-18.345-277.178-1.117-.308c-83.25 92.213-166.5 184.427-249.535 276.4 3.146 4.392 6.47 8.147 8.746 12.457 2.254 4.266 3.45 9.088 5.188 13.88 84.795-8.392 169.616-16.792 255.066-25.252m743.56-23.275c9.39 9.794 16.744 20.615 22.48 32.577.557 1.16 2.933 1.883 4.54 2.04 19.062 1.876 38.14 3.606 57.214 5.374l93.048 8.62c27.034 2.504 54.07 5.01 81.103 7.52 15.757 1.46 31.51 2.96 47.27 4.37 4.86.437 4.773.26 5.772-4.497.536-2.55 1.37-5.14 2.612-7.416 2.345-4.302 5.08-8.392 7.71-12.657-57.633-63.515-115.165-126.92-172.96-190.617l-148.79 154.687m-651.46-326.068c74.29 51.73 148.014 103.063 222.68 155.053 0-3.443-.035-5.43.007-7.417.523-24.825 1.055-49.65 1.59-74.48.87-40.154 1.7-80.31 2.68-120.464.096-3.865-1.042-5.283-4.936-6.32-3.95-1.052-7.682-3.605-11.018-6.144-6.215-4.73-9.09-11.458-9.567-19.505l-177.196 2.054c-.272 28.18-8.226 53.73-24.24 77.22m-2.897 5.487c-7.88 7.672-14.85 15.36-22.764 21.903-7.855 6.496-16.663 11.838-25.217 17.8C477.43 613.51 560.4 697.02 642.43 779.59l22.476-9.646c.017-.324.106-1.472.13-2.622.835-38.813 1.6-77.63 2.597-116.44.096-3.737-1.783-5.298-4.325-7.066-72.36-50.32-144.695-100.67-217.04-151.012-1.347-.94-2.747-1.804-3.822-2.506m217.196-310.995c-13.274 12.7-26.99 25.824-40.71 38.946-50.8 48.592-101.582 97.204-152.456 145.72-2.508 2.392-3.057 4.43-2.16 7.75 1.645 6.087 2.822 12.318 3.85 18.546.804 4.873 1.087 9.832 1.63 15.024l177.04-1.84c.8-13.255 10.584-25.097 26.784-26.44l4.176-188.996-18.154-8.71m125.953-12.546L977.43 362.346l6.013-4.46-89.586-197.695c-6.27 2.018-11.815 1.48-17.358-1.704-5.86-3.364-7.913-8.963-9.915-14.856-25.573 2.27-50.87 4.518-75.09 6.67-2.138 5.96-3.89 10.85-5.9 16.458m139.33 660.478l.265-1.12-164.16-114.24c-23.956 23.658-47.29 46.7-70.823 69.942 6.578 6.732 8.804 15.186 9.22 24.573 75.372 6.97 150.435 13.91 225.5 20.847m140.115-405.324l390.782-78.98-.197-1.088-332.497 32.925c-.783 13.186-5.474 23.95-17.99 29.8-12.556 5.872-24.014 3.185-34.176-4.663l-11.8 11.222 5.878 10.78m-377.29 356.327l69.64-68.902c-28.738-20-57.61-40.088-87.437-60.845l-2.558 121.532c7.426 3 14.196 5.73 20.354 8.216m8.92-695.828l-16.407 6.462v43.355c14.368 1.85 22.893 10.165 26.378 23.78 14.508-1.304 28.387-2.55 41.377-3.72l5.602-14.81c-18.96-18.334-38.11-36.852-56.95-55.066m360.57 327.317c2.448-2.55 4.714-4.96 7.035-7.315 4.32-4.38 4.177-4.276 1.154-9.527-1.457-2.53-2.214-5.468-3.243-8.237-.554-1.495-1.013-3.025-1.57-4.708l-33.628 2.235c-3.05 7.82-5.644 14.475-8.515 21.84.34.374 1.534 1.518 2.543 2.807 2.08 2.657 3.894 3.163 7.077.997 2.724-1.854 6.367-2.553 9.71-3.258 6.898-1.456 12.932 1.164 19.436 5.166m480.223-77.765l-.66 10.858 13.418-11.703-.345-.878c-4.098.57-8.194 1.14-12.412 1.724"/>
    <path fill="#364242" d="M1707 954.335c-11.672 5.362-23.355 10.703-35.007 16.11-1.737.805-3.332 1.92-4.993 2.89h-7c.895-1.087 1.566-2.668 2.718-3.184 14.067-6.316 28.2-12.485 42.334-18.654.565-.247 1.295-.115 1.948-.16v3z"/>
</svg>
