<?xml version="1.0" encoding="utf-8"?>
<!DOCTYPE svg PUBLIC "-//W3C//DTD SVG 1.1//EN" "http://www.w3.org/Graphics/SVG/1.1/DTD/svg11.dtd">
<svg version="1.1" id="Layer_1" xmlns="http://www.w3.org/2000/svg" xmlns:xlink="http://www.w3.org/1999/xlink" x="0px" y="0px" width="1707px" height="976.67px" viewBox="0 0 1707 976.67" xml:space="preserve">
<g>
	<rect fill="#313d3e" width="100%" height="100%"/>
	<path fill="#3A4645" d="M128,974.28c-1.273-0.675-2.488-1.504-3.826-2.003
		c-37.466-13.987-74.942-27.948-112.43-41.875c-1.512-0.562-3.159-0.756-4.744-1.122c0-1,0-2,0-3
		c39.317,14.656,78.636,29.305,117.942,43.989c2.071,0.772,4.799,0.883,5.058,4.011H128z"/>
	<path fill="#3A4645" d="M7,808.336c0-2,0-4,0-6c1.624,1.878,3.365,3.67,4.851,5.651
		c5.878,7.839,11.675,15.739,17.76,23.964c17.195-10.126,34.367-10.123,51.608-0.453c0.649-0.844,1.022-1.404,1.469-1.897
		c83.033-91.557,166.06-183.12,249.162-274.614c2.764-3.043,2.91-5.975,1.742-9.644c-39.901,0.906-75.417-10.653-105.426-37.033
		c-30.129-26.485-45.955-60.167-47.986-100.723c-2.062,0-3.695,0.031-5.327-0.004c-43.799-0.949-87.597-1.933-131.396-2.84
		c-12.15-0.251-24.304-0.278-36.457-0.407v-3c1.827-0.038,3.655-0.145,5.479-0.103c54.452,1.252,108.903,2.521,163.354,3.773
		c1.295,0.03,2.593-0.11,4.389-0.195c0.358-24.392,6.441-47.112,18.592-68.022c-1.393-1.474-2.392-2.58-3.44-3.636
		c-61.51-61.926-123.021-123.85-184.553-185.754c-1.143-1.15-2.542-2.048-3.821-3.063c0-1.334,0-2.667,0-4
		c1.583,1.473,3.217,2.894,4.74,4.427c61.409,61.799,122.806,123.61,184.211,185.413c1.34,1.348,2.743,2.634,3.853,3.697
		c7.363-9.129,14.321-17.756,22.023-27.307c-1.23-0.856-2.766-1.641-3.948-2.791c-69.017-67.134-138.002-134.3-207.011-201.443
		c-1.161-1.13-2.573-2.003-3.868-2.996c0-2.667,0-5.334,0-8c1.945,1.47,4.074,2.752,5.808,4.44
		c70.006,68.095,139.976,136.228,209.958,204.349c1.15,1.12,2.386,2.151,3.663,3.296c25.792-22.132,55.322-33.909,89.086-35.15
		c0-1.483,0.063-2.61-0.01-3.728c-1.825-28.267-3.657-56.534-5.505-84.799c-1.326-20.285-2.71-40.566-3.983-60.854
		c-0.17-2.71-0.87-4.125-3.964-4.477c-19.031-2.164-38.035-4.567-57.052-6.861c-34.396-4.149-68.796-8.264-103.192-12.415
		c-35.058-4.232-70.116-8.457-105.165-12.759C26.746,81.163,16.88,79.689,7,78.335c0-0.667,0-1.334,0-2
		c17.855,2.167,35.712,4.32,53.564,6.505c36.863,4.513,73.723,9.05,110.585,13.563c37.359,4.574,74.719,9.139,112.08,13.691
		c7.19,0.876,14.389,1.671,22.118,2.565c-0.196-4.21-0.303-7.672-0.527-11.126c-0.903-13.964-1.803-27.928-2.778-41.887
		C300.73,40.875,299.351,22.105,298,3.335h6c0.269,1.804,0.667,3.599,0.787,5.413c1.824,27.592,3.604,55.187,5.413,82.78
		c0.476,7.252,1.016,14.5,1.545,22.019c113.896,13.911,227.254,27.756,340.999,41.649c3.578-13.111,11.746-21.257,25.131-23.041
		V87.805c-9.289-1.461-15.932-6.21-19.615-14.46c-3.803-8.52-1.913-16.657,3.092-24.33c-15.013-13.867-29.83-27.525-44.598-41.237
		c-1.41-1.31-2.51-2.954-3.754-4.442h2c13.493,12.589,26.984,25.18,40.478,37.768c2.289,2.135,4.59,4.256,6.316,5.856
		c5.642-2.423,10.669-4.582,16.206-6.96V3.335h2v37.723c17.07,1.105,29.588,21.055,17.066,39.261
		c19.305,18.67,38.666,37.394,57.984,56.077c16.161-10.976,31.247-2.799,34.861,12.19c25.549-2.275,51.176-4.556,75.466-6.719
		c2.911-6.116,5.343-11.226,8.132-17.086c-0.475-0.678-1.599-2.3-2.741-3.909c-26.703-37.612-53.414-75.219-80.095-112.847
		c-1.035-1.461-1.788-3.122-2.673-4.69h2c0.592,0.998,1.116,2.044,1.785,2.987c27.281,38.465,54.574,76.921,81.875,115.37
		c0.66,0.93,1.435,1.778,2.066,2.555c0.563-0.041,0.916,0.021,1.19-0.098c13.383-5.801,22.539-2.18,28.265,11.307
		c0.954,2.244,2.285,2.756,4.642,2.507c8.945-0.944,17.916-1.657,26.878-2.45c31.862-2.822,63.728-5.628,95.59-8.464
		c31.695-2.821,63.388-5.688,95.083-8.507c31.862-2.834,63.728-5.623,95.591-8.451c32.36-2.872,64.718-5.763,97.076-8.657
		c8.919-0.797,17.835-1.635,25.648-2.354c2.459-5.767,4.547-10.665,6.857-16.083c-25.018-24.891-50.3-50.04-75.565-75.208
		c-1.407-1.403-2.657-2.966-3.981-4.454h3c1.008,1.106,1.973,2.254,3.029,3.312c24.344,24.395,48.695,48.781,73.053,73.163
		c0.8,0.801,1.66,1.542,1.688,1.567c6.729-2.175,12.767-4.127,19.909-6.436c5.883-22.993,12.103-47.3,18.321-71.606h2
		c-0.239,1.619-0.334,3.276-0.739,4.853c-5.494,21.425-11.036,42.837-16.545,64.258c-0.359,1.396-0.547,2.836-0.858,4.494
		c7.09,1.566,11.174,6.527,15.055,11.763c1.051-0.37,1.826-0.627,2.59-0.913c73.562-27.441,147.124-54.882,220.673-82.354
		c1.349-0.504,2.553-1.392,3.825-2.101h7c-1.775,1.063-3.436,2.437-5.342,3.145c-74.463,27.646-148.948,55.23-223.428,82.829
		c-1.668,0.618-3.305,1.317-4.935,1.97c2.216,9.478-0.515,17.386-7.027,23.282c-3.2,2.897-3.1,4.385-1.362,7.616
		c31.563,58.677,63.028,117.407,94.525,176.119c0.764,1.422,1.664,2.769,2.475,4.108c20.605-9.372,48.661-2.481,57.065,26.322
		c3.857-0.492,7.776-1.165,11.724-1.45c4.582-0.33,7.91-2.357,11.11-5.695c47.15-49.203,94.42-98.292,141.717-147.355
		c1.527-1.585,3.639-2.607,5.478-3.891v7c-1.255,1.035-2.627,1.958-3.748,3.122c-45.04,46.773-90.059,93.567-135.073,140.364
		c-0.886,0.921-1.704,1.906-3.074,3.446c1.886,0,2.99,0.134,4.055-0.02c23.713-3.437,47.418-6.931,71.133-10.361
		c22.23-3.215,44.472-6.37,66.708-9.551v3c-0.952,0.281-1.887,0.687-2.861,0.827c-19.445,2.785-38.896,5.526-58.343,8.302
		c-27.027,3.859-54.062,7.677-81.062,11.719c-2.392,0.358-5.043,1.758-6.75,3.487c-12.169,12.327-24.145,24.844-36.136,37.346
		c-4.782,4.985-4.659,3.424-1.38,9.548c52.271,97.622,104.562,195.233,156.873,292.833c9.831,18.342,19.77,36.627,29.658,54.938v5
		c-1.56-1.744-3.545-3.261-4.615-5.265c-61.461-115.06-122.845-230.161-184.243-345.254c-0.819-1.537-1.727-3.028-2.854-4.996
		c-89.439,92.981-178.354,185.417-267.563,278.158c58.122,63.771,116,127.274,174.138,191.063
		c14.553-9.849,29.724-11.042,45.129-3.535c15.623,7.61,23.547,20.891,25.603,38.154c13.505,1.272,26.755,2.533,40.008,3.767
		c31.018,2.887,62.041,5.698,93.044,8.726c3.574,0.35,5.805-0.593,8.132-3.265c22.66-26.009,45.438-51.916,68.251-77.79
		c1.349-1.528,3.302-2.522,4.973-3.764v6c-0.766,0.577-1.657,1.045-2.277,1.751c-21.869,24.879-43.715,49.778-65.547,74.689
		c-0.709,0.811-1.242,1.775-2.135,3.07c1.32,0.251,2.081,0.46,2.854,0.533c10.271,0.975,20.538,1.972,30.815,2.88
		c12.092,1.067,24.191,2.054,36.289,3.076v4c-1.327-0.023-2.662,0.042-3.98-0.081c-21.689-2.016-43.389-3.949-65.056-6.191
		c-3.603-0.373-5.806,0.547-8.118,3.202c-19.661,22.582-39.457,45.046-59.196,67.559c-0.832,0.949-1.511,2.031-2.179,2.94
		c3.357,0.906,6.443,1.738,9.529,2.571h-29c2.024-0.606,4.1-1.852,6.062-1.694c5.208,0.418,8.217-2.43,11.294-5.961
		c19.041-21.853,38.201-43.603,57.311-65.396c0.961-1.095,1.821-2.277,3.341-4.189c-45.294-4.246-89.768-8.414-133.991-12.56
		c-1.672,5.241-2.635,10.185-4.803,14.526c-2.239,4.484-5.649,8.384-8.63,12.658c1.034,1.248,2.079,2.535,3.149,3.801
		c15.177,17.926,30.375,35.833,45.494,53.807c1.205,1.433,1.861,3.327,2.772,5.008h-4c-16.823-20.002-33.646-40.006-50.487-59.992
		c-0.181-0.214-0.604-0.226-0.906-0.327c-28.495,17.934-66.563-2.194-68.972-37.586c-94.748-8.903-189.58-17.815-285.199-26.8
		c8.934,23.603,10.543,46.819,4.78,70.805c1.945,0.692,3.619,1.333,5.321,1.886c25.803,8.382,51.611,16.749,77.416,25.129
		c23.271,7.559,46.544,15.109,69.793,22.732c1.971,0.646,5.115,0.452,4.254,4.153h-11c-1.469-0.668-2.889-1.488-4.415-1.983
		c-45.994-14.924-91.998-29.817-138.004-44.704c-1.538-0.498-3.116-0.875-4.825-1.35c-0.516,1.228-0.945,2.11-1.265,3.033
		c-5.653,16.298-14.6,30.515-26.852,42.663c-0.665,0.66-1.098,1.555-1.64,2.341H934c1.891-2.659,3.782-5.317,5.606-7.884
		c-33.707-41.818-38.829-86.718-14.538-135.288c-75.656-7.1-150.997-14.17-225.909-21.199c-4.689,19.25-16.391,28.687-34.718,30.049
		c-0.158,0.802-0.306,1.284-0.342,1.773c-2.346,31.905-4.648,63.814-7.037,95.717c-0.92,12.285-2.036,24.555-3.063,36.832h-3
		c0.094-0.658,0.225-1.313,0.277-1.975c1.862-23.582,3.74-47.164,5.565-70.749c1.479-19.102,2.828-38.214,4.392-57.308
		c0.302-3.688-0.719-5.295-4.558-5.988c-3.135-0.565-6.234-2.165-8.981-3.892c-8.756-5.503-13.376-13.796-15.105-24.336
		c-91.028,9.173-181.918,18.332-272.954,27.505c0,1.469-0.047,2.286,0.007,3.097c2.416,36.407,4.872,72.812,7.24,109.221
		c0.529,8.132,0.753,16.282,1.117,24.425h-6c0.038-1.822,0.211-3.653,0.093-5.466c-2.732-41.875-5.491-83.747-8.275-125.618
		c-0.104-1.573-0.504-3.126-0.818-5.002c-85.533,8.623-170.563,17.195-255.374,25.745c-1.811,20.493-11.894,34.284-29.953,41.628
		c-19.692,8.01-37.486,4.557-52.338-11.164c-2.92,1.709-5.628,3.293-8.335,4.877c0-1.667,0-3.334,0-5
		c1.956-0.912,3.911-1.824,5.687-2.653C10.636,885.146,8.818,880.24,7,875.336c0-4,0-8,0-12c0.388-0.624,0.982-1.202,1.131-1.879
		c1.52-6.902,4.508-13.089,9.135-18.411c2.78-3.199,5.813-6.179,9.171-9.72C19.997,825.046,13.498,816.69,7,808.336
		 M1092.898,806.792c49.693-51.656,99.192-103.112,148.852-154.734c-1.59-1.793-2.785-3.165-4.007-4.512
		c-23.061-25.421-46.124-50.839-69.188-76.259c-36.162-39.855-72.342-79.694-108.447-119.604c-2.39-2.642-3.874-3.831-7.727-1.519
		c-4.343,2.607-9.602,4.41-15.075,2.443c-4.721-1.696-9.458-3.349-14.559-5.153c-85.736,86.111-171.864,172.617-258.375,259.507
		c55.685,38.775,110.86,77.196,166.024,115.609C969.729,770.255,1041.15,761.814,1092.898,806.792 M967.37,386.037
		c-88.264,5.789-176.593,11.583-265.016,17.383c-0.156,8.309-2.63,14.856-7.877,20.481c-5.395,5.783-12.451,7.629-19.952,9.118
		c-0.096,2.008-0.225,3.81-0.26,5.615c-0.221,11.161-0.396,22.323-0.63,33.484c-1.146,54.804-2.284,109.608-3.513,164.41
		c-0.074,3.283,0.704,5.432,3.599,7.428c28.387,19.582,56.65,39.345,84.959,59.039c1.18,0.821,2.462,1.496,3.731,2.261
		c1.231-1.163,2.217-2.048,3.151-2.986c37.628-37.775,75.249-75.558,112.876-113.333c46.684-46.865,93.358-93.737,140.098-140.545
		c2.426-2.429,3.19-3.952,1.044-7.435c-4.959-8.039-4.751-16.688-0.043-24.926c2.653-4.644,2.89-4.525-0.892-8.302
		c-0.921-0.921-1.933-1.752-2.868-2.594C998.137,418.729,972.661,411.186,967.37,386.037 M906.452,140.132
		c-0.055,6.663-1.826,12.585-6.849,16.214c-3.688,2.666-3.391,4.569-1.785,8.084c25.198,55.13,50.265,110.32,75.365,165.495
		c4.061,8.925,8.14,17.842,12.253,26.858c4.105-0.787,8.046-2.455,11.791-2.094c12.709,1.227,23.542,8.445,27.028,21.75
		c0.327,1.248,1.965,3.127,2.925,3.086c11.255-0.478,22.498-1.268,33.71-1.974c1.416-13.05,7.083-22.606,18.579-28.075
		c11.807-5.618,22.742-2.922,33.075,4.443c79.865-80.168,159.431-160.034,238.662-239.566c-1.828-4.595-3.392-8.526-5.168-12.992
		C1199.884,114.25,1053.287,127.181,906.452,140.132 M1457.338,345.646c-130.801,26.25-261.318,52.443-392.257,78.721
		c1.216,8.569-1.7,15.603-6.665,21.901c61.954,67.977,123.543,135.552,185.506,203.538
		c88.844-92.352,177.345-184.346,266.591-277.117C1480.19,380.088,1462.279,363.979,1457.338,345.646 M391.505,530.562
		c-14.315,6.778-28.934,11.104-44.177,13.428c-4.272,0.652-6.894,4.324-6.621,8.521c2.565,39.564,5.143,79.129,7.745,118.69
		c2.907,44.218,5.835,88.433,8.772,132.647c0.648,9.761,1.37,19.517,2.089,29.71c91.154-9.023,181.758-17.992,272.647-26.988
		c0.844-9.175,3.684-17.3,9.616-24.276C558.096,698.259,474.974,614.586,391.505,530.562 M311.824,115.68
		c3.369,51.013,6.688,101.257,9.999,151.402c67.225,3.776,115.237,34.208,140.972,97.439
		c65.556-62.483,130.898-124.763,196.1-186.909c-1.639-3.53-3.432-6.527-4.426-9.769c-1.042-3.401-1.317-7.037-1.992-10.944
		C539.356,143.21,426.127,129.511,311.824,115.68 M1353.258,115.496c-79.93,80.283-159.496,160.199-238.379,239.43
		c2.998,6.117,5.708,11.648,8.521,17.39c110.598-11.129,221.422-22.281,332.697-33.478c0.674-15.492,8.032-26.843,21.046-34.939
		c-32.95-61.837-65.806-123.499-98.64-185.118C1369.322,121.691,1361.051,121.452,1353.258,115.496 M675.643,377.102
		c11.071,1.347,20.118,5.503,23.326,15.8c2.581,8.285,7.108,8.366,14.145,7.832c32.887-2.496,65.815-4.436,98.726-6.61
		c43.715-2.887,87.427-5.801,131.14-8.717c8.265-0.551,16.523-1.166,24.96-1.763c0.211-7.82,2.863-14.236,7.92-19.695
		c-64.265-65.728-128.284-131.205-192.247-196.623c-14.08,10.364-29.553,3.365-33.355-10.082c-0.809-2.863-2.392-3.12-4.778-2.901
		c-10.116,0.927-20.239,1.776-30.357,2.681c-2.913,0.261-5.819,0.615-9.068,0.962c1.063,8.26-1.75,15.005-6.615,20.592
		c-4.955,5.691-11.921,7.955-19.893,8.254C678.244,250.333,676.947,313.561,675.643,377.102 M353.243,834.155
		c-6.134-92.678-12.239-184.928-18.345-277.178c-0.372-0.103-0.744-0.206-1.117-0.308c-83.251,92.214-166.502,184.428-249.536,276.4
		c3.146,4.393,6.469,8.148,8.746,12.458c2.252,4.266,3.448,9.088,5.186,13.881C182.972,851.015,267.793,842.615,353.243,834.155
		 M1096.802,810.88c9.392,9.794,16.745,20.615,22.481,32.577c0.557,1.16,2.933,1.883,4.539,2.041
		c19.063,1.875,38.141,3.605,57.215,5.373c31.016,2.873,62.031,5.745,93.048,8.619c27.034,2.505,54.069,5.012,81.103,7.52
		c15.758,1.462,31.51,2.959,47.271,4.372c4.859,0.436,4.773,0.261,5.772-4.498c0.535-2.55,1.37-5.14,2.611-7.416
		c2.345-4.302,5.08-8.392,7.709-12.657c-57.632-63.516-115.164-126.922-172.959-190.618
		C1195.854,707.901,1146.445,759.269,1096.802,810.88 M445.342,484.812c74.291,51.73,148.014,103.063,222.681,155.053
		c0-3.443-0.036-5.431,0.006-7.417c0.523-24.825,1.055-49.651,1.591-74.479c0.868-40.155,1.698-80.312,2.681-120.465
		c0.094-3.865-1.044-5.283-4.938-6.32c-3.951-1.052-7.682-3.605-11.018-6.144c-6.215-4.731-9.091-11.458-9.567-19.505
		c-59.11,0.686-117.876,1.367-177.195,2.054C469.311,435.771,461.357,461.32,445.342,484.812 M442.446,490.298
		c-7.881,7.672-14.849,15.36-22.764,21.903c-7.855,6.495-16.663,11.837-25.217,17.799c82.965,83.509,165.936,167.021,247.966,249.59
		c7.95-3.412,14.953-6.417,22.475-9.646c0.017-0.324,0.106-1.472,0.13-2.622c0.835-38.813,1.6-77.63,2.597-116.439
		c0.096-3.738-1.783-5.299-4.325-7.067c-72.359-50.319-144.695-100.671-217.039-151.012
		C444.921,491.864,443.521,491,442.446,490.298 M659.642,179.303c-13.274,12.699-26.991,25.824-40.71,38.946
		c-50.8,48.594-101.582,97.206-152.456,145.722c-2.508,2.392-3.057,4.428-2.16,7.751c1.645,6.086,2.822,12.317,3.85,18.545
		c0.804,4.873,1.087,9.832,1.629,15.024c59.283-0.617,118.184-1.229,177.042-1.841c0.799-13.255,10.583-25.097,26.783-26.44
		c1.398-63.295,2.798-126.65,4.176-188.996C671.427,184.958,665.864,182.289,659.642,179.303 M785.595,166.758
		c63.482,64.723,127.63,130.126,191.836,195.588c2.047-1.519,3.884-2.882,6.012-4.461c-29.859-65.892-59.667-131.671-89.586-197.694
		c-6.271,2.016-11.815,1.477-17.358-1.706c-5.858-3.364-7.911-8.963-9.913-14.856c-25.573,2.272-50.871,4.519-75.089,6.671
		C789.358,156.26,787.605,161.151,785.595,166.758 M924.926,827.236c0.088-0.373,0.177-0.747,0.265-1.12
		c-55-38.274-110-76.551-164.161-114.24c-23.956,23.658-47.289,46.7-70.823,69.942c6.578,6.732,8.804,15.186,9.22,24.573
		C774.799,813.359,849.862,820.298,924.926,827.236 M1065.042,421.912c130.378-26.35,260.58-52.665,390.782-78.98l-0.197-1.088
		c-110.696,10.962-221.393,21.923-332.497,32.925c-0.783,13.187-5.474,23.952-17.989,29.802
		c-12.557,5.871-24.015,3.184-34.177-4.664c-4.194,3.988-8.028,7.634-11.8,11.222
		C1061.086,414.655,1062.889,417.962,1065.042,421.912 M687.751,778.238c23.051-22.807,46.212-45.721,69.642-68.902
		c-28.739-19.999-57.61-40.088-87.438-60.845c-0.878,41.696-1.728,82.074-2.558,121.531
		C674.823,773.021,681.593,775.753,687.751,778.238 M696.668,82.411c-5.581,2.197-10.824,4.262-16.407,6.461v43.355
		c14.367,1.851,22.892,10.165,26.377,23.781c14.507-1.305,28.386-2.552,41.376-3.72c2.033-5.374,3.762-9.945,5.602-14.81
		C734.655,119.143,715.505,100.625,696.668,82.411 M1057.238,409.726c2.447-2.549,4.713-4.96,7.034-7.315
		c4.319-4.382,4.177-4.277,1.154-9.528c-1.456-2.53-2.213-5.468-3.242-8.237c-0.554-1.495-1.013-3.025-1.571-4.708
		c-11.95,0.794-23.508,1.562-33.627,2.235c-3.049,7.82-5.643,14.475-8.514,21.841c0.341,0.373,1.534,1.517,2.543,2.806
		c2.079,2.657,3.894,3.163,7.077,0.997c2.724-1.853,6.367-2.552,9.71-3.257C1044.7,403.104,1050.734,405.724,1057.238,409.726
		 M1537.46,331.961c-0.275,4.534-0.522,8.591-0.66,10.857c3.867-3.373,8.642-7.538,13.418-11.704
		c-0.116-0.293-0.231-0.585-0.346-0.878C1545.774,330.806,1541.678,331.375,1537.46,331.961"/>
	<path fill="#3A4645" d="M1707,954.335c-11.672,5.362-23.355,10.703-35.007,16.109
		c-1.737,0.806-3.332,1.92-4.993,2.891h-7c0.895-1.087,1.566-2.668,2.718-3.184c14.067-6.318,28.201-12.487,42.334-18.656
		c0.565-0.247,1.295-0.115,1.948-0.16V954.335z"/>
</g>
</svg>
