<?xml version="1.0" encoding="utf-8"?>
<!-- Generator: Adobe Illustrator 16.0.0, SVG Export Plug-In . SVG Version: 6.00 Build 0)  -->
<!DOCTYPE svg PUBLIC "-//W3C//DTD SVG 1.1//EN" "http://www.w3.org/Graphics/SVG/1.1/DTD/svg11.dtd">
<svg version="1.1" id="Layer_1" xmlns="http://www.w3.org/2000/svg" xmlns:xlink="http://www.w3.org/1999/xlink" x="0px" y="0px"
	 width="1381.28px" height="976.67px" viewBox="0 0 1381.28 976.67" style="enable-background:new 0 0 1381.28 976.67;"
	 xml:space="preserve">
<g>
	<rect fill="#F4F6F6" width="100%" height="100%" />
	<path fill="#F9FAFA" d="M1374,4.281c-4.796,18.656-19.77,27.903-39.805,23.995
		c-33.825,84.615-67.702,169.358-101.543,254.011c13.271,8.747,17.527,18.344,13.485,29.77
		c-4.294,12.14-14.482,17.196-31.475,15.248c-48.713,121.867-97.487,243.884-146.342,366.104
		c9.396,5.562,14.563,13.188,12.062,24.139c-1.927,8.43-7.548,13.671-16.111,15.072c-9.909,1.622-17.012-2.917-22.407-11.788
		c-35.127,15.361-70.254,30.724-105.294,46.047c3.721,19.401-1.238,31.821-14.908,37.973c-13.749,6.187-26.191,1.476-38.271-14.694
		c-13.466,5.892-27.009,11.815-40.552,17.738c-124.595,54.5-249.189,108.997-373.772,163.522c-1.768,0.773-3.382,1.9-5.067,2.862h-2
		c0.27-3.625,3.603-3.621,5.827-4.595c136.548-59.789,273.127-119.505,409.702-179.232c1.923-0.841,3.823-1.733,5.403-2.451
		c-0.434-3.942-0.789-7.177-1.188-10.796c-34.825-3.665-69.526-7.319-104.076-10.956c-7.045,20.254-18.17,29.779-35.133,30.423
		c-7.18,0.271-13.86-1.497-19.96-5.339c-8.716-5.489-13.92-13.446-15.945-23.514c-2.729,0.385-5.039,0.691-7.344,1.038
		c-45.296,6.82-90.589,13.653-135.886,20.469c-63.085,9.493-126.164,19.032-189.276,28.352c-4.868,0.719-6.881,2.622-8.058,7.377
		c-10.038,40.562-20.39,81.049-30.576,121.577c-2.308,9.18-4.335,18.43-6.491,27.647h-4c0.299-1.793,0.466-3.619,0.917-5.373
		c12.312-47.885,24.654-95.761,36.981-143.642c0.442-1.714,0.774-3.455,1.33-5.963c-72.694,10.947-144.686,21.789-216.813,32.65
		c0.327,16.366-5.061,30.04-14.922,42.409c1.822,1.5,3.333,2.757,4.857,3.996c28.955,23.542,57.929,47.061,86.821,70.679
		c1.622,1.325,2.568,3.477,3.829,5.243h-5c-30.98-25.003-61.959-50.006-92.95-74.994c-0.364-0.293-0.892-0.382-1.469-0.616
		c-1.247,1.098-2.466,2.22-3.737,3.28c-17.226,14.381-36.878,20.233-59.092,16.313c-31.53-5.564-51.265-33.979-45.608-65.347
		c0.256-1.419,0.496-2.839,0.799-4.575c-4.891-1.074-9.417-2.068-13.943-3.062c0-1.667,0-3.334,0-5
		c5.2,0.799,10.401,1.6,15.03,2.311c5.361-8.135,10.506-15.941,15.801-23.977c-9.553-9.056-19.305-18.312-29.087-27.535
		c-0.441-0.416-1.157-0.54-1.744-0.799c0-2.334,0-4.667,0-7c1.496,0.887,3.2,1.545,4.453,2.697
		c5.632,5.177,11.134,10.497,16.688,15.761c4.801,4.549,9.609,9.092,13.599,12.867c11.127-5.137,21.512-9.933,32.174-14.855
		c-4.322-35.27-8.723-71.177-13.182-107.562c-18.31,1.396-36.021,2.744-53.732,4.093c0-1.334,0-2.667,0-4
		c13.445-0.805,26.891-1.594,40.334-2.422c4.119-0.254,8.23-0.613,13.006-0.974c-3.893-31.819-7.731-63.196-11.569-94.572
		c-0.655-0.381-1.309-0.763-1.963-1.144c-0.838,1.435-1.442,3.09-2.551,4.269c-10.951,11.646-21.965,23.232-33.03,34.77
		c-1.187,1.237-2.808,2.059-4.227,3.073c0-1.334,0-2.667,0-4c0.548-0.366,1.185-0.645,1.63-1.108
		c12.548-13.083,25.137-26.128,37.51-39.376c1.201-1.287,1.634-3.913,1.42-5.805c-2.054-18.168-4.31-36.313-6.542-54.462
		c-0.498-4.046-1.131-8.075-1.714-12.199c-12.238,0.062-22.916-3-32.304-10.05c0-22,0-44,0-66c7.244-3,14.488-6,22.088-9.147
		c-2.352-19.115-4.763-38.718-7.241-58.854H7v-3h14.515c-3.11-25.387-6.132-50.067-9.186-75H7c0-31.667,0-63.334,0-95
		c1.408,0.388,2.798,1.018,4.227,1.128c18.993,1.45,33.757,10.021,43.346,26.534c3.023,5.206,4.571,11.267,6.9,17.207
		c0.976,0.047,2.294,0.157,3.613,0.167c92.82,0.674,185.64,1.316,278.459,2.086c3.836,0.031,6.538-1.165,9.251-3.735
		c15.245-14.439,30.63-28.729,45.969-43.068c5.71-5.339,11.424-10.676,16.883-15.778c-1.907-5.207-3.686-10.066-5.719-15.617
		c-12.329-1.219-25.391-2.518-38.455-3.8c-25.364-2.489-50.728-4.962-76.091-7.454c-28.845-2.833-57.687-5.687-86.531-8.517
		c-25.364-2.488-50.731-4.945-76.094-7.434c-29.011-2.847-58.023-5.681-87.028-8.587c-12.918-1.294-25.821-2.75-38.73-4.132v-2
		c1.825,0.155,3.652,0.288,5.475,0.47c32.469,3.242,64.937,6.492,97.406,9.735c27.832,2.78,55.664,5.55,83.495,8.33
		c31.973,3.195,63.945,6.4,95.918,9.596c28.493,2.849,56.987,5.697,85.481,8.536c11.905,1.186,23.813,2.349,35.619,3.512
		c0.47-0.684,0.85-1.045,1-1.483c2.796-8.201,7.544-14.221,16.722-15.747c0.894-0.149,2.13-2.148,2.111-3.269
		c-0.177-10.297-0.595-20.59-0.947-31.017c-1.025-0.227-1.642-0.338-2.246-0.501c-12.76-3.44-17.867-14.869-14.125-24.868
		c1.447-3.863,0.661-5.491-2.137-7.799c-30.32-25.01-60.554-50.125-90.779-75.25c-1.483-1.233-2.669-2.822-3.993-4.245h3
		c1.11,1.189,2.108,2.513,3.348,3.547c30.189,25.185,60.403,50.341,90.623,75.489c0.994,0.827,2.104,1.513,2.748,1.971
		c4.294-2.009,8.137-3.807,12.218-5.717C426.96,54.52,425.98,29.4,425,4.281h2c0.91,25.258,1.82,50.517,2.728,75.737
		c7.602,1.734,13.334,4.894,16.697,11.871c3.43,7.117,1.116,13.403-2.126,19.524c15.445,15.035,30.455,29.644,45.453,44.243
		c1.731-0.847,3.009-1.647,4.397-2.122c9.316-3.185,17.279-0.454,21.348,8.037c1.564,3.263,3.003,4.106,6.221,3.896
		c14.626-0.959,29.263-1.756,43.895-2.635c2.783-0.168,5.559-0.446,7.164-0.577c2.165-4.478,3.924-8.117,5.821-12.041
		c-0.086-0.134-0.419-0.71-0.805-1.248c-20.533-28.528-41.043-57.072-61.642-85.551c-2.43-3.361-5.196-6.516-8.071-9.512
		c-14.306-14.903-28.713-29.707-43.044-44.587c-1.486-1.543-2.697-3.35-4.036-5.034h8c4.957,5.407,9.915,10.815,14.872,16.223
		c0.247-0.228,0.495-0.455,0.742-0.683c-3.538-5.18-7.076-10.36-10.614-15.54h3c0.043,0.478-0.092,1.09,0.154,1.415
		c9.032,11.937,17.121,24.771,27.338,35.594c36.122,38.27,73.027,75.802,109.462,113.78c3.358,3.5,6.61,4.693,11.319,4.399
		c36.232-2.258,72.478-4.283,108.718-6.405c23.772-1.392,47.54-2.863,71.315-4.196c3.029-0.17,5.256-1.255,7.421-3.375
		c20.463-20.048,41.021-39.997,61.544-59.984c1.159-1.13,2.231-2.349,3.534-3.725c-1.519-1.594-2.762-2.917-4.023-4.222
		c-22.11-22.871-44.233-45.73-66.311-68.631c-1.332-1.382-2.322-3.093-3.472-4.65c1,0,2,0,3,0c0.818,1.188,1.489,2.518,2.478,3.543
		c22.276,23.108,44.586,46.185,66.903,69.253c0.992,1.026,2.129,1.913,3.089,2.767c0.653-0.335,1.008-0.424,1.233-0.644
		c24.204-23.537,48.413-47.067,72.536-70.686c1.005-0.984,1.192-2.803,1.761-4.233h9c-0.918,1.471-1.54,3.305-2.811,4.345
		c-3.492,2.858-4.663,6.443-5.238,10.815c-2.975,22.619-6.265,45.196-9.422,67.792c-1.793,12.836-3.539,25.679-5.21,37.816
		c3.585,2.669,7.14,4.57,9.633,7.406c2.001,2.276,3.385,2.888,6.213,1.895c90.035-31.606,180.091-63.151,270.173-94.621
		c2.884-1.007,4.209-2.543,4.916-5.472c2.424-10.03,5.142-19.99,7.746-29.976h5c-2.683,10.365-5.365,20.73-8.127,31.398
		c1.301-0.1,1.819-0.035,2.26-0.189c25.099-8.748,50.179-17.549,75.3-26.228c2.759-0.953,3.004-2.658,2.567-4.981H1374z
		 M431.686,666.215c-0.193-0.035,0.443,0.141,1.088,0.188c22.763,1.632,45.524,3.282,68.29,4.868
		c45.033,3.136,90.071,6.202,135.103,9.362c53.339,3.742,106.671,7.578,160.019,11.22c1.81,0.123,4.233-0.926,5.518-2.255
		c5.321-5.508,10.317-11.331,15.427-17.043c8.546-9.549,17.087-19.103,25.889-28.943c-49.03-79.521-97.952-158.868-146.481-237.578
		c-4.367,0.486-8.041,1.634-11.432,1.072c-3.572-0.592-6.872-2.817-10.594-4.463c-83.204,81.814-166.589,163.805-249.589,245.419
		C427.157,654.062,429.244,659.661,431.686,666.215 M698.053,404.01c49.271,79.285,98.124,157.896,147.593,237.499
		c1.196-1.715,1.771-2.753,2.545-3.616c51.46-57.486,102.927-114.966,154.449-172.398c1.868-2.083,2.305-3.95,1.698-6.716
		c-5.339-24.398-10.492-48.837-15.715-73.261c-1.838-8.598-3.712-17.187-5.599-25.916c-15.389,0.047-25.775-6.719-30.517-21.148
		c-82.314,15.917-164.18,31.747-246.082,47.584C705.956,393.314,704.109,399.537,698.053,404.01 M1230.085,42.476
		c-2.3,0.696-3.711,1.07-5.088,1.546c-88.597,30.644-177.184,61.317-265.812,91.87c-3.663,1.263-5.442,2.681-5.134,6.924
		c0.472,6.493-2.376,11.669-8.452,14.409c-2.938,1.325-2.808,3.18-2.27,5.639c7.222,33.017,14.478,66.026,21.517,99.081
		c0.724,3.403,2.27,4.219,5.348,4.365c11.815,0.561,23.619,1.323,35.428,1.996c43.079,2.454,86.158,4.901,129.236,7.358
		c2.623,0.15,5.243,0.372,7.887,0.562c4.806-17.436,16.273-25.394,33.867-25.005C1194.407,181.755,1212.123,112.597,1230.085,42.476
		 M197.111,460.912c48.6,47.427,96.965,94.625,145.419,141.91c1.1-0.912,1.768-1.392,2.351-1.959
		c21.256-20.688,42.54-41.35,63.677-62.159c1.464-1.44,2.485-3.95,2.615-6.032c1.642-26.273,3.097-52.559,4.567-78.842
		c1.154-20.629,2.214-41.263,3.442-61.887c0.187-3.145-0.669-4.668-3.863-5.67c-7.227-2.266-11.997-7.261-14.21-14.603
		c-0.416-1.38-1.054-2.693-1.654-4.199c-53.023,1.164-105.925,2.325-158.731,3.485c-1.381,12.178-12.903,21.188-24.852,17.575
		c-2.079-0.629-3.292,0.609-4.181,2.553c-6.644,14.528-13.379,29.014-20.055,43.447
		C202.739,444.418,203.943,450.032,197.111,460.912 M147.646,846.314c5.07-0.722,10.168-1.417,15.256-2.176
		c66.191-9.879,132.376-19.802,198.586-29.552c3.464-0.512,4.764-1.923,5.537-5.074c3.091-12.609,6.391-25.167,9.63-37.74
		c6.687-25.952,13.375-51.904,20.09-77.848c0.609-2.357,1.222-4.338-1.896-5.672c-8.228-3.521-12.88-9.955-14.313-19.197
		c-1.291,0-2.574-0.071-3.847,0.012c-7.313,0.475-14.645,0.773-21.929,1.532c-11.37,1.184-22.913,0.72-34.028,4.516
		c-4.095,1.398-9.041,1.684-13.311,0.904c-9.375-1.711-18.562-0.398-27.836,0.133c-2.831,0.162-5,1.018-7.023,3.065
		c-5.266,5.331-10.753,10.441-16.124,15.671c-38.076,37.065-76.151,74.133-114.207,111.22c-3.434,3.347-6.735,6.83-9.765,9.912
		c3.163,4.826,6.585,9.149,8.998,13.976C143.967,835.003,145.493,840.496,147.646,846.314 M1006.584,469.715
		c-0.396-0.109-0.791-0.218-1.186-0.327c-52.492,58.619-104.985,117.238-157.459,175.837c6.74,10.824,13.135,21.093,19.644,31.546
		c9.109-4.887,17.698-4.208,25.887,0.586c8.267,4.841,12.424,12.449,13.097,22.342c44.866,3.164,89.503,6.312,134.031,9.451
		c2.328-5.649,4.58-10.899,10.088-13.576c3.339-1.623,3.5-3.841,2.765-7.249c-13.602-63.142-27.05-126.316-40.543-189.481
		C1010.832,489.128,1008.693,479.424,1006.584,469.715 M636.668,356.163c-10.752,0.493-21.226,0.855-31.677,1.566
		c-1.746,0.119-3.698,1.437-5.034,2.737c-61.26,59.59-122.453,119.247-183.703,178.847c-2.165,2.107-3.267,4.256-3.422,7.348
		c-1.075,21.461-2.359,42.911-3.533,64.367c-0.491,8.981-0.86,17.969-1.321,26.952c-0.099,1.928-0.081,3.617,2.228,4.372
		c4.127,1.349,8.207,2.841,12.631,4.385c83.207-81.763,166.731-163.839,250.551-246.206c-6.013-8.562-5.369-16.778,1.537-24.607
		c-1.276-1.485-2.44-2.84-3.576-4.162C658.109,380.08,640.659,374.559,636.668,356.163 M369.167,813.365
		c112.918-16.823,224.796-33.494,336.615-50.154c0.415-3.733,0.771-6.94,1.16-10.449c-92.432-26.567-184.68-53.082-277.057-79.633
		c-5.903,12.919-15.828,18.639-29.683,17.39C389.839,731.536,379.615,772.005,369.167,813.365 M233.391,356.227
		c36.148-33.802,72.071-67.395,107.994-100.987c-0.175-0.357-0.351-0.713-0.526-1.07c-93.191-0.625-186.381-1.251-279.891-1.878
		c-0.774,10.162-3.862,18.976-10.173,26.511c-6.328,7.555-14.532,12.317-24.358,15.532c21.016,20.506,41.37,40.367,61.643,60.15
		c20.102-12.139,38.978-0.695,42.837,16.345c23.157-0.463,46.411-0.929,69.577-1.392
		C203.926,353.248,215.842,348.488,233.391,356.227 M276.089,618.489c-54.247-31.642-108.02-63.009-162.478-94.773
		c-0.996,1.377-1.667,2.564-2.578,3.525c-17.891,18.863-35.753,37.756-53.787,56.482c-2.616,2.717-3.238,5.305-2.777,8.915
		c3.021,23.628,5.824,47.283,8.718,70.928c1.006,8.212,2.069,16.417,3.143,24.918c7.704-0.518,14.834-0.972,21.96-1.479
		c35.234-2.508,70.465-5.04,105.699-7.542c24.266-1.725,48.534-3.4,72.797-5.157c1.265-0.092,2.804-0.405,3.678-1.204
		c3.412-3.118,6.608-6.473,10.089-9.944C269.167,649.303,268.617,634.427,276.089,618.489 M1160.637,313.617
		c-4.899,0.506-8.675,1.09-12.467,1.232c-3.641,0.137-6.133,1.767-8.429,4.479c-4.951,5.845-10.159,11.472-15.271,17.18
		c-37.453,41.821-74.888,83.659-112.418,125.409c-2.245,2.497-2.857,4.631-2.125,7.981c14.679,67.194,29.207,134.421,43.772,201.64
		c1.504,6.941,3.044,13.874,4.601,20.966c2.205-0.139,3.812-0.238,5.485-0.343C1096.058,566.025,1128.242,440.23,1160.637,313.617
		 M1230.54,282.203c33.929-84.864,67.781-169.539,101.879-254.828c-7.633-2.679-11.254-8.818-14.648-15.32
		c-2.042,0.646-3.771,1.151-5.47,1.738c-23.762,8.209-47.489,16.522-71.311,24.557c-3.939,1.329-5.796,3.391-6.818,7.392
		c-15.215,59.541-30.588,119.042-45.914,178.555c-2.356,9.149-4.674,18.308-7.062,27.669c8.074,3.153,14.108,8.098,17.661,15.758
		c3.545,7.641,2.83,15.478,0.746,23.375c1.568,0.673,2.779,1.202,4.003,1.701c0.118,0.048,0.312-0.089,0.469-0.146
		C1210.639,284.109,1219.124,280.293,1230.54,282.203 M443.771,363.834c15.395-0.799,30.357-1.578,45.319-2.351
		c29.939-1.546,59.868-3.88,89.821-4.271c13.417-0.176,23.055-4.546,31.299-14.482c5.934-7.152,12.631-13.671,19.209-20.709
		c0.06,0.085-0.36-0.621-0.881-1.241c-17.476-20.778-35.008-41.509-52.387-62.368c-2.14-2.567-4.554-2.843-7.471-2.86
		c-44.807-0.255-89.613-0.561-134.42-0.853c-1.767-0.012-3.535-0.002-5.726-0.002c-1.631,30.552-3.224,60.407-4.82,90.334
		C434.522,347.117,440.705,353.551,443.771,363.834 M421.729,345.041c1.65-30.207,3.281-60.051,4.941-90.439
		c-2.572,0-4.368,0.007-6.163-0.001c-23.329-0.105-46.659-0.128-69.985-0.404c-3.834-0.046-6.514,1.185-9.236,3.753
		c-34.186,32.239-68.463,64.382-102.729,96.538c-1.203,1.129-2.526,2.129-3.697,3.109c1.312,2.395,2.752,4.143,3.261,6.13
		c1.091,4.259,3.72,4.939,7.686,4.85c43.479-0.978,86.961-1.815,130.444-2.63c7.805-0.146,15.614-0.021,23.507-0.021
		C402.071,353.268,409.021,346.379,421.729,345.041 M66.651,691.795c4.407,36.178,8.753,71.854,13.114,107.652
		c3.684,0,6.506,0.017,9.327-0.003c12.543-0.083,24.168,3.159,34.463,10.309c3.128,2.172,4.776,2.03,7.454-0.586
		c43.707-42.716,87.522-85.319,131.303-127.957c1.014-0.988,1.916-2.092,3.715-4.069
		C199.022,682.065,133.219,686.901,66.651,691.795 M592.879,359.426c-0.174-0.364-0.349-0.728-0.524-1.091
		c-49.592,2.519-99.184,5.038-148.928,7.565c-0.318,14.728-9.225,20.351-22.057,22.094c-2.586,48.252-5.162,96.296-7.737,144.341
		c0.415,0.126,0.831,0.253,1.246,0.379C474.213,474.951,533.546,417.188,592.879,359.426 M951.811,332.438
		c1.402-11.544,6.465-19.948,16.727-24.574c2.824-1.274,2.966-2.986,2.387-5.547c-1.841-8.12-3.519-16.277-5.293-24.412
		c-1.524-6.99-1.546-6.955-8.505-7.336c-45.091-2.469-90.184-4.907-135.267-7.512c-3.665-0.212-6.207,0.676-8.819,3.267
		c-22.127,21.947-44.393,43.755-66.607,65.614c-1.163,1.145-2.24,2.377-3.035,3.225c1.567,3.034,3.454,5.51,4.13,8.28
		c0.909,3.725,2.939,4.128,6.18,3.87c18.769-1.495,37.548-2.841,56.325-4.239c34.56-2.574,69.121-5.143,103.681-7.727
		C926.323,334.404,938.93,333.423,951.811,332.438 M339.574,605.361c0.338-0.336,0.675-0.672,1.013-1.008
		c-48.434-47.256-96.868-94.512-145.425-141.888c-7.588,4.595-14.993,5.16-22.366-0.165c-18.163,19.109-36.133,38.017-54.458,57.296
		c54.13,31.63,107.583,62.864,160.944,94.044C296.38,593.586,321.289,593.254,339.574,605.361 M35.125,432.939
		c43.816,3.26,56.777,37.546,43.064,63.195c12.442,7.267,24.899,14.544,37.663,21.999c18.41-19.241,36.558-38.209,54.615-57.081
		c-1.148-2.29-2.042-4.062-2.924-5.839c-2.186-4.4-1.965-8.945,0.828-12.712c2.512-3.389,1.183-5.11-1.216-7.423
		c-12.595-12.147-25.123-24.364-37.585-36.648c-2.355-2.321-4.303-5.055-6.215-7.332c-19.701,11.607-39.391,3.719-43.824-16.457
		H28.02C30.422,394.354,32.756,413.506,35.125,432.939 M921.453,144.527c-2.022,0-4.177-0.108-6.318,0.017
		c-31.747,1.844-63.491,3.76-95.242,5.525c-3.07,0.171-5.227,1.262-7.381,3.371c-19.4,18.982-38.902,37.86-58.361,56.781
		c-3.525,3.427-6.995,6.912-10.568,10.447c8.079,9.797,11.896,20.611,12.551,32.93c1.968,0.209,3.75,0.472,5.54,0.578
		c17.453,1.029,34.914,1.926,52.354,3.128c3.716,0.255,6.179-0.921,8.746-3.457c32.826-32.409,65.741-64.728,98.675-97.026
		c1.294-1.269,3.01-2.109,4.031-2.807C923.791,150.039,922.654,147.358,921.453,144.527 M440.626,669.476
		c-0.071,0.327-0.142,0.653-0.213,0.979c89.292,25.874,178.584,51.748,267.998,77.658c4.999-11.428,12.913-18.817,24.168-22.248
		c11.331-3.453,21.761-0.602,31.649,5.758c10.692-11.96,21.16-23.667,32.425-36.267C677.103,686.666,558.864,678.07,440.626,669.476
		 M1071.958,676.006l0.875,0.224c0.726-1.654,1.499-3.289,2.169-4.965c39.938-99.875,79.869-199.752,119.797-299.631
		c5.502-13.76,10.976-27.532,16.481-41.29c0.808-2.021,2.094-4.121-0.594-5.658c-5.879-3.36-8.365-8.998-10.289-15.332
		c-1.861,0.141-3.669,0.227-5.467,0.421c-8.111,0.874-16.203,2.046-24.337,2.559c-4.114,0.26-5.601,1.952-6.581,5.771
		c-30.3,117.893-60.717,235.756-91.106,353.626C1072.542,673.144,1072.272,674.58,1071.958,676.006 M1006.438,330.369
		c-0.118,1.49-0.168,2.459-0.276,3.421c-1.204,10.697-6.594,18.68-16.294,23.174c-3.14,1.455-3.851,2.497-3.129,5.775
		c6.654,30.223,13.128,60.487,19.673,90.735c0.365,1.688,0.889,3.342,1.592,5.954c42.887-47.892,85.07-94.999,127.254-142.105
		c-0.257-0.311-0.513-0.622-0.769-0.932C1091.861,321.043,1049.232,325.696,1006.438,330.369 M926.324,155.045
		c-34.36,33.785-68.84,67.688-103.32,101.591c0.129,0.353,0.258,0.707,0.386,1.06c46.374,2.679,92.749,5.357,139.574,8.062
		c-0.597-2.946-0.975-4.897-1.389-6.842c-6.511-30.587-13.188-61.141-19.389-91.79c-1.11-5.488-3.079-8.343-8.766-8.886
		C931.109,158.019,928.942,156.276,926.324,155.045 M568.168,249.064c-19.226-22.837-38.23-45.41-57.114-67.84
		c-10.185,5.091-22.112,1.615-25.139-9.336c-0.569-2.056-2.02-2.638-4.179-2.478c-6.973,0.516-13.962,0.794-20.942,1.226
		c-2.102,0.13-4.192,0.462-6.512,0.727c-0.852,14.246-9.051,20.933-22.476,22.319c-0.98,18.485-1.936,36.528-2.936,55.382H568.168z
		 M1141.706,280.958c-58.213-3.247-116.22-6.482-174.8-9.749c2.649,12.084,5.056,23.061,7.477,34.099
		c16.264-0.437,27.051,6.287,31.455,21.965c1.31-0.081,2.468-0.102,3.613-0.23c19.843-2.231,39.688-4.461,59.527-6.72
		c22.484-2.559,44.97-5.123,67.445-7.768c1.555-0.183,3.416-0.662,4.465-1.688c3.171-3.101,6.012-6.54,8.76-9.601
		c-1.983-3.569-4.014-6.456-5.246-9.651C1143.122,288.298,1142.612,284.685,1141.706,280.958 M805.715,152.237
		c-0.149-0.44-0.301-0.88-0.45-1.32c-61.207,3.522-122.415,7.043-184.865,10.637c17.955,18.58,34.942,36.158,51.912,53.718
		c17.974-14.337,45.068-17.927,67.633,0.991C761.852,194.938,783.783,173.587,805.715,152.237 M812.621,263.708
		c-0.12-0.382-0.238-0.764-0.358-1.146c-18.689-1.055-37.378-2.11-56.354-3.18c-3.284,20.146-13.602,34.688-32.621,41.765
		c-19.002,7.07-36.296,2.574-52.018-10.14c-8.208,8.019-16.206,15.763-24.078,23.634c-0.766,0.766-1.314,2.497-1.001,3.47
		c1.665,5.179,3.637,10.259,5.566,15.549c14.528-1.859,24.363,3.213,27.937,17.996c8.201-0.445,16.123-0.876,24.262-1.318
		c0.243-9.764,5.008-16.507,13.276-20.216c8.464-3.797,16.739-1.977,24.31,3.438C765.379,310.134,789,286.921,812.621,263.708
		 M573.567,164.211c-18.893,1.109-37.45,2.198-55.154,3.237c-1.987,4.845-3.641,8.879-5.348,13.044
		c0.048,0.098,0.139,0.439,0.345,0.683c18.687,22.146,37.343,44.317,56.168,66.344c1.188,1.39,3.658,2.242,5.583,2.343
		c6.481,0.338,12.984,0.251,19.479,0.275c7.966,0.029,15.932,0.007,24.612,0.007c-8.778-24.347-17.383-48.213-25.943-71.955
		C582.875,179.176,576.474,173.952,573.567,164.211 M853.58,699.495c-16.352-1.172-32.756-2.409-49.174-3.409
		c-1.314-0.08-3.016,1.206-4.049,2.312c-5.221,5.6-10.298,11.334-15.394,17.051c-5.728,6.429-11.421,12.888-16.659,18.803
		c3.365,6.326,6.45,12.126,9.699,18.232c37.488-5.57,75.25-11.182,113.472-16.862c-1.488-3.841-2.661-6.87-3.802-9.815
		C873.339,729.06,854.582,721.684,853.58,699.495 M883.462,84.4c14.938,15.463,29.472,30.508,43.655,45.191
		c4.085-1.458,7.755-2.767,11.889-4.243c4.882-35.664,9.829-71.825,14.777-107.985c-0.307-0.18-0.614-0.359-0.92-0.538
		C929.918,39.167,906.974,61.508,883.462,84.4 M124.919,390.448c15.35,14.979,31.485,30.725,46.636,45.51
		c6.464-1.192,11.852-2.186,18.259-3.368c6.631-14.27,13.834-29.768,21.075-45.348c-5.295-4.072-9.457-8.613-10.14-15.415
		c-23.347,0.519-46.252,1.028-68.319,1.519C129.817,379.295,127.544,384.471,124.919,390.448 M668.349,219.638
		c-1.31-1.432-2.39-2.67-3.53-3.849c-15.848-16.388-31.863-32.62-47.446-49.255c-3.89-4.154-7.709-5.069-12.966-3.64
		c-0.299,6.591-3.11,11.651-9.377,14.455c8.549,23.608,16.954,46.895,25.483,70.138c0.419,1.142,1.908,2.675,2.923,2.694
		c10.444,0.198,20.893,0.122,31.631,0.122C656.679,238.752,660.33,228.311,668.349,219.638 M388.459,647.661
		c3.977-1.801,7.597-4.363,11.519-4.968c4.273-0.657,5.499-2.306,5.7-6.276c1.474-29.096,3.107-58.183,4.654-87.274
		c0.052-0.992-0.278-2.004-0.512-3.552c-21.239,20.7-41.958,40.891-63.006,61.404C360.89,620.741,374.679,634.205,388.459,647.661
		 M925.729,131.27c-14.399-14.881-29.036-30.008-43.854-45.323c-21.258,20.707-42.014,40.925-62.77,61.143
		c0.207,0.303,0.414,0.605,0.62,0.908c33.998-1.984,67.995-3.968,101.547-5.925C922.851,138.248,924.22,134.929,925.729,131.27
		 M701.185,376.561c2.718,3.284,3.045,7.761,9.616,6.444c69.062-13.844,138.224-27.193,207.354-40.693
		c10.104-1.973,20.192-4.023,30.287-6.037c-0.04-0.242-0.081-0.483-0.122-0.725c-66.239,4.77-132.478,9.54-198.879,14.322
		c-0.605,10.156-4.956,17.664-13.836,21.749c-9.127,4.197-17.622,1.492-25.31-4.255
		C707.065,370.625,704.263,373.455,701.185,376.561 M18.478,296.228c3.04,24.957,6.085,49.955,9.162,75.218
		c16.858,0,33.15,0.036,49.44-0.088c1.003-0.007,2.499-1.057,2.91-1.996c1.873-4.287,3.439-8.708,5.395-13.806
		c0.325,0.433-0.004-0.148-0.463-0.597c-19.766-19.306-39.568-38.577-59.287-57.932C23.472,294.904,21.418,294.835,18.478,296.228
		 M75.354,501.402c-4.983,3.773-9.186,7.668-14.034,10.427c-4.82,2.744-10.288,4.348-15.782,6.576
		c2.575,21.143,5.161,42.366,7.912,64.944c19.843-20.737,38.816-40.565,58.177-60.799C98.876,515.117,86.845,508.103,75.354,501.402
		 M427.035,248.428c1.043-18.811,2.063-37.202,3.047-54.942c-4.807-2.346-8.881-4.334-13.205-6.443
		c-21.271,19.984-42.778,40.189-64.285,60.394c0.195,0.331,0.39,0.661,0.585,0.991H427.035z M1041.112,718.899
		c-0.169-0.533-0.338-1.065-0.506-1.599c-47.746,7.218-95.491,14.436-143.785,21.736c1.854,4.721,3.389,8.63,4.879,12.423
		c14.959-3.368,25.917,1.416,33.808,13.654C970.94,749.608,1006.026,734.255,1041.112,718.899 M1037.092,714.039
		c-0.043-0.424-0.088-0.848-0.132-1.271c-43.42-3.14-86.84-6.281-130.4-9.432c-1.634,7.261-4.562,13.159-10.163,17.537
		c-5.155,4.03-5.098,4.129-2.55,10.407c0.482,1.19,1.126,2.316,1.823,3.733C942.957,728.001,990.025,721.021,1037.092,714.039
		 M778.102,761.623c1.347,0.26,2.464,0.555,3.6,0.682c17.713,1.979,35.428,3.941,53.146,5.896c14.569,1.607,29.141,3.2,43.713,4.791
		c1.954,0.214,3.902,0.849,4.68-2.112c2.138-8.149,7.701-13.673,14.767-18.203c-1.664-4.307-3.316-8.586-5.047-13.064
		c-38.673,5.852-76.8,11.619-115.107,17.415C777.955,758.948,778.024,760.221,778.102,761.623 M576.537,255.931
		c18.869,22.327,36.967,43.743,56.12,66.407c2.222-2.789,3.721-5.289,5.804-7.127c2.525-2.227,2.864-4.257,1.698-7.393
		c-5.858-15.749-11.597-31.546-17.074-47.43c-1.221-3.542-3.042-4.46-6.516-4.439c-11.485,0.07-22.972-0.171-34.458-0.268
		C580.664,255.668,579.217,255.806,576.537,255.931 M431.409,117.438c0.007-0.023-0.263,0.446-0.249,0.906
		c0.306,9.817,0.53,19.64,1.117,29.44c0.076,1.262,1.911,3.243,3.19,3.477c10.147,1.861,15.678,8.276,18.343,18.141
		c10.315-0.623,20.559-1.241,30.568-1.846c1.343-3.815,2.534-7.196,3.841-10.909c-14.962-14.567-30.073-29.277-44.936-43.747
		C439.07,114.511,435.419,115.906,431.409,117.438 M852.475,695.885c3.947-6.31,7.553-12.069,11.473-18.331
		c-5.787-9.378-11.936-19.344-18.344-29.729c-13.415,14.992-26.334,29.43-40.043,44.749
		C822.269,693.753,837.803,694.849,852.475,695.885 M655.024,256.557h-31.276c6.551,18.048,12.889,35.51,19.374,53.377
		c7.873-8.458,15.318-16.455,23.117-24.833C660.025,277.932,656.603,267.735,655.024,256.557 M580.389,149.401
		c12.587-3.735,16.573-2.232,23.217,9.039c1.859,3.154,3.865,1.737,7.204,1.538c-28.146-29.075-55.511-57.344-82.875-85.613
		l-0.918,0.814C544.763,99.859,562.51,124.539,580.389,149.401 M345.384,609.014c-0.465,0.295-0.929,0.589-1.393,0.883
		c8.443,10.321,11.462,21.964,8.756,35.141c10.704,3.094,21.007,6.069,31.354,9.059c1.117-1.746,1.968-3.075,2.877-4.495
		C372.992,635.953,359.188,622.483,345.384,609.014 M708.338,365.1c-1.714-3.972-3.442-7.98-5.343-12.387
		c-7.558,0.411-15.555,0.846-22.081,1.2c-2.629,6.454-4.749,11.659-7.005,17.195c0.645,0.728,1.619,1.829,2.758,3.116
		c7.674-4.822,15.277-4.361,22.65,0.409C702.474,371.298,705.417,368.187,708.338,365.1 M633.797,327.093
		c-9.122,9.753-17.792,19.024-26.46,28.291c9.402-0.486,19.382-1.001,28.284-1.461c2.591-5.853,4.808-10.861,7.168-16.193
		C640.175,334.638,637.297,331.232,633.797,327.093 M336.908,669.365c12.853-0.942,25.6-1.893,38.35-2.806
		c6.009-0.43,6.646-1.305,5.113-7.672c-9.703-2.773-19.532-5.581-28.387-8.112C346.672,657.326,341.927,663.178,336.908,669.365
		 M649.657,334.415c-2.01-5.539-3.876-10.682-5.898-16.253c-3.042,2.969-5.454,5.322-8.017,7.821c3.345,3.96,6.42,7.6,9.59,11.353
		C646.772,336.362,647.962,335.56,649.657,334.415 M1198.017,295.274c-4.369,4.086-8.449,7.902-12.689,11.867
		c4.782-0.554,9.507-1.103,14.462-1.677c0.612-3.004,1.187-5.827,1.782-8.75C1199.986,296.073,1198.792,295.588,1198.017,295.274
		 M1153.406,304.158c-1.912,2.206-3.693,4.262-5.473,6.317l0.753,0.862c4.308-0.559,8.617-1.117,12.925-1.675
		c0.052-0.37,0.104-0.74,0.157-1.111C1159.092,307.145,1156.414,305.738,1153.406,304.158 M279.885,672.575
		c0.149,0.291,0.298,0.582,0.447,0.874l10.956-1.019c0.021-0.294,0.042-0.587,0.064-0.881c-2.146-1.405-4.292-2.811-5.926-3.879
		C283.279,669.571,281.583,671.073,279.885,672.575"/>
	<path fill="#F9FAFA" d="M128,974.28c-1.273-0.675-2.488-1.504-3.826-2.003
		c-37.466-13.987-74.942-27.948-112.43-41.875c-1.512-0.562-3.159-0.756-4.744-1.122c0-1,0-2,0-3
		c39.317,14.656,78.636,29.305,117.942,43.989c2.071,0.772,4.799,0.883,5.058,4.011H128z"/>
</g>
</svg>
