<?xml version="1.0" encoding="utf-8"?>
<!-- Generator: Adobe Illustrator 16.0.0, SVG Export Plug-In . SVG Version: 6.00 Build 0) -->
<!DOCTYPE svg PUBLIC "-//W3C//DTD SVG 1.1//EN" "http://www.w3.org/Graphics/SVG/1.1/DTD/svg11.dtd">
<svg version="1.1" id="Layer_1" xmlns="http://www.w3.org/2000/svg" xmlns:xlink="http://www.w3.org/1999/xlink" x="0px" y="0px"
	 width="1707px" height="976.67px" viewBox="0 0 1707 976.67" style="enable-background:new 0 0 1707 976.67;" xml:space="preserve"
	>
<g>
	<rect fill="#F4F6F6" width="100%" height="100%" />
	<path fill="#F6FAFA" d="M128,976.67c-1.273-0.675-2.488-1.504-3.826-2.003
		c-37.466-13.987-74.942-27.948-112.43-41.875c-1.512-0.562-3.159-0.756-4.744-1.122c0-1,0-2,0-3
		c39.317,14.656,78.636,29.305,117.942,43.989c2.071,0.772,4.799,0.883,5.058,4.011H128z"/>
	<path fill="#F6FAFA" d="M1707,956.725c-11.672,5.362-23.355,10.703-35.007,16.109
		c-1.737,0.806-3.332,1.92-4.993,2.891h-7c0.895-1.087,1.566-2.668,2.718-3.184c14.067-6.318,28.201-12.487,42.334-18.656
		c0.565-0.247,1.295-0.115,1.948-0.16V956.725z"/>
	<path fill="#F6FAFA" d="M-1,758.391c0-1.667,0-3.334,0-5c1.298,1.254,2.745,2.388,3.871,3.782
		c6.788,8.411,13.503,16.881,20.326,25.436c7.987-4.878,16.228-7.652,25.366-8.146c9.301-0.503,17.878,1.882,26.225,5.524
		c84.72-106.095,169.122-211.792,253.518-317.479c-9.666-10.593-9.4-21.363-1.791-32.404c-22.09-21.781-43.902-43.288-65.856-64.936
		c-11.46,7.974-23.604,10.06-36.368,4.895c-12.997-5.26-20.282-15.174-21.684-29.366c-1.196-0.063-2.175-0.147-3.154-0.163
		c-20.495-0.342-40.99-0.692-61.486-1.01C91.645,338.803,45.322,338.1-1,337.391c0-1,0-2,0-3
		c67.899,1.17,135.798,2.341,203.958,3.516c-0.111-8.546,4.504-14.677,8.662-20.948c-0.652-0.692-1.092-1.189-1.564-1.655
		C140.894,247.127,71.731,178.952,2.54,110.804c-1.001-0.986-2.352-1.617-3.54-2.413c0-1.334,0-2.667,0-4
		c1.404,1.143,2.909,2.184,4.197,3.446c10.587,10.383,21.135,20.806,31.694,31.218c58.492,57.671,116.998,115.328,175.425,173.066
		c2.531,2.501,4.069,2.871,7.458,0.967c4.644-2.608,9.991-4.672,15.246-5.347c13.505-1.735,29.493,6.505,35.405,20.456
		c1.331,3.143,2.294,6.442,3.361,9.482h89.011c2.129-10.345,6.396-18.339,16.484-22.269c9.902-3.856,18.66-1.661,25.497,3.08
		c44.964-44.562,89.417-88.617,133.951-132.754c-0.512-0.571-1.031-1.221-1.622-1.798c-44.115-43.061-88.214-86.139-132.432-129.094
		c-1.739-1.689-4.527-2.84-6.972-3.177c-35.795-4.924-71.617-9.644-107.427-14.457c-40.926-5.502-81.843-11.071-122.77-16.568
		C124.744,15.167,83.972,9.76,43.214,4.246C41.752,4.048,40.402,3.028,39,2.391h14c1.389,0.418,2.75,1.031,4.17,1.226
		c27.7,3.804,55.406,7.559,83.111,11.325c38.095,5.179,76.19,10.363,114.286,15.534c38.426,5.216,76.853,10.423,115.281,15.623
		c8.706,1.178,17.418,2.315,26.127,3.471c-0.732-2.06-1.949-3.331-3.208-4.56C379.9,32.446,367.01,19.904,354.172,7.31
		c-1.528-1.5-2.788-3.273-4.172-4.919h8c16.036,15.745,32.041,31.522,48.168,47.173c1.183,1.148,3.188,1.722,4.902,2
		c6.569,1.065,13.172,1.923,19.767,2.818c53.756,7.293,107.513,14.583,161.271,21.858c7.194,0.974,14.4,1.857,21.553,2.777
		c3.624-13.94,11.867-21.941,26.211-22.862V9.794c-6.07-0.636-10.323-2.969-13.872-7.404h34c0.662,0.745,1.285,1.53,1.991,2.231
		c18.548,18.396,37.102,36.784,55.665,55.164c0.686,0.679,1.471,1.257,2.095,1.785c0.589-0.173,0.963-0.181,1.197-0.366
		c11.797-9.352,28.556-4.485,33.012,10.325c1.069,3.553,3.251,3.168,5.721,3.002c16.93-1.142,33.858-2.301,50.785-3.477
		c8.099-0.562,16.195-1.175,22.907-1.664c3.107-6.121,5.739-11.306,8.657-17.053C831.014,36.168,819.507,19.28,808,2.391h3
		c0.697,1.448,1.237,3.001,2.118,4.328c3.218,4.844,6.548,9.614,9.839,14.41c6.298,9.181,12.689,18.301,18.838,27.581
		c1.715,2.588,3.099,2.969,6.045,1.783c3.306-1.332,7.067-1.536,10.988-2.301c0.709-14.949,1.44-30.375,2.172-45.801h6
		c-0.655,14.309-1.198,28.625-2.042,42.923c-0.222,3.751,0.553,6.478,3.393,9.163c2.29,2.167,4.145,5.179,5.2,8.167
		c1.112,3.151,2.6,3.999,5.772,3.751c15.28-1.193,30.576-2.178,45.865-3.245c40.717-2.841,81.431-5.71,122.148-8.525
		c36.232-2.505,72.468-4.938,108.7-7.43c42.215-2.903,84.428-5.831,126.641-8.761c12.616-0.876,25.229-1.796,37.44-2.668
		c2.405-5.503,4.623-10.581,6.937-15.877c-5.261-5.734-10.657-11.616-16.055-17.498h3c4.364,4.746,8.666,9.554,13.146,14.188
		c0.874,0.903,3.064,1.948,3.598,1.544c5.286-4.011,11.319-5.004,17.939-4.616c1.161-3.895,2.239-7.506,3.316-11.116h2
		c-0.937,3.802-1.873,7.604-2.83,11.487c5.13,1.858,9.511,4.621,11.715,9.379c1.649,3.562,3.467,3.401,6.565,2.375
		c21.574-7.147,43.203-14.124,64.797-21.211c1.33-0.437,2.505-1.343,3.753-2.03h7c-1.523,0.858-2.957,1.995-4.587,2.531
		c-15.025,4.94-30.087,9.769-45.134,14.642c-9.632,3.12-19.257,6.259-29.146,9.474c0.729,10.383-1.925,19.189-11.037,25.259
		c36.486,64.348,72.827,128.44,109.128,192.461c23.494-10.516,51.537-1.445,57.664,26.884c2.227-0.181,4.519-0.307,6.797-0.561
		c16.552-1.841,33.101-3.708,49.65-5.566c28.301-3.176,56.598-6.391,84.904-9.509c11.908-1.311,23.839-2.416,35.76-3.615v3
		c-15.23,1.668-30.462,3.34-45.694,5.003c-37.913,4.139-75.829,8.265-113.742,12.419c-5.733,0.628-11.453,1.378-15.79,1.904
		c-2.617,7.707-4.498,14.511-7.234,20.952c-2.857,6.725-8.688,11.049-14.902,15.129c54.325,95.91,108.473,191.507,163.357,288.405
		c1.468-2.071,2.296-3.533,3.396-4.747c8.509-9.38,17.036-18.74,25.646-28.026c1.436-1.548,3.298-2.703,4.963-4.039v7
		c-9.372,10.147-18.655,20.379-28.175,30.385c-2.582,2.714-2.982,4.741-1.015,8.117c9.054,15.529,17.789,31.244,26.669,46.876
		c0.723,1.273,1.675,2.417,2.521,3.622v5c-1.334-1.289-3.059-2.354-3.943-3.899c-9.181-16.051-18.222-32.182-27.319-48.279
		c-0.843-1.492-1.816-2.911-2.902-4.642c-1.649,1.749-2.803,2.94-3.921,4.163c-39.486,43.147-78.969,86.296-118.45,129.446
		c-16.647,18.195-33.299,36.386-49.928,54.598c-1.388,1.521-3.156,2.682-2.119,5.511c1.902,5.187,3.262,10.572,5.007,16.409
		c0.353,0.075,1.462,0.436,2.596,0.541c29.853,2.785,59.709,5.532,89.562,8.312c26.867,2.501,53.726,5.085,80.599,7.521
		c10.26,0.932,20.547,1.556,30.82,2.319v4c-2.321-0.078-4.654-0.034-6.962-0.251c-26.521-2.495-53.036-5.04-79.554-7.55
		c-30.663-2.902-61.327-5.788-91.992-8.668c-8.567-0.806-17.139-1.566-25.771-2.353c-1.811,9.329-4.883,17.576-11.973,24.239
		c22.687,24.21,45.199,48.233,67.696,72.24c28.567-16.261,52.213-8.899,72.736,14.684c11.729-5.626,23.454-11.165,35.075-16.915
		c1.856-0.918,3.412-2.634,4.821-4.231c10.465-11.867,20.826-23.824,31.311-35.672c1.259-1.423,3.062-2.361,4.611-3.523v6
		c-1.199,1.071-2.517,2.036-3.576,3.23c-5.72,6.448-11.377,12.952-17.054,19.44c-2.016,2.305-4.025,4.616-6.037,6.924
		c0.221,0.283,0.442,0.566,0.663,0.851c6.821-3.236,13.619-6.521,20.479-9.674c1.743-0.803,3.679-1.192,5.525-1.771v4
		c-0.64,0.112-1.345,0.087-1.91,0.356c-10.204,4.854-20.397,9.729-30.57,14.646c-1.181,0.571-2.447,1.23-3.295,2.186
		c-9.473,10.667-18.87,21.399-27.977,31.76c2.787,2.908,5.271,5.5,7.879,8.219c1.393-0.926,2.783-1.807,4.129-2.751
		c15.518-10.875,31.017-21.776,46.559-32.615c1.602-1.117,3.451-1.876,5.186-2.801v2c-18.143,12.747-36.286,25.495-54.126,38.03
		c2.308,4.134,4.217,7.552,6.126,10.97h-127c3.131-5.399,6.388-10.731,9.323-16.234c1.023-1.921,1.305-4.253,1.832-6.419
		c1.233-5.072,1.756-10.443,3.8-15.161c1.989-4.591,5.513-8.517,8.556-13.021c-22.187-23.767-44.65-47.83-67.184-71.967
		c-4.599,2.355-8.88,4.549-13.358,6.844c11.363,14.713,19.04,30.831,22.82,48.689c3.782,17.864,3.213,35.682-1.758,53.521
		c1.807,0.741,3.313,1.396,4.847,1.981c6.838,2.617,13.687,5.211,20.526,7.824c1.849,0.707,4.01,1.158,3.596,3.943h-9
		c-7.118-2.855-14.236-5.709-21.533-8.636c-1.378,3.431-2.422,6.033-3.467,8.636h-202c-1.964-3.969-4.085-7.869-5.864-11.919
		c-8.755-19.929-12.2-40.742-8.83-62.292c2.77-17.702,9.641-33.891,20.63-48.261c-0.302-0.396-0.535-0.856-0.9-1.157
		c-20.295-16.755-40.581-33.522-60.951-50.187c-1.316-1.077-3.242-1.778-4.954-1.949c-21.044-2.091-42.1-4.059-63.155-6.038
		c-33.488-3.151-66.98-6.269-100.469-9.435c-33.486-3.165-66.97-6.381-100.456-9.56c-34.313-3.259-68.629-6.507-102.945-9.744
		c-8.09-0.762-16.187-1.458-24.488-2.203c-0.224,1.287-0.49,2.232-0.54,3.188c-2.316,44.242-4.592,88.487-6.918,132.729
		c-1.347,25.611-2.77,51.217-4.158,76.826h-6c1.711-31.437,3.46-62.873,5.123-94.312c1.919-36.271,3.775-72.544,5.616-108.817
		c0.167-3.283,0.023-6.581,0.023-10.317c-47.971-4.535-95.843-9.059-144.268-13.636c-3.649,16.969-13.879,27.07-31.571,29.761
		c2.362,65.86,4.72,131.59,7.077,197.321h-3c-0.2-1.645-0.528-3.286-0.58-4.936c-0.758-23.647-1.479-47.297-2.207-70.944
		c-1.158-37.638-2.305-75.276-3.487-112.913c-0.092-2.924-0.416-5.841-0.635-8.796c-8.535-0.352-15.569-2.916-21.642-8.367
		c-6.039-5.42-8.887-12.458-10.999-20.089c-172.188,22.018-344.082,43.998-515.483,65.915
		c-4.344,32.009-23.033,46.718-54.273,47.941c1.946,1.863,3.369,3.237,4.806,4.598c35.939,34.021,71.891,68.026,107.775,102.106
		c1.566,1.486,2.498,3.641,3.725,5.484h-7c-0.993-1.259-1.848-2.663-2.999-3.754c-36.522-34.614-73.074-69.195-109.617-103.787
		c-4.083-3.865-7.945-7.871-13.661-9.613c-2.556-0.777-4.669-3.014-6.974-4.602c-1.581-1.089-3.145-2.202-4.592-3.218
		c-4.671,3.54-8.914,6.757-13.157,9.974c0-1.667,0-3.334,0-5c3.604-2.598,7.207-5.196,10.669-7.692
		c-1.907-3.795-3.313-7.298-5.348-10.387c-1.29-1.959-3.515-3.302-5.321-4.921c0-3,0-6,0-9c1.975,0.482,3.213,0.079,3.179-2.321
		c-0.027-1.975-0.098-4.014,0.324-5.919c2.479-11.198,8.538-20.162,17.797-27.598C13.201,775.834,6.101,767.111-1,758.391
		 M1662.123,603.249c-54.577-96.74-108.819-192.886-163.126-289.149c-11.727,4.609-23.07,5.358-34.449,0.578
		c-11.831-4.969-18.549-14.31-22.027-26.392c-133.666,24.159-266.948,48.248-398.685,72.058c-2.007,6.679-2.644,12.558-5.475,17.057
		c-2.333,3.706-1.715,5.157,0.794,7.763c127.485,132.372,254.922,264.79,382.372,397.195c1.123,1.166,2.341,2.242,3.695,3.533
		c9.777-7.927,21.103-9.832,32.627-8.074c11.434,1.745,21.162,7.673,28.528,17.483
		C1545.207,731.014,1603.557,667.25,1662.123,603.249 M619.857,718.604c-1.854-1.557-3.075-2.448-4.139-3.497
		c-83.572-82.346-167.131-164.705-250.696-247.058c-1.54-1.517-2.988-3.912-4.755-4.199c-1.869-0.303-4.067,1.433-6.127,2.262
		c-0.458,0.184-0.937,0.324-1.417,0.444c-7.739,1.94-15.28,1.796-22.419-2.471C245.965,570.192,161.801,676.081,78.003,781.508
		c3.632,4.327,7.384,7.89,9.992,12.151c2.693,4.403,4.275,9.486,6.711,15.123c171.127-21.547,343.077-43.198,515.143-64.863
		C611.266,734.714,612.75,725.896,619.857,718.604 M952.807,566.169c1.136,1.023,1.842,1.711,2.6,2.337
		c31.109,25.668,62.222,51.331,93.337,76.993c58.887,48.564,117.766,97.139,176.707,145.639c1.833,1.508,4.235,2.968,6.503,3.203
		c18.393,1.909,36.817,3.508,55.23,5.222c26.872,2.502,53.742,5.035,80.615,7.529c13.271,1.231,26.551,2.389,39.82,3.629
		c1.926,0.18,4.042,0.413,4.355-2.003c1.021-7.883,4.763-14.312,10.581-20.234c-129.587-135.198-259.03-270.247-388.463-405.283
		c-11.719,7.915-22.803,7.114-33.085-0.126c-9.662,9.393-18.871,18.56-28.355,27.431c-2.807,2.624-2.965,4.706-1.461,8.109
		c13.625,30.815,16.139,62.621,7.699,95.221C973.943,532.946,965.164,550.234,952.807,566.169 M875.662,68.403
		c-0.224,1.04-0.382,1.654-0.486,2.277c-0.865,5.151-2.612,9.992-6.466,13.603c-3.98,3.73-4.156,3.548-1.868,8.406
		c30.513,64.78,61.023,129.559,91.544,194.334c0.751,1.595,1.605,3.142,2.512,4.905c9.101-3.701,17.679-3.18,25.624,1.488
		c8.104,4.761,12.69,12.255,14.173,21.712c11.931-0.617,23.56-1.212,35.187-1.837c0.633-0.034,1.252-0.318,1.832-0.474
		c0.628-21.861,26.665-41.509,52.225-23.04c1.193-1.419,2.376-3.042,3.773-4.452c76.126-76.797,152.271-153.576,228.412-230.357
		c0.821-0.828,1.859-1.543,2.389-2.529c0.472-0.875,0.792-2.217,0.459-3.072c-1.463-3.748-3.187-7.393-4.958-11.396
		C1172.151,48.097,1023.962,58.246,875.662,68.403 M621.199,717.125c5.772-4.903,11.885-7.942,19.005-8.774
		c0.737-0.086,1.654-1.537,1.871-2.494c0.325-1.428,0.113-2.98,0.108-4.48c-0.406-110.495-0.814-220.99-1.222-331.485
		c-0.005-1.166,0.331-2.502-0.125-3.456c-0.538-1.126-1.673-2.615-2.71-2.755c-10.229-1.381-17.29-6.892-21.405-16.172
		c-1.436-3.241-2.237-6.763-3.426-10.463c-66.536,0.717-133.11,1.434-199.598,2.15c-1.833,18.872-15.796,27.801-35.138,23.458
		c-8.387,20.644-16.813,41.386-25.278,62.223c6.701,3.816,11.715,8.746,13.529,16.094c1.84,7.455-1.308,13.916-5.087,20.324
		C448.131,546.488,534.384,631.529,621.199,717.125 M1327.377,52.736c-78.878,79.583-157.652,159.062-235.768,237.876
		c3.042,6.451,5.745,12.182,8.644,18.326c113.714-9.12,227.688-18.262,340.172-27.284c2.771-7.217,4.318-13.761,7.648-19.216
		c3.423-5.607,8.587-10.152,13.151-15.348c-35.918-63.715-72.022-127.765-107.995-191.581
		C1343.6,59.052,1335.26,58.608,1327.377,52.736 M828.36,756.191c7.233,2.173,385.307,36.746,388.55,35.562
		c-89.274-73.574-178.475-147.088-267.891-220.779c-30.513,33.847-68.416,50.299-113.693,50.182
		C832.986,666.506,830.68,711.221,828.36,756.191 M641.931,112.15c-0.078,1.541-0.235,3.155-0.229,4.769
		c0.216,52.819,0.475,105.638,0.613,158.458c0.009,3.446,1.043,5.904,3.52,8.29c14.281,13.754,28.67,27.414,42.48,41.631
		c4.912,5.056,9.807,6.589,16.655,6.162c36.912-2.298,73.852-4.14,110.781-6.164c9.454-0.518,18.903-1.127,28.621-1.71
		c0.216-1.844,0.469-3.293,0.545-4.751c2.023-39.098,3.997-78.198,6.095-117.292c0.167-3.113-0.718-5.271-2.902-7.477
		c-32.126-32.439-64.165-64.963-96.237-97.456c-1.118-1.132-2.363-2.137-3.513-3.169c-10.179,9.602-30.678,6.599-34.918-13.968
		c-14.964,1.055-29.983,2.114-44.938,3.169C668.189,100.291,658.103,110.258,641.931,112.15 M670.459,335.142
		c-0.14,1.531-0.227,2.338-0.286,3.147c-0.989,13.728-9.591,21.971-21.066,25.143c-6.028,1.666-6.123,1.377-6.093,7.521
		c0.281,57.142,0.577,114.284,0.848,171.426c0.252,53.31,0.475,106.62,0.725,159.93c0.026,5.607,0.151,5.513,5.845,6.32
		c2.554,0.361,5.104,1.27,7.466,2.346c2.966,1.35,5.738,3.127,8.843,4.859c36.285-36.582,72.451-73.043,108.806-109.695
		c-42.297-22.924-68.93-56.944-77.334-103.72c-8.424-46.894,4.838-88.171,36.213-123.97c-14.729-14.382-29.124-28.471-43.592-42.485
		c-0.865-0.839-2.309-1.548-3.473-1.532C681.886,334.511,676.416,334.864,670.459,335.142 M538.6,187.583
		c-44.241,44.52-88.247,88.802-131.931,132.76c2.668,5.498,5.145,10.601,8.011,16.508c65.789-0.613,132.459-1.235,199.002-1.855
		c2.4-16.067,11.052-25.001,26.912-27.061c0-5.463-0.196-10.774,0.067-16.062c0.183-3.671-1.161-6.19-3.756-8.709
		c-31.546-30.634-62.991-61.372-94.469-92.076C541.267,189.948,540.025,188.882,538.6,187.583 M829.346,620.735
		c-1.762-0.198-2.883-0.332-4.006-0.453c-14.659-1.579-28.867-5.012-42.318-11.07c-3.729-1.68-5.948-1.441-8.926,1.584
		c-34.11,34.662-68.388,69.157-102.617,103.701c-1.048,1.058-2.046,2.163-3.193,3.381c6.338,6.977,9.198,15.186,9.043,24.925
		c48.279,4.494,96.28,8.961,145.043,13.5C824.706,710.921,827.018,665.979,829.346,620.735 M411.941,53.78
		c-0.161,0.354-0.322,0.709-0.483,1.064c43.302,42.258,86.605,84.517,129.99,126.856c1.221-1.116,1.979-1.754,2.677-2.453
		c24.472-24.527,48.938-49.059,73.405-73.592c0.587-0.589,1.4-1.1,1.68-1.816c0.378-0.964,0.853-2.463,0.399-3.091
		c-4.228-5.839-6.172-12.312-5.441-19.817C546.434,71.836,479.187,62.808,411.941,53.78 M542.755,182.979
		c32.612,31.824,64.609,63.049,97.175,94.829V113.127c-6.738-3.083-12.644-5.786-17.697-8.099
		C595.825,130.93,569.541,156.708,542.755,182.979 M1099.378,311.336c-0.131,13.86-6.179,23.912-18.033,29.465
		c-12.118,5.676-23.762,3.23-33.482-4.823c-4.244,3.917-8.124,7.499-11.761,10.856c2.086,3.931,3.99,7.521,6.072,11.447
		c132.881-24.184,265.984-48.409,399.086-72.634l-0.193-1.226C1327.248,293.387,1213.429,302.353,1099.378,311.336 M856.625,89.737
		c-12.986-0.043-19.128-7.595-21.896-18.55c-26.908,1.858-53.084,3.666-78.221,5.401c-2.137,5.804-3.93,10.672-5.945,16.144
		c32.924,33.275,66.329,67.035,99.734,100.795l1.022-0.506C853.076,158.817,854.833,124.616,856.625,89.737 M858.061,204.234
		l-1.285,0.242c-2.02,39.459-4.038,78.919-6.081,118.854c31.309-1.704,61.691-3.358,91.331-4.971
		c2.851-7.084,5.457-13.562,8.29-20.601C920.022,267.05,889.041,235.642,858.061,204.234 M351.031,423.851
		c8.407-20.637,16.745-41.103,25.177-61.8c-1.171-0.947-2.161-1.786-3.191-2.573c-5.242-4.013-9.725-8.693-10.726-15.477
		c-0.563-3.819-2.513-4.349-5.75-4.304c-27.134,0.376-54.271,0.64-81.406,0.968c-1.248,0.015-2.492,0.311-3.867,0.493
		c0.277,8.801-3.586,15.606-8.842,22.229c22.017,21.712,43.918,43.309,66.111,65.196
		C335.321,423.822,342.868,422.688,351.031,423.851 M863.96,91.014c-0.363,0.031-0.726,0.063-1.089,0.094
		c-0.173,1.285-0.439,2.566-0.507,3.856c-1.729,33.444-3.388,66.892-5.22,100.33c-0.201,3.662,0.848,6.178,3.426,8.77
		c29.616,29.768,59.111,59.657,88.646,89.505c1.141,1.151,2.362,2.221,3.602,3.381c2.102-1.458,3.967-2.751,5.916-4.103
		C927.082,225.44,895.521,158.227,863.96,91.014 M850.059,333.547c53.153,5.348,92.527,31.39,118.005,77.652
		c9.767-9.571,19.135-18.811,28.586-27.964c1.96-1.896,1.776-3.306,0.33-5.55c-3.727-5.773-5.179-12.138-2.867-18.858
		c1.364-3.969,3.137-7.797,4.349-10.763c-2.74-2.93-5.192-5.553-7.632-8.161c-8.817,7.187-18.597,8.688-29.269,4.837
		c-11.154-4.023-16.421-12.508-17.936-24.265c-30.99,1.679-61.842,3.35-93,5.038C850.434,328.228,850.285,330.35,850.059,333.547
		 M642.163,11.646v44.504c11.197,1.042,22.946,9.67,25.113,21.433c0.461,2.503,2.181,3.271,4.771,3.047
		c8.123-0.703,16.266-1.179,24.401-1.747c5.766-0.402,11.532-0.81,16.583-1.165c1.764-5.345,3.297-9.985,4.347-13.167
		c-19.782-20.339-39.245-40.349-58.052-59.686C653.473,7.177,648.174,9.271,642.163,11.646 M844.031,325.834
		c-48.914,2.636-97.204,5.237-145.493,7.839l-0.287,1.056c13.415,13.093,26.83,26.185,40.365,39.394
		c30.149-27.102,65.078-41.098,105.415-40.788V325.834z M1235.753,798.079c-0.163,0.413-0.327,0.827-0.491,1.241
		c18.512,15.265,37.022,30.529,55.709,45.938c18.19-20.233,40.529-31.537,66.748-35.687
		C1317.064,805.741,1276.408,801.909,1235.753,798.079 M1036.893,315.463c-11.267,0.622-23.175,1.28-35.216,1.946
		c-0.562,2.063-0.98,3.804-1.515,5.508c-0.97,3.099-1.575,6.412-3.105,9.215c-3.452,6.322-3.649,6.223,1.45,11.242
		c0.808,0.794,1.697,1.503,2.729,2.408c10.929-7.972,21.954-8.085,31.479-1.393c4.604-3.848,8.646-7.227,12.002-10.032
		C1041.993,327.78,1039.565,321.917,1036.893,315.463 M642.92,308.354c7.674-0.022,13.999,2.706,18.415,7.544
		c4.366,4.783,7.055,11.095,10.71,17.116c4.061-0.233,8.794-0.506,13.527-0.778c0.16-0.333,0.32-0.666,0.48-1
		c-14.161-13.82-28.323-27.64-43.132-42.093V308.354z M1629.739,948.518c0.493,0.166,0.985,0.331,1.478,0.497
		c6.673-7.613,13.347-15.225,20.02-22.838c-0.32-0.35-0.641-0.698-0.96-1.047c-8.425,4.034-16.849,8.066-25.489,12.203
		C1626.62,941.473,1628.18,944.994,1629.739,948.518"/>
</g>
</svg>
