<?xml version="1.0" encoding="utf-8"?>
<!-- Generator: Adobe Illustrator 16.0.0, SVG Export Plug-In . SVG Version: 6.00 Build 0)  -->
<!DOCTYPE svg PUBLIC "-//W3C//DTD SVG 1.1//EN" "http://www.w3.org/Graphics/SVG/1.1/DTD/svg11.dtd">
<svg version="1.1" id="Layer_1" xmlns="http://www.w3.org/2000/svg" xmlns:xlink="http://www.w3.org/1999/xlink" x="0px" y="0px"
	 width="1099.439px" height="976.67px" viewBox="0 0 1099.439 976.67" style="enable-background:new 0 0 1099.439 976.67;"
	 xml:space="preserve">
<g>
    <rect fill="#F4F6F6" width="100%" height="100%"/>
		<path fill="#F6FAFA" d="M1050.168,543.891c-0.453,0.692-0.955,1.359-1.352,2.084c-6.06,11.077-17.264,14.437-28.43,8.509
			c-0.723-0.384-1.438-0.785-2.765-1.511c-75.715,79.384-151.425,158.762-227.214,238.223c1.084,1.553,1.813,2.642,2.587,3.698
			c8.293,11.319,9.567,23.424,2.67,35.613c-6.839,12.085-17.906,17.339-31.594,15.478c-13.624-1.854-22.585-9.995-26.879-23.043
			c-2.646-8.043-2.512-8.077-11.211-8.08c-49.821-0.013-99.641-0.034-149.461-0.047c-6.1-0.002-6.1,0.012-7.996,5.958
			c-3.13,9.82-12.251,16.513-22.179,16.271c-10.192-0.248-19.018-7.55-21.503-17.789c-1.829-7.53-1.846-7.363-9.534-8.151
			c-20.86-2.141-41.702-4.45-62.553-6.664c-20.026-2.126-40.057-4.196-60.082-6.328c-20.521-2.185-41.035-4.438-61.556-6.618
			c-15.872-1.686-31.751-3.306-48.006-4.995c-0.655,2.139-1.166,4.025-1.806,5.866c-4.899,14.107-19.14,23.688-33.631,22.652
			c-14.502-1.036-26.615-11.461-29.186-25.895c-2.451-13.762,2.498-24.853,13.698-33.138c4.297-3.179,4.417-3.148,2.221-7.999
			c-18.34-40.512-36.716-81.007-55.066-121.515c-13.539-29.887-27.054-59.784-40.587-89.674c-1.025-2.262-2.116-4.495-3.23-6.856
			c-3.76,0.443-7.337,1.185-10.923,1.233c-13.763,0.188-25.468-9.511-27.659-22.67c-2.216-13.309,5.512-26.016,18.93-30.19
			c4.042-1.258,5.144-2.719,4.401-6.943c-1.238-7.032-1.742-14.203-2.363-21.332c-0.325-3.718-1.269-5.801-5.745-6.374
			c-11.632-1.489-18.671-8.72-21.998-19.774c0-3.333,0-6.667,0-10c0.51-1.043,1.054-2.072,1.525-3.133
			c6.466-14.543,22.957-19.915,36.292-11.383c3.651,2.335,5.593,1.806,8.448-0.932c32.234-30.91,64.582-61.7,96.886-92.536
			c28.688-27.385,57.362-54.784,86.031-82.189c2.249-2.15,4.408-4.394,6.634-6.62c-1.362-1.934-2.439-3.402-3.452-4.913
			c-6.05-9.032-8.083-18.991-6.033-29.577c3.283-16.958,17.463-29.52,34.287-30.823c17.035-1.319,33.678,9.68,39.669,26.215
			c1.885,5.204,1.883,5.196,7.035,4.219c19.958-3.786,39.931-7.497,59.861-11.428c2.821-0.556,5.727-1.749,8.084-3.383
			c7.602-5.269,15.596-7.053,24.639-4.529c2.606,0.728,5.633,0.776,8.313,0.289c22.444-4.08,44.852-8.356,67.27-12.577
			c32.89-6.193,65.769-12.445,98.682-18.509c3.838-0.708,5.598-1.863,5.874-6.212c0.69-10.908,7.582-18.823,18.141-22.019
			c0.948-0.287,1.877-0.638,2.815-0.96h5c0.789,0.25,1.566,0.542,2.367,0.742c14.741,3.694,22.173,18.094,16.646,32.28
			c-0.537,1.377-1.11,2.74-1.778,4.384c1.234,1.008,2.322,2.006,3.516,2.857c50.724,36.182,101.476,72.323,152.143,108.584
			c3.189,2.281,5.273,2.575,8.605,0.004c8.441-6.513,19.271-4.049,25.082,4.895c1.255,1.93,3.34,3.638,5.428,4.661
			c18.848,9.238,23.311,33.151,8.918,48.431c-1.127,1.196-2.258,2.388-3.526,3.729c0.87,1.815,1.606,3.476,2.447,5.083
			c7.032,13.43,14.09,26.846,21.126,40.273c23.894,45.592,47.778,91.188,71.676,136.779c3.789,7.229,7.62,14.436,11.444,21.646
			c1.035,1.952,1.978,3.542,4.909,3.104c13.176-1.965,19.214,1.417,24.997,13.547V543.891z M790.158,786.875
			c0.334-0.337,0.666-0.673,0.998-1.01c0.332-0.334,0.664-0.667,0.996-1.001c0.335-0.33,0.67-0.66,1.005-0.99
			c6.287-6.413,12.638-12.766,18.852-19.25c29.848-31.144,59.645-62.338,89.489-93.485c27.655-28.863,55.363-57.678,83.02-86.543
			c9.563-9.98,19.056-20.029,28.522-30.103c1.055-1.123,1.721-2.612,2.566-3.932l-1.114-1.006
			c-21.604,12.293-43.211,24.586-64.83,36.887c0.382,1.377,0.602,2.169,0.821,2.962c2.353,8.474,0.406,15.878-5.895,21.941
			c-6.263,6.027-13.758,7.831-22.152,5.495c-5.681-1.581-5.673-1.646-9.148,3.066c-39.05,52.949-78.101,105.896-117.12,158.866
			c-1.166,1.583-1.996,3.413-2.982,5.128c-0.331,0.335-0.662,0.669-0.992,1.004l-1.001,0.995c-0.337,0.333-0.675,0.665-1.012,0.997
			L790.158,786.875 M750.16,169.906l0.026-0.026c0.334,0.334,0.669,0.668,1.003,1.001c0.997,0.661,1.995,1.321,2.992,1.981
			c0.337,0.338,0.674,0.676,1.011,1.013c0.667,0.733,1.25,1.569,2.014,2.184c32.893,26.515,65.76,53.062,98.786,79.411
			c2.697,2.153,6.403,3.215,9.804,4.251c2.097,0.639,5.175,2.538,6.462-0.985c1.19-3.259-2.255-4.038-4.08-5.337
			c-33.753-24.015-67.555-47.962-101.378-71.878c-3.783-2.675-7.76-5.077-11.647-7.605c-0.338-0.337-0.676-0.674-1.014-1.012
			l-2.979-1.992C750.826,170.577,750.494,170.241,750.16,169.906 M922.148,334.918c-0.331-0.676-0.663-1.352-0.994-2.028
			c-0.671-0.988-1.342-1.977-2.014-2.965c-0.334-0.667-0.667-1.333-1.001-1.999c-0.334-0.667-0.667-1.334-1-2
			c-0.333-0.668-0.666-1.335-0.999-2.002c-0.334-0.667-0.667-1.334-1-2.001c-0.331-0.675-0.663-1.35-0.994-2.025
			c-0.572-1.299-1.143-2.599-1.714-3.899c-0.31,0.204-0.62,0.409-0.931,0.613c0.898,1.081,1.798,2.162,2.695,3.243l0.993,2.026
			c0.333,0.667,0.667,1.333,1,2c0.333,0.668,0.665,1.335,0.998,2.002c0.333,0.668,0.666,1.335,0.999,2.002
			c0.332,0.667,0.665,1.335,0.997,2.002c0.668,0.992,1.337,1.983,2.005,2.975c0.331,0.675,0.662,1.351,0.993,2.026
			c0.334,0.666,0.667,1.333,1,2l0.999,2.001c0.333,0.667,0.667,1.333,1,2c0.332,0.66,0.663,1.321,0.995,1.981l-0.029,0.029
			c-0.333-0.661-0.666-1.321-1-1.981c-0.333-0.667-0.667-1.333-1-2s-0.666-1.333-0.999-2S922.481,335.585,922.148,334.918
			 M933.165,355.894l0.007-0.007c-0.336-0.664-0.671-1.328-1.007-1.992l0.007-0.008
			C932.503,354.556,932.834,355.225,933.165,355.894 M219.189,705.862c0.092,0.226,0.185,0.453,0.168,0.412
			c0.023,0.043-0.09-0.17-0.203-0.383l-1.007-1.995c-0.474-1.764-0.807-3.578-1.441-5.28
			c-19.664-52.747-39.354-105.484-59.049-158.22c-2.778-7.44-5.598-14.864-8.038-21.341c-2.741,2.214-5.333,4.562-8.184,6.532
			c-2.369,1.638-2.736,3.188-1.5,5.827c4.73,10.108,9.225,20.326,13.817,30.499c16.588,36.743,33.159,73.494,49.784,110.219
			c4.803,10.612,9.768,21.15,14.659,31.722C218.528,704.523,218.859,705.193,219.189,705.862 M460.178,173.907
			c-1.651,0.189-3.322,0.274-4.95,0.581c-15.377,2.899-30.75,5.825-46.118,8.769c-5.262,1.009-10.509,2.093-15.763,3.142
			c0.052,0.311,0.104,0.621,0.156,0.931h60.937c2.123-4.997,3.918-9.222,5.713-13.448L460.178,173.907z M528.179,801.91
			c-4.96-0.389-9.917-0.844-14.882-1.156c-25.736-1.621-51.475-3.199-77.213-4.804c-14.113-0.881-28.222-1.822-42.337-2.669
			c-9.141-0.548-18.29-0.975-27.435-1.456c9.549,1.639,19.116,2.755,28.691,3.79c19.838,2.143,39.684,4.223,59.521,6.368
			c20.497,2.217,40.98,4.566,61.487,6.682c8.523,0.879,8.544,0.67,12.14-6.782L528.179,801.91 M645.175,138.909
			c-1.816,0.2-3.655,0.279-5.446,0.617c-35.201,6.636-70.396,13.294-105.591,19.969c-11.894,2.256-23.776,4.57-35.771,6.877
			c2.456,2.936,4.858,5.423,6.809,8.224c3.575,5.134,3.462,5.202,9.377,3.448c33.531-9.94,67.074-19.843,100.59-29.834
			c10.036-2.991,19.999-6.225,29.995-9.348c0.737-0.097,1.474-0.194,2.211-0.292c-0.052-0.194-0.104-0.388-0.155-0.583
			C646.521,138.294,645.848,138.602,645.175,138.909 M237.179,345.912c-1.186,0.585-2.436,1.071-3.55,1.771
			c-26.507,16.64-53.001,33.3-79.493,49.965c-5.464,3.438-10.908,6.909-16.226,10.28c1.773,6.944,1.801,7.161,7.949,6.742
			c13.437-0.918,26.869-1.961,40.275-3.243c1.86-0.178,4.04-1.618,5.254-3.131c4.271-5.317,8.205-10.905,12.23-16.417
			c11.187-15.325,22.356-30.664,33.532-45.997L237.179,345.912 M258.157,326.868c1.904-1.002,3.882-1.887,5.703-3.024
			c30.366-18.956,60.715-37.942,91.064-56.926c7.595-4.751,15.18-9.52,23.134-14.509c-3.515-8.082-6.873-15.802-10.27-23.613
			c-1.386,0.208-2.343,0.371-3.304,0.493c-9.178,1.172-18.393,1.719-26.668-3.303c-3.493-2.119-5.061-1.304-7.191,1.667
			c-9.217,12.853-18.661,25.543-27.99,38.315c-14.829,20.301-29.632,40.62-44.447,60.931L258.157,326.868z M135.154,403.863
			c1.185-0.591,2.429-1.089,3.547-1.787c32.501-20.298,64.934-40.705,97.528-60.851c5.942-3.673,10.707-8.107,14.816-13.75
			c25.008-34.343,50.242-68.523,75.381-102.772c0.99-1.349,1.789-2.838,2.677-4.262c-0.302-0.203-0.604-0.407-0.906-0.61
			c-0.985,0.833-2.015,1.618-2.949,2.504c-18,17.09-36.018,34.161-53.972,51.299c-26.391,25.193-52.72,50.451-79.107,75.647
			c-8.915,8.512-17.987,16.86-26.883,25.393c-10.091,9.679-20.065,19.482-30.09,29.231L135.154,403.863z M875.181,530.904
			l-0.026-0.022c-0.697,1.679-1.213,3.463-2.124,5.016c-9.004,15.347-18.084,30.648-27.114,45.979
			c-1.884,3.197-3.653,6.46-5.41,9.578c0.817,0.605,0.947,0.784,1.077,0.785c20.777,0.178,41.555,0.38,62.333,0.406
			c1.09,0.001,2.85-1.297,3.167-2.336c2.246-7.372,6.901-12.367,14.02-15.137c2.237-0.871,2.713-2.303,2.437-4.688
			c-2.316-19.966-4.453-39.952-6.701-59.926c-0.57-5.062-1.346-10.103-1.902-14.229c-6.214-1.284-11.497-2.375-16.779-3.467
			l0.037,0.038c-0.765-0.871-1.428-1.867-2.312-2.593c-6.021-4.944-8.809-11.54-7.681-18.977
			c1.265-8.332,5.914-14.759,14.344-17.629c2.309-0.786,4.729-1.243,7.644-1.991c-4.818-43.282-9.621-86.404-14.422-129.526
			c-0.282,0.029-0.563,0.058-0.845,0.087c4.204,42.511,8.408,85.022,12.613,127.533c-0.385,0.037-0.769,0.075-1.152,0.113
			c-0.408-3.113-0.866-6.221-1.215-9.341c-1.494-13.392-2.963-26.786-4.43-40.181c-1.92-17.53-3.841-35.06-5.734-52.593
			c-0.786-7.279-1.426-14.574-2.295-21.843c-0.289-2.41-0.43-5.391-3.674-5.81c-6.736-0.868-12.075-4.411-17.416-8.9
			c-103.754,86.153-207.385,172.205-310.534,257.858c2.088,5.826,4.431,10.845,5.601,16.124c0.867,3.918,2.718,4.584,6.155,4.61
			c13.992,0.109,27.98,0.525,41.973,0.662c42.32,0.412,84.641,0.751,126.961,1.096c1.563,0.013,3.129-0.222,5.322-0.389
			c-0.922-2.374-1.473-4.089-2.234-5.707c-6.589-14.022-13.29-27.994-19.798-42.054c-3.137-6.775-5.932-13.709-8.881-20.57
			l-0.034,0.028c0.756,1.062,1.69,2.039,2.243,3.198c9.679,20.298,19.372,40.59,28.896,60.962c1.538,3.293,3.417,4.768,7.187,4.664
			c8.657-0.237,17.328-0.095,25.991,0.007c17.656,0.209,35.312,0.416,52.963,0.812c3.396,0.076,5.144-1.501,6.697-4.131
			c7.797-13.192,15.614-26.374,23.549-39.484C867.365,542.839,871.337,536.91,875.181,530.904 M625.162,456.881l0.016,0.018
			c-3.415,3.137-6.673,6.469-10.271,9.381c-32.487,26.296-65.038,52.516-97.563,78.765c-4.976,4.017-5.048,4.728-1.095,10.188
			c15.229-4.264,28.817-0.93,40.526,10.068c104.161-86.064,207.985-171.854,311.171-257.114c-1.852-7.739-3.522-14.724-5.422-22.666
			c-2.986,1.869-5.926,3.504-8.648,5.442c-39.347,28.013-78.646,56.093-118.011,84.08c-5.403,3.842-11.099,7.275-16.658,10.898
			l-0.091-0.1c1.341-1.223,2.573-2.592,4.034-3.646c40.922-29.559,81.867-59.085,122.808-88.619
			c3.46-2.496,6.912-5.002,10.367-7.503c-0.06-0.432-0.119-0.864-0.181-1.297c-114.861-20.851-229.722-41.701-345.638-62.744
			c1.56,2.132,2.383,3.346,3.294,4.489c42.562,53.421,85.151,106.819,127.668,160.277c4.123,5.184,7.792,10.729,11.671,16.107
			l0.042-0.043c-1.094-1.014-2.329-1.913-3.261-3.059c-15.976-19.639-31.949-39.28-47.852-58.978
			c-31.082-38.504-62.153-77.017-93.112-115.62c-2.505-3.124-5.339-4.672-9.172-5.191c-9.678-1.311-19.33-2.812-29.398-4.297
			c-0.41,0.582-1.177,1.454-1.708,2.452c-17.61,33.096-35.171,66.218-52.836,99.284c-1.503,2.813-1.409,5.233-0.184,8.032
			c10.686,24.424,21.331,48.866,31.883,73.347c1.13,2.62,2.552,3.832,5.514,4.02c8.966,0.568,17.912,1.475,26.865,2.252
			c13.925,1.208,27.848,2.437,41.775,3.619c13.762,1.168,27.53,2.257,41.291,3.44c13.921,1.196,27.84,2.438,41.755,3.71
			c11.782,1.077,23.558,2.225,35.335,3.342c-12.145-0.048-24.243-0.703-36.325-1.597c-20.254-1.498-40.498-3.131-60.744-4.738
			c-14.439-1.146-28.874-2.346-43.31-3.514c-14.107-1.142-28.211-2.307-42.323-3.373c-1.854-0.14-3.748,0.243-6.494,0.449
			c20.459,46.976,40.321,93.189,60.752,139.683c2.381-1.748,3.881-2.771,5.298-3.899c30.482-24.3,60.933-48.639,91.452-72.892
			C613.832,465.003,619.561,461.023,625.162,456.881 M152.756,513.979c29.889,79.84,59.389,158.64,88.832,237.289
			c13.307-1.554,19.547-0.977,26.592,3.776c3.62,2.442,5.528,1.739,8.366-1.045c14.861-14.576,29.956-28.912,44.925-43.379
			c17.006-16.436,33.942-32.943,50.97-49.355c2.127-2.052,2.409-3.562,0.906-6.404c-1.803-3.406-2.802-7.411-3.347-11.271
			c-0.907-6.414,0.413-12.561,4.39-18.044c-1.116-0.981-1.943-1.787-2.847-2.493c-34.505-26.977-69.055-53.897-103.483-80.972
			c-4.45-3.499-9.159-5.701-14.677-6.882c-31.431-6.727-62.816-13.662-94.225-20.49C157.47,514.342,155.709,514.306,152.756,513.979
			 M164.24,455.34c1.589,1.361,2.917,2.579,4.328,3.694c29.027,22.921,58.037,45.865,87.149,68.676
			c2.269,1.778,5.148,3.182,7.955,3.807c34.613,7.717,69.263,15.265,103.909,22.833c5.94,1.298,11.903,2.482,18.335,3.819
			c0-2.246,0.121-3.721-0.02-5.171c-1.062-10.932-2.166-21.859-3.276-32.788c-1.885-18.541-3.771-37.083-5.68-55.623
			c-1.261-12.249-2.589-24.492-3.824-36.744c-0.221-2.195-0.64-3.726-3.364-3.968c-12.26-1.089-19.592-8.114-22.856-19.667
			c-0.652-2.308-1.852-2.759-4.003-2.56c-10.446,0.967-20.904,1.797-31.354,2.727c-20.565,1.831-41.128,3.693-61.69,5.549
			c-17.247,1.557-34.487,3.188-51.743,4.632c-3.454,0.289-5.753,1.65-7.774,4.479c-7.748,10.844-15.731,21.52-23.598,32.279
			C165.873,452.491,165.188,453.798,164.24,455.34 M422.24,668.2c37.409,42.951,74.304,85.31,111.049,127.498
			c11.849-5.891,19.458-5.75,28.72,1.237c3.93,2.964,6.819,2.701,10.766,0.456c30.536-17.376,61.168-34.582,91.765-51.854
			c5.032-2.841,10.03-5.746,15.608-8.944c-2.29-2.347-4.03-4.302-5.946-6.066c-24.369-22.446-48.724-44.91-73.232-67.203
			c-1.913-1.739-4.887-2.93-7.487-3.193c-16.389-1.653-32.814-2.926-49.221-4.413c-29.334-2.658-58.661-5.403-88-8.016
			c-1.707-0.152-3.822,0.063-5.186,0.961C441.634,654.875,432.342,661.314,422.24,668.2 M509.654,183.498
			c1.158,10.932-0.531,9.234,8.286,10.918c41.187,7.867,82.412,15.526,123.619,23.287c62.953,11.856,125.901,23.738,188.854,35.597
			c6.116,1.153,12.25,2.226,18.376,3.336c0.143-0.319,0.287-0.639,0.43-0.958L711.304,144.116c-2.003,1.378-3.519,2.395-5.008,3.448
			c-11.539,8.151-25.485,3.856-32.319-7.397c-2.303-3.791-4.205-3.956-7.917-2.863c-50.32,14.827-100.683,29.507-151.029,44.246
			C513.164,182.097,511.365,182.872,509.654,183.498 M196.843,410.361c1.491,0,2.274,0.058,3.047-0.008
			c14.095-1.204,28.186-2.458,42.283-3.629c13.768-1.144,27.546-2.163,41.313-3.314c18.244-1.524,36.476-3.204,54.727-4.648
			c6.868-0.543,7.17-0.272,8.455-6.779c2.668-13.509,18.368-23.474,31.099-19.269c4.055,1.339,5.542-0.173,7.242-3.466
			c7.185-13.915,14.551-27.738,22.033-41.496c1.52-2.795,1.513-5.062,0.253-7.93c-8.907-20.287-17.645-40.649-26.467-60.974
			c-0.368-0.848-1.024-1.571-1.649-2.507c-1.418,0.803-2.587,1.405-3.696,2.102c-40.352,25.354-80.716,50.689-121.002,76.147
			c-2.596,1.641-4.957,3.966-6.796,6.442c-13.614,18.324-27.073,36.764-40.569,55.176
			C203.795,400.739,200.515,405.3,196.843,410.361 M279.833,765.293c1.217,4.26,2.902,7.867,3.127,11.564
			c0.244,4.021,1.917,5.075,5.48,5.252c10.473,0.52,20.938,1.217,31.404,1.89c18.77,1.207,37.535,2.483,56.307,3.659
			c13.126,0.822,26.262,1.486,39.389,2.291c20.102,1.234,40.202,2.508,60.3,3.805c13.455,0.868,26.901,1.866,40.359,2.676
			c4.011,0.24,8.048,0.036,13.281,0.036c-37.036-42.717-73.209-84.438-109.735-126.566
			C372.728,701.957,326.131,733.728,279.833,765.293 M398.948,401.199c-0.613,1.354-1.046,2.075-1.277,2.856
			c-2.792,9.459-8.686,15.942-18.191,18.909c-2.771,0.865-3.504,2.74-3.213,5.374c0.64,5.792,1.259,11.586,1.847,17.383
			c3.696,36.438,7.412,72.874,11.011,109.321c0.294,2.984,1.363,4.286,4.359,4.929c25.062,5.386,50.09,10.925,75.118,16.467
			c2.997,0.664,5.503,0.129,7.88-1.868c3.952-3.32,8.052-6.463,12.078-9.695c6.074-4.879,12.138-9.771,18.163-14.622
			c-0.331-1.099-0.459-1.75-0.717-2.346c-20.1-46.467-40.221-92.925-60.286-139.407c-1.054-2.443-2.568-3.555-5.236-3.767
			C426.728,403.641,412.984,402.407,398.948,401.199 M560.104,617.737c-0.045-0.061,0.281,0.54,0.754,0.98
			c13.523,12.595,27.014,25.226,40.668,37.676c1.44,1.312,3.815,1.984,5.839,2.207c8.43,0.924,16.895,1.512,25.336,2.314
			c23.34,2.22,46.672,4.505,70.01,6.729c21.019,2.003,42.045,3.927,63.061,5.966c4.518,0.438,8.669,0.681,10.353-4.902
			c0.351-1.164,1.518-2.203,2.532-3.02c2.258-1.817,2.097-3.638,0.928-6.105c-9.117-19.26-18.171-38.551-27.06-57.918
			c-1.616-3.522-3.705-4.864-7.617-4.878c-30.801-0.113-61.601-0.441-92.4-0.691c-8.493-0.067-16.986-0.112-25.479-0.137
			c-18.15-0.05-36.303-0.088-54.455-0.103c-2.275-0.002-4.504-0.35-5.521,2.848C565.104,604.83,562.67,610.802,560.104,617.737
			 M907.354,317.607c-7.108,1.504-7.402,1.795-6.851,6.777c1.354,12.245,2.73,24.488,4.104,36.732
			c3.231,28.786,6.522,57.566,9.629,86.366c0.386,3.564,1.604,5.64,5.049,7.042c9.239,3.761,15.254,15.111,11.908,24.111
			c-1.333,3.586-0.042,5.311,3.168,6.988c20.965,10.952,41.831,22.094,62.729,33.176c5.003,2.654,10.054,5.225,14.981,8.011
			c2.716,1.533,4.27,0.121,6.049-1.597c1.729-1.669,1.924-3.212,0.685-5.281c-1.881-3.143-3.508-6.435-5.276-9.645
			c-28.359-51.511-56.721-103.02-85.092-154.525C921.454,343.084,914.437,330.424,907.354,317.607 M774.533,782.925
			c1.559,0.584,2.775,1.066,4.01,1.498c6.655,2.326,6.69,2.347,11.049-3.583c40.03-54.468,80.063-108.935,120.002-163.471
			c1.372-1.872,4.941-3.723,2.364-6.71c-2.764-3.201-5.165,0.187-7.333,1.413c-32.313,18.278-64.542,36.704-96.862,54.971
			c-2.863,1.618-4.026,2.885-3.103,6.529c2.309,9.096-3.694,18.099-12.712,19.111c-3.7,0.416-4.636,1.938-5.093,5.197
			c-2.795,19.944-5.764,39.863-8.668,59.792C776.969,766.043,775.765,774.415,774.533,782.925 M868.713,271.866
			c-6.827-6.565-13.618-12.435-23.59-13.097c-5.115-0.339-10.154-1.805-15.229-2.75c-91.358-17.022-182.719-34.038-274.077-51.065
			c-13.754-2.563-27.513-5.101-41.237-7.811c-3.618-0.715-5.982-0.388-7.063,3.778c-0.553,2.134-2.018,4.304-3.656,5.827
			c-3.204,2.978-3.175,4.215,0.601,7.675c1.458,1.336,3.793,1.993,5.837,2.369c60.253,11.074,120.52,22.069,180.783,33.088
			c55.021,10.06,110.043,20.129,165.062,30.207C864.6,281.636,864.88,281.487,868.713,271.866 M576.518,799.055
			c0.059,0.358,0.118,0.719,0.177,1.077c5.257,0.269,10.518,0.486,15.771,0.812c20.25,1.254,40.5,2.519,60.747,3.825
			c13.276,0.855,26.545,1.837,39.823,2.673c12.947,0.814,25.906,1.457,38.852,2.309c3.117,0.205,4.878-0.51,5.663-3.896
			c0.698-3.011,2.047-5.972,3.63-8.646c1.375-2.323,1.245-3.838-0.74-5.582c-3.876-3.403-7.637-6.94-11.429-10.439
			c-14.314-13.205-28.676-26.359-42.881-39.681c-2.529-2.372-4.682-2.791-7.431-0.807c-0.804,0.58-1.744,0.968-2.612,1.463
			c-25.447,14.519-50.896,29.035-76.336,43.562C591.997,790.153,584.262,794.61,576.518,799.055 M773.494,676.442
			c-55.36-5.018-110.261-9.993-165.16-14.968c-0.131,0.326-0.262,0.653-0.393,0.979c6.17,5.741,12.341,11.481,18.51,17.223
			c18.153,16.897,36.384,33.715,54.386,50.771c3.165,2.999,5.487,2.92,9.043,0.888c22.976-13.134,46.076-26.05,69.125-39.057
			c5.176-2.922,10.309-5.919,15.304-8.791C774.017,680.962,773.79,678.999,773.494,676.442 M686.954,736.077
			c20.079,18.675,39.411,36.655,58.852,54.735c6.205-4.572,12.384-8.325,19.844-8.079c4.188,0.138,5.309-1.643,5.882-5.309
			c4.247-27.118,8.673-54.21,12.934-81.326c0.195-1.253-0.226-3.141-1.09-3.918c-2.546-2.288-5.461-4.165-8.444-6.36
			C745.985,702.355,716.956,718.938,686.954,736.077 M1012.011,546.938c0-4.52-0.754-8.206,0.184-11.395
			c1.285-4.366-0.629-5.828-3.929-7.602c-23.914-12.858-47.752-25.857-71.592-38.851c-7.534-4.105-7.389-4.03-13.973,1.825
			c-2.385,2.12-3.134,4.031-2.728,7.26c1.705,13.543,2.991,27.139,4.494,40.707c1.119,10.093,2.248,20.186,3.602,30.247
			c0.205,1.521,1.516,3.987,2.559,4.122c6.802,0.879,12.14,4.259,16.796,9.263C969.32,570.454,990.881,558.578,1012.011,546.938
			 M271.782,539.332c-0.135,0.283-0.27,0.565-0.405,0.849c34.833,27.483,69.666,54.968,104.049,82.096
			c5.747-3.182,10.907-6.037,16.293-9.018c0.028-0.323,0.193-0.991,0.128-1.638c-1.392-13.892-2.929-27.771-4.153-41.678
			c-0.391-4.45-2.496-5.995-6.706-6.867c-20.857-4.32-41.64-8.995-62.45-13.541C302.954,546.131,287.367,542.733,271.782,539.332
			 M467.027,214.222c-4.93-0.918-8.806-1.95-12.739-2.253c-2.29-0.176-5.049,0.205-6.951,1.381
			c-19.949,12.339-39.738,24.938-59.657,37.326c-2.716,1.689-3.104,3.328-1.881,6.111c8.166,18.581,16.22,37.211,24.345,55.81
			c0.537,1.228,1.361,2.331,2.522,4.282C430.953,282.345,448.751,248.734,467.027,214.222 M909.018,606.343
			c-0.807-2.033-1.701-3.378-1.826-4.788c-0.274-3.1-1.994-3.701-4.713-3.722c-20.469-0.15-40.938-0.362-61.406-0.655
			c-3.026-0.043-4.871,1.08-6.403,3.703c-11.418,19.543-22.97,39.01-34.454,58.514c-1.133,1.924-2.885,3.679-0.281,6.088
			c2.279,2.106,3.951,1.358,6.151,0.092c26.827-15.448,53.698-30.819,80.547-46.231C893.972,615.13,901.271,610.845,909.018,606.343
			 M782.844,661.685c3.344,0,6.321-0.582,8.938,0.141c3.58,0.989,4.983-0.483,6.607-3.246
			c11.051-18.794,22.264-37.494,33.392-56.245c0.794-1.337,1.322-2.832,2.305-4.975h-81.709
			C762.74,619.244,772.763,640.401,782.844,661.685 M249.424,528.479c0.082-0.24,0.165-0.479,0.248-0.72
			c-29.328-22.906-58.656-45.813-88.117-68.824c-1.447,1.728-2.348,2.697-3.129,3.755c-4.65,6.301-9.247,12.642-13.919,18.925
			c-1.49,2.004-0.146,3.148,0.841,4.773c2.562,4.213,6.371,8.506,6.757,13.018c0.657,7.667,4.678,9.695,11.014,10.248
			c0.824,0.073,1.635,0.308,2.448,0.486C193.52,516.252,221.472,522.365,249.424,528.479 M594.874,657.501
			c-13.622-12.582-26.487-24.464-39.247-36.25c-0.942,0.48-1.423,0.645-1.81,0.935c-18.116,13.617-37.179,12.686-53.663-2.867
			c-2.261-2.134-3.747-1.848-5.957-0.299c-8.173,5.73-16.434,11.338-24.667,16.984c-3.769,2.586-7.547,5.158-11.32,7.737
			l0.309,1.048C503.603,648.992,548.686,653.195,594.874,657.501 M489.5,586.979c-6.083-1.293-12.032-2.7-18.046-3.711
			c-1.171-0.197-2.775,0.927-3.885,1.811c-13.286,10.571-26.527,21.199-39.752,31.847c-3.057,2.461-6.006,5.057-8.328,7.019
			c1.745,5.548,3.084,10.32,4.815,14.945c0.449,1.199,2.031,2.597,3.258,2.776c5.916,0.867,11.882,1.458,17.849,1.896
			c1.546,0.113,3.435-0.269,4.697-1.118c13.946-9.393,27.793-18.931,41.685-28.403c1.736-1.183,2.521-2.451,1.51-4.587
			C490.041,602.56,488.821,595.254,489.5,586.979 M465.96,582.859l-0.314-1.149c-24.913-5.431-49.825-10.862-75.47-16.453
			c1.589,15.861,3.049,30.563,4.547,45.261c0.221,2.164,1.585,2.84,3.713,3.2c5.582,0.945,11.074,2.28,15.466,6.304
			c2.081,1.905,4.005,1.387,6.147-0.37c7.594-6.229,15.346-12.266,23.017-18.401C450.712,595.136,458.331,588.99,465.96,582.859
			 M377.193,661.286c-33.587,32.998-67.118,65.941-100.648,98.883l0.715,0.875c46.155-31.627,92.309-63.254,138.539-94.933
			c-2.698-3.029-2.752-3.133-6.032-1.438c-10.053,5.196-19.757,4.947-29.164-1.573C379.674,662.456,378.598,662.025,377.193,661.286
			 M385.467,374.606c0.681,0.797,1.046,1.352,1.53,1.77c6.082,5.259,10.82,11.252,11.288,19.746c0.143,2.584,2.271,2.385,4.102,2.54
			c7.119,0.603,14.23,1.292,21.352,1.855c6.029,0.477,12.069,0.824,19.017,1.289c-10.857-25.05-21.282-49.105-31.708-73.159
			c-0.425,0.092-0.85,0.184-1.275,0.276C401.671,344.15,393.569,359.378,385.467,374.606 M382.834,249.469
			c21.115-13.206,41.27-25.811,61.425-38.417c-0.116-0.357-0.231-0.714-0.347-1.071c-16.325-2.969-32.651-5.934-48.974-8.915
			c-2.548-0.465-3.702,0.964-4.263,3.107c-2.308,8.823-8.032,15.037-15.11,20.351c-1.045,0.784-2.08,3.035-1.685,4.046
			C376.523,235.336,379.556,241.95,382.834,249.469 M185.14,417.035c-0.156-0.413-0.313-0.826-0.47-1.239
			c-4.259,0.37-8.519,0.744-12.779,1.109c-8.932,0.764-17.864,1.541-26.799,2.273c-2.989,0.245-4.865,1.215-5.122,4.741
			c-0.174,2.393-1.658,4.663-2.211,7.067c-0.285,1.236-0.335,3.274,0.395,3.879c6.875,5.692,13.942,11.152,21.378,17.016
			C168.307,439.94,176.724,428.488,185.14,417.035 M156.983,455.31c-7.407-5.792-14.144-10.946-20.745-16.27
			c-3.541-2.856-5.36,0.639-7.81,1.805c-2.45,1.165-1.959,3.035-1.184,5.083c3.775,9.968,7.469,19.967,11.221,29.944
			c0.27,0.719,0.773,1.349,1.538,2.651C145.785,470.619,151.235,463.168,156.983,455.31 M393.006,193.565
			c-0.005,0.381-0.011,0.762-0.017,1.143c0.991,0.384,1.951,0.934,2.978,1.126c17.458,3.265,34.924,6.485,52.389,9.718
			c3.785,0.7,6.796-0.612,9.404-3.535c-0.473-1.603-0.965-3.171-1.397-4.755c-1.473-5.399-1.466-5.464-7.142-5.365
			c-17.432,0.304-34.864,0.648-52.295,1.023C395.616,192.948,394.312,193.342,393.006,193.565 M690.133,811.852
			c0.001-0.17,0.002-0.341,0.004-0.511c-40.357-2.434-80.713-4.867-121.197-7.31c0.753,7.436,1.163,7.859,7.488,7.858
			c36.262-0.004,72.523-0.024,108.786-0.038C686.854,811.851,688.492,811.852,690.133,811.852 M477.448,577.055
			c0.22,0.425,0.44,0.85,0.66,1.275c2.901,0.696,5.813,1.351,8.7,2.101c2.929,0.761,4.563-0.257,5.745-3.112
			c3.003-7.25,7.868-13.052,14.432-17.44c3.696-2.47,3.645-2.666,0.114-6.639C497.228,561.167,487.338,569.11,477.448,577.055
			 M416.522,660.947c2.154,3.049,2.198,3.115,5.61,0.817c6.218-4.187,12.388-8.444,18.55-12.713
			c0.856-0.592,1.555-1.409,2.905-2.657c-6.115-0.533-11.38-1.159-16.66-1.328c-1.234-0.039-3.048,1.176-3.685,2.319
			C420.851,651.687,418.835,656.196,416.522,660.947 M121.884,444.704c-0.486,0.104-0.973,0.209-1.459,0.313
			c0.881,7.352,1.762,14.705,2.645,22.057c1.116,9.303,1.116,9.307,10.155,11.095c0.205,0.041,0.485-0.296,0.958-0.607
			C130.097,466.645,125.99,455.675,121.884,444.704 M870.518,267.336c-0.578-3.761-0.578-3.761-4.181-3.616
			C867.603,264.815,868.709,265.772,870.518,267.336 M358.427,791.266c-0.008,0.061-0.016,0.123-0.025,0.184
			c0.941,0.069,1.882,0.139,2.822,0.208c0.007-0.131,0.014-0.262,0.021-0.392H358.427z M459.973,205.579
			c-0.519,0.453-0.905,0.701-1.141,1.05c-0.07,0.104,0.294,0.717,0.44,0.71c0.422-0.022,0.834-0.24,1.249-0.382
			C460.367,206.571,460.214,206.184,459.973,205.579 M498.365,213.14c-0.389,0.33-0.717,0.609-1.045,0.888
			c0.228,0.186,0.497,0.559,0.677,0.52c0.386-0.084,0.725-0.38,1.084-0.589L498.365,213.14z"/>
		<path fill="#F6FAFA" d="M686.158,422.738c-0.091,9.072-7.864,16.986-16.788,17.088c-9.03,0.104-17.061-8.083-16.974-17.302
			c0.086-9.052,8.003-17.013,16.797-16.891C678.852,405.767,686.252,413.228,686.158,422.738"/>
		<path fill="#F6FAFA" d="M712.182,390.903c2.312-1.687,4.623-3.374,6.936-5.062l0.089,0.1
			c-2.35,1.646-4.698,3.291-7.048,4.937L712.182,390.903z"/>
		<path fill="#F6FAFA" d="M625.161,456.881l5.02-3.971l-0.035-0.039c-1.656,1.343-3.312,2.686-4.967,4.029L625.161,456.881z"
			/>
		<path fill="#F6FAFA" d="M639.141,445.879c-1.328,0.994-2.658,1.989-3.987,2.983l0.043,0.043
			c1.328-0.996,2.656-1.992,3.983-2.987L639.141,445.879"/>
		<path fill="#F6FAFA" d="M640.193,444.901c1.328-0.996,2.655-1.992,3.983-2.989l-0.031-0.03l-3.989,2.982L640.193,444.901z"
			/>
		<path fill="#F6FAFA" d="M634.141,449.876c-1.332,0.998-2.663,1.997-3.994,2.995l0.033,0.039
			c1.334-0.998,2.668-1.995,4.004-2.992L634.141,449.876z"/>
		<path fill="#F6FAFA" d="M708.195,393.914c1.328-1.004,2.657-2.007,3.986-3.011l-0.022-0.025
			c-1.335,0.996-2.67,1.993-4.005,2.99L708.195,393.914"/>
		<path fill="#F6FAFA" d="M708.154,393.868c-1,0.665-2,1.331-3,1.996l0.047,0.053l2.994-2.003L708.154,393.868z"/>
		<path fill="#F6FAFA" d="M705.154,395.864c-1,0.666-2,1.332-3,1.998l0.042,0.042c1.002-0.662,2.003-1.325,3.005-1.987
			L705.154,395.864"/>
		<path fill="#F6FAFA" d="M701.141,398.878c-0.994,0.662-1.988,1.325-2.983,1.987l0.035,0.035
			c0.996-0.661,1.992-1.321,2.988-1.982L701.141,398.878z"/>
		<path fill="#F6FAFA" d="M697.143,401.88c-0.662,0.328-1.324,0.656-1.987,0.984l0.037,0.037
			c0.661-0.329,1.323-0.658,1.984-0.987L697.143,401.88z"/>
		<path fill="#F6FAFA" d="M656.175,406.869c-0.327-0.663-0.653-1.327-0.981-1.99l-0.036,0.037
			c0.329,0.661,0.659,1.322,0.988,1.983L656.175,406.869z"/>
		<path fill="#F6FAFA" d="M635.153,448.862c-0.337,0.338-0.676,0.676-1.013,1.014l0.042,0.042
			c0.337-0.338,0.676-0.676,1.014-1.013L635.153,448.862"/>
		<path fill="#F6FAFA" d="M639.18,445.917c0.338-0.339,0.676-0.677,1.014-1.016l-0.036-0.037l-1.017,1.014L639.18,445.917z"
			/>
		<path fill="#F6FAFA" d="M644.177,441.913c0.334-0.334,0.667-0.668,1.001-1.001l-0.03-0.031l-1.002,1.001L644.177,441.913z"
			/>
		<path fill="#F6FAFA" d="M645.178,440.912l-0.031-0.031L645.178,440.912z"/>
		<path fill="#F6FAFA" d="M657.16,407.912l0.029-0.03L657.16,407.912z"/>
		<path fill="#F6FAFA" d="M657.189,407.882c-0.338-0.338-0.676-0.675-1.014-1.013l-0.03,0.03
			c0.338,0.337,0.676,0.675,1.014,1.013L657.189,407.882z"/>
		<path fill="#F6FAFA" d="M655.193,404.879l-0.998-1.003l-0.042,0.042c0.334,0.333,0.669,0.665,1.003,0.998L655.193,404.879z
			"/>
		<path fill="#F6FAFA" d="M695.155,402.865l0.037,0.037L695.155,402.865z"/>
		<path fill="#F6FAFA" d="M653.139,402.905c0.338,0.338,0.677,0.676,1.015,1.014l0.043-0.043
			c-0.338-0.338-0.677-0.675-1.016-1.013L653.139,402.905z"/>
		<path fill="#F6FAFA" d="M698.158,400.866c-0.339,0.338-0.677,0.677-1.016,1.015l0.035,0.034
			c0.338-0.338,0.676-0.676,1.014-1.015L698.158,400.866z"/>
		<path fill="#F6FAFA" d="M701.181,398.918c0.338-0.338,0.677-0.676,1.015-1.015l-0.042-0.041
			c-0.338,0.339-0.675,0.677-1.013,1.016L701.181,398.918z"/>
		<path fill="#F6FAFA" d="M715.189,520.866c-2-4.328-4-8.655-6-12.983l-0.05,0.042c2.003,4.325,4.006,8.65,6.009,12.976
			L715.189,520.866"/>
		<path fill="#F6FAFA" d="M705.195,499.854c-0.875-1.466-1.751-2.932-2.626-4.397l1.118-0.461
			c0.487,1.633,0.975,3.266,1.462,4.898L705.195,499.854z"/>
		<path fill="#F6FAFA" d="M884.146,515.882c-1.001,1.66-2.002,3.319-3.004,4.979l0.05,0.043
			c1.002-1.66,2.003-3.32,3.004-4.98L884.146,515.882z"/>
		<path fill="#F6FAFA" d="M878.189,525.903c1.001-1.666,2.002-3.332,3.003-4.999l-0.05-0.043
			c-0.999,1.668-1.998,3.336-2.997,5.004L878.189,525.903"/>
		<path fill="#F6FAFA" d="M878.146,525.865c-0.997,1.672-1.993,3.345-2.99,5.017l0.025,0.022
			c1.003-1.667,2.006-3.334,3.009-5.001L878.146,525.865z"/>
		<path fill="#F6FAFA" d="M888.188,508.896l2.009-2.969l-0.047-0.04c-0.67,0.989-1.341,1.978-2.011,2.968L888.188,508.896z"
			/>
		<path fill="#F6FAFA" d="M887.146,510.884l-2.008,2.972l0.051,0.043c0.67-0.99,1.339-1.981,2.008-2.973L887.146,510.884"/>
		<path fill="#F6FAFA" d="M892.14,501.876c-0.333,0.659-0.667,1.318-1,1.979l0.045,0.039
			c0.333-0.658,0.665-1.317,0.998-1.975L892.14,501.876z"/>
		<path fill="#F6FAFA" d="M707.196,503.854l-1.009-1.969l-0.049,0.041c0.336,0.657,0.672,1.312,1.008,1.97
			C707.147,503.896,707.196,503.854,707.196,503.854"/>
		<path fill="#F6FAFA" d="M705.149,499.895c0.33,0.677,0.659,1.354,0.989,2.032l0.049-0.041
			c-0.331-0.678-0.661-1.354-0.992-2.031L705.149,499.895"/>
		<path fill="#F6FAFA" d="M895.144,496.881c-0.33,0.661-0.66,1.322-0.99,1.982l0.04,0.039l0.984-1.986L895.144,496.881z"/>
		<path fill="#F6FAFA" d="M701.142,490.925c0.124,0.207,0.248,0.413,0.227,0.379c0.016,0.032-0.085-0.191-0.186-0.414
			L701.142,490.925z"/>
		<path fill="#F6FAFA" d="M707.146,503.896c0.333,0.667,0.666,1.334,0.999,2.001l0.05-0.042
			c-0.333-0.667-0.666-1.334-1-2.001L707.146,503.896z"/>
		<path fill="#F6FAFA" d="M897.146,493.882c-0.329,0.661-0.658,1.322-0.988,1.983l0.034,0.034
			c0.329-0.662,0.657-1.324,0.984-1.986L897.146,493.882z"/>
		<path fill="#F6FAFA" d="M891.14,503.854c-0.33,0.677-0.66,1.354-0.99,2.032l0.047,0.04c0.33-0.679,0.659-1.355,0.989-2.033
			L891.14,503.854z"/>
		<path fill="#F6FAFA" d="M708.146,505.898c0.33,0.676,0.661,1.351,0.992,2.026l0.051-0.042
			c-0.331-0.676-0.662-1.352-0.993-2.027L708.146,505.898z"/>
		<path fill="#F6FAFA" d="M887.197,510.926c0.33-0.677,0.66-1.354,0.99-2.03l-0.05-0.042c-0.33,0.678-0.661,1.354-0.99,2.03
			L887.197,510.926"/>
		<path fill="#F6FAFA" d="M884.196,515.924c0.331-0.675,0.662-1.351,0.993-2.025l-0.051-0.043
			c-0.331,0.676-0.662,1.351-0.992,2.027L884.196,515.924"/>
		<path fill="#F6FAFA" d="M715.148,520.9c0.334,0.67,0.667,1.34,1.001,2.01l0.034-0.028
			c-0.331-0.672-0.663-1.344-0.994-2.016L715.148,520.9z"/>
		<path fill="#F6FAFA" d="M701.183,490.889c-0.333-0.667-0.667-1.333-1-2l-0.042,0.036c0.334,0.666,0.667,1.333,1.001,1.999
			L701.183,490.889z"/>
		<path fill="#F6FAFA" d="M699.143,486.924c0.333,0.667,0.666,1.334,0.999,2.001l0.041-0.035
			c-0.333-0.667-0.667-1.333-1.001-2L699.143,486.924z"/>
		<path fill="#F6FAFA" d="M699.182,486.89c-0.333-0.667-0.666-1.335-0.998-2.002l-0.042,0.036
			c0.334,0.666,0.667,1.333,1.001,2L699.182,486.89z"/>
		<path fill="#F6FAFA" d="M698.183,484.888c-0.116-0.21-0.232-0.419-0.215-0.387c-0.013-0.03,0.08,0.196,0.173,0.422
			L698.183,484.888z"/>
		<path fill="#F6FAFA" d="M898.156,492.863c-0.337,0.339-0.674,0.68-1.011,1.019l0.03,0.031
			c0.34-0.338,0.679-0.675,1.018-1.013L898.156,492.863"/>
		<path fill="#F6FAFA" d="M896.158,495.865c-0.339,0.339-0.677,0.677-1.015,1.016c0-0.001,0.034,0.034,0.034,0.034
			c0.338-0.339,0.676-0.677,1.014-1.016L896.158,495.865"/>
		<path fill="#F6FAFA" d="M894.153,498.863l0.04,0.04L894.153,498.863z"/>
		<path fill="#F6FAFA" d="M892.183,501.919l-0.043-0.043L892.183,501.919z"/>
</g>
</svg>
