<svg xmlns="http://www.w3.org/2000/svg" xmlns:xlink="http://www.w3.org/1999/xlink" width="1381.28" height="976.67" viewBox="0 0 1381.28 976.67">
  <defs>
    <g id="net">
      <path d="M1374 4.28c-4.796 18.657-19.77 27.904-39.805 23.996l-101.543 254.01c13.27 8.748 17.527 18.345 13.485 29.77-4.294 12.14-14.482 17.197-31.475 15.25L1068.32 693.408c9.396 5.56 14.563 13.187 12.062 24.138-1.927 8.43-7.548 13.67-16.11 15.072-9.91 1.622-17.013-2.917-22.408-11.788-35.127 15.36-70.254 30.724-105.294 46.047 3.72 19.4-1.238 31.82-14.908 37.972-13.75 6.186-26.19 1.475-38.27-14.695-13.467 5.892-27.01 11.815-40.553 17.738-124.597 54.5-249.19 108.997-373.774 163.522-1.768.773-3.382 1.9-5.067 2.862h-2c.27-3.625 3.602-3.62 5.826-4.595 136.548-59.79 273.127-119.505 409.702-179.232 1.922-.84 3.822-1.733 5.402-2.45l-1.188-10.797c-34.825-3.665-69.526-7.32-104.076-10.956-7.045 20.254-18.17 29.78-35.133 30.423-7.18.27-13.86-1.497-19.96-5.34-8.716-5.488-13.92-13.445-15.945-23.513-2.73.385-5.04.69-7.344 1.038-45.296 6.82-90.59 13.653-135.886 20.47-63.085 9.492-126.164 19.03-189.276 28.35-4.868.72-6.88 2.623-8.058 7.378-10.038 40.562-20.39 81.05-30.576 121.577-2.308 9.18-4.335 18.43-6.49 27.647h-4c.298-1.793.465-3.62.916-5.373 12.312-47.885 24.654-95.76 36.98-143.642.443-1.714.775-3.455 1.33-5.963-72.693 10.946-144.685 21.79-216.812 32.65.327 16.365-5.06 30.04-14.922 42.41 1.822 1.5 3.333 2.755 4.857 3.994 28.954 23.542 57.928 47.06 86.82 70.68 1.622 1.324 2.568 3.476 3.83 5.242h-5c-30.98-25.004-61.96-50.007-92.95-74.995-.365-.292-.893-.38-1.47-.615-1.247 1.097-2.466 2.22-3.737 3.28-17.226 14.38-36.878 20.232-59.092 16.312-31.53-5.564-51.264-33.98-45.607-65.347.257-1.42.497-2.84.8-4.575l-13.943-3.062v-5c5.2.8 10.4 1.6 15.03 2.31l15.8-23.976c-9.553-9.056-19.305-18.312-29.087-27.535-.44-.416-1.157-.54-1.744-.8v-7c1.495.888 3.2 1.546 4.452 2.698 5.632 5.177 11.134 10.497 16.688 15.76 4.8 4.55 9.61 9.093 13.6 12.868 11.126-5.137 21.51-9.933 32.173-14.855L60.73 692.186 7 696.28v-4c13.444-.806 26.89-1.595 40.333-2.423 4.12-.254 8.23-.613 13.006-.974-3.895-31.82-7.733-63.196-11.57-94.572-.656-.38-1.31-.76-1.964-1.142-.838 1.435-1.442 3.09-2.55 4.27-10.952 11.645-21.966 23.23-33.03 34.77-1.188 1.236-2.81 2.058-4.228 3.072v-4c.547-.367 1.184-.646 1.63-1.11 12.547-13.082 25.136-26.127 37.51-39.375 1.2-1.287 1.633-3.913 1.42-5.805-2.055-18.168-4.31-36.313-6.543-54.462-.498-4.046-1.13-8.075-1.714-12.2-12.237.063-22.915-3-32.303-10.05v-66l22.087-9.146-7.24-58.854H7v-3h14.515l-9.186-75H7v-95c1.408.388 2.798 1.018 4.227 1.128 18.993 1.45 33.757 10.02 43.346 26.534 3.023 5.206 4.57 11.267 6.9 17.207.976.047 2.294.157 3.613.167 92.82.674 185.64 1.316 278.46 2.086 3.835.03 6.537-1.165 9.25-3.735 15.245-14.44 30.63-28.73 45.97-43.068 5.71-5.34 11.423-10.676 16.882-15.778l-5.72-15.62c-12.328-1.22-25.39-2.517-38.454-3.8-25.364-2.49-50.728-4.96-76.09-7.453-28.846-2.833-57.688-5.687-86.532-8.517-25.364-2.487-50.73-4.944-76.094-7.433-29.01-2.847-58.023-5.68-87.028-8.587-12.918-1.294-25.82-2.75-38.73-4.132v-2c1.825.155 3.652.288 5.475.47 32.47 3.242 64.937 6.492 97.406 9.735 27.834 2.78 55.666 5.55 83.497 8.33 31.973 3.195 63.945 6.4 95.918 9.596 28.493 2.847 56.987 5.695 85.48 8.534 11.906 1.186 23.814 2.35 35.62 3.512.47-.684.85-1.045 1-1.483 2.796-8.2 7.544-14.22 16.722-15.747.894-.15 2.13-2.148 2.11-3.27-.176-10.296-.594-20.59-.946-31.016-1.024-.226-1.64-.337-2.245-.5-12.76-3.44-17.867-14.87-14.125-24.868 1.446-3.863.66-5.49-2.138-7.8-30.32-25.01-60.554-50.124-90.78-75.25-1.482-1.232-2.668-2.82-3.992-4.244h3c1.11 1.19 2.108 2.513 3.348 3.547 30.19 25.185 60.403 50.34 90.623 75.49.996.826 2.106 1.512 2.75 1.97l12.218-5.717L425 4.28h2l2.728 75.738c7.602 1.734 13.334 4.894 16.697 11.87 3.43 7.118 1.116 13.404-2.126 19.525 15.443 15.035 30.453 29.644 45.45 44.243 1.73-.847 3.01-1.647 4.398-2.122 9.315-3.185 17.278-.454 21.347 8.037 1.564 3.265 3.003 4.108 6.22 3.898 14.627-.96 29.264-1.756 43.896-2.635 2.784-.168 5.56-.446 7.165-.577l5.82-12.04c-.085-.135-.418-.71-.804-1.25-20.532-28.527-41.042-57.07-61.64-85.55-2.43-3.36-5.196-6.516-8.07-9.512C493.773 39 479.366 24.196 465.035 9.316c-1.486-1.543-2.697-3.35-4.036-5.034h8l14.872 16.223.742-.683L474 4.282h3c.043.478-.092 1.09.154 1.415 9.032 11.937 17.12 24.77 27.338 35.594 36.122 38.27 73.027 75.804 109.462 113.78 3.358 3.5 6.61 4.695 11.32 4.4 36.23-2.257 72.477-4.282 108.717-6.404 23.774-1.392 47.54-2.863 71.317-4.196 3.03-.17 5.256-1.256 7.42-3.376 20.464-20.048 41.022-39.997 61.545-59.984 1.16-1.13 2.232-2.35 3.535-3.725-1.52-1.594-2.762-2.917-4.023-4.222-22.11-22.87-44.233-45.73-66.31-68.63C806.14 7.55 805.15 5.84 804 4.283h3c.818 1.187 1.49 2.517 2.478 3.542 22.276 23.108 44.586 46.185 66.903 69.253.993 1.026 2.13 1.913 3.09 2.767.653-.335 1.008-.424 1.233-.644 24.204-23.535 48.413-47.065 72.536-70.684 1.004-.984 1.19-2.803 1.76-4.233h9c-.918 1.47-1.54 3.305-2.81 4.345-3.493 2.858-4.664 6.443-5.24 10.815-2.974 22.62-6.264 45.196-9.42 67.792-1.794 12.836-3.54 25.68-5.21 37.816 3.584 2.67 7.14 4.57 9.632 7.407 2.002 2.276 3.386 2.888 6.214 1.895 90.035-31.605 180.09-63.15 270.173-94.62 2.883-1.007 4.21-2.543 4.915-5.472 2.424-10.03 5.142-19.99 7.746-29.976h5l-8.127 31.398c1.3-.1 1.82-.035 2.26-.19 25.1-8.747 50.18-17.548 75.3-26.227 2.76-.953 3.004-2.658 2.567-4.98h57zM431.686 666.216c-.193-.035.443.14 1.088.188 22.763 1.632 45.524 3.282 68.29 4.868 45.033 3.137 90.07 6.203 135.103 9.363 53.34 3.742 106.67 7.578 160.02 11.22 1.81.123 4.232-.926 5.517-2.255 5.32-5.508 10.317-11.33 15.427-17.043 8.548-9.55 17.09-19.103 25.89-28.943-49.03-79.52-97.95-158.868-146.48-237.578-4.367.486-8.04 1.634-11.432 1.072-3.572-.592-6.872-2.817-10.594-4.463-83.204 81.814-166.59 163.805-249.59 245.42 2.234 6 4.32 11.598 6.763 18.152M698.053 404.01c49.27 79.285 98.124 157.896 147.593 237.5 1.196-1.716 1.77-2.754 2.545-3.617 51.46-57.486 102.93-114.966 154.45-172.398 1.87-2.083 2.306-3.95 1.7-6.716-5.34-24.4-10.493-48.84-15.716-73.263-1.838-8.598-3.712-17.187-5.6-25.916-15.388.048-25.774-6.72-30.516-21.147l-246.082 47.584c-.47 7.276-2.316 13.5-8.372 17.972m532.032-361.535c-2.3.696-3.71 1.07-5.088 1.546-88.597 30.645-177.184 61.318-265.812 91.87-3.663 1.264-5.442 2.68-5.134 6.925.473 6.493-2.375 11.67-8.45 14.41-2.94 1.324-2.81 3.18-2.27 5.638 7.22 33.017 14.477 66.026 21.516 99.08.724 3.404 2.27 4.22 5.348 4.366 11.815.56 23.62 1.322 35.428 1.995 43.08 2.454 86.158 4.9 129.236 7.358 2.623.15 5.243.372 7.887.562 4.806-17.436 16.273-25.394 33.867-25.005l53.473-208.744M197.11 460.912l145.42 141.91c1.1-.912 1.768-1.392 2.35-1.96 21.257-20.687 42.54-41.35 63.678-62.158 1.464-1.44 2.485-3.95 2.615-6.032 1.642-26.273 3.097-52.56 4.567-78.842 1.154-20.63 2.214-41.263 3.442-61.887.187-3.145-.67-4.668-3.863-5.67-7.23-2.266-12-7.26-14.21-14.603-.418-1.38-1.056-2.693-1.656-4.2l-158.73 3.486c-1.382 12.178-12.904 21.188-24.853 17.575-2.08-.627-3.29.61-4.18 2.555-6.644 14.528-13.38 29.014-20.055 43.447 11.103 9.888 12.307 15.502 5.475 26.382m-49.464 385.402c5.07-.722 10.168-1.417 15.256-2.176 66.19-9.88 132.376-19.802 198.586-29.552 3.464-.512 4.764-1.923 5.537-5.074 3.09-12.61 6.39-25.167 9.63-37.74 6.687-25.952 13.375-51.904 20.09-77.848.61-2.357 1.222-4.338-1.896-5.672-8.23-3.52-12.88-9.955-14.315-19.197-1.29 0-2.574-.07-3.847.012-7.314.474-14.646.772-21.93 1.53-11.37 1.184-22.913.72-34.028 4.516-4.095 1.398-9.04 1.684-13.31.904-9.376-1.712-18.563-.4-27.837.132-2.83.162-5 1.018-7.023 3.065-5.266 5.33-10.753 10.44-16.124 15.67-38.076 37.066-76.15 74.134-114.207 111.22-3.434 3.348-6.735 6.83-9.765 9.913 3.163 4.826 6.585 9.15 8.998 13.976 2.503 5.007 4.03 10.5 6.182 16.318m858.938-376.6l-1.186-.326c-52.492 58.62-104.985 117.238-157.46 175.837l19.645 31.546c9.11-4.885 17.698-4.206 25.887.588 8.266 4.84 12.423 12.45 13.096 22.342l134.03 9.45c2.33-5.65 4.58-10.9 10.09-13.576 3.338-1.623 3.5-3.84 2.764-7.25-13.6-63.14-27.05-126.315-40.542-189.48-2.076-9.716-4.215-19.42-6.324-29.13m-369.916-113.55c-10.752.492-21.226.854-31.677 1.565-1.744.117-3.696 1.435-5.032 2.735-61.26 59.59-122.453 119.247-183.703 178.847-2.165 2.107-3.267 4.256-3.422 7.348-1.075 21.462-2.36 42.912-3.533 64.368-.492 8.98-.86 17.97-1.322 26.952-.1 1.928-.08 3.617 2.228 4.372 4.127 1.35 8.207 2.84 12.63 4.385 83.208-81.763 166.732-163.84 250.552-246.206-6.013-8.56-5.37-16.776 1.537-24.605l-3.576-4.162c-13.24 8.318-30.69 2.797-34.683-15.6m-267.5 457.203c112.917-16.823 224.795-33.494 336.614-50.154l1.16-10.448-277.056-79.633c-5.903 12.92-15.828 18.64-29.683 17.39l-31.034 122.846M233.39 356.226c36.15-33.8 72.072-67.394 107.995-100.986l-.526-1.07-279.893-1.878c-.774 10.162-3.862 18.976-10.173 26.51-6.328 7.556-14.532 12.318-24.358 15.533l61.643 60.15c20.1-12.14 38.977-.695 42.836 16.345 23.157-.463 46.41-.93 69.577-1.392 3.432-16.19 15.348-20.95 32.897-13.21m42.7 262.26c-54.248-31.64-108.02-63.008-162.48-94.772-.995 1.377-1.666 2.564-2.577 3.525C93.143 546.106 75.28 565 57.246 583.725c-2.616 2.717-3.238 5.305-2.777 8.915 3.02 23.627 5.822 47.282 8.716 70.927 1.006 8.212 2.07 16.417 3.143 24.918 7.703-.518 14.833-.972 21.96-1.48 35.233-2.507 70.464-5.04 105.7-7.54 24.264-1.726 48.532-3.4 72.795-5.158 1.265-.092 2.804-.405 3.678-1.204 3.412-3.118 6.608-6.473 10.09-9.944-11.387-13.856-11.937-28.73-4.465-44.67m884.547-304.87c-4.9.504-8.675 1.09-12.467 1.23-3.64.137-6.133 1.767-8.43 4.48-4.95 5.844-10.158 11.47-15.27 17.18-37.453 41.82-74.888 83.66-112.418 125.41-2.245 2.495-2.857 4.63-2.125 7.98 14.68 67.193 29.207 134.42 43.772 201.64 1.503 6.94 3.043 13.873 4.6 20.965 2.205-.14 3.812-.238 5.485-.343l96.852-378.543m69.903-31.415c33.93-84.864 67.78-169.54 101.88-254.828-7.634-2.68-11.255-8.818-14.65-15.32-2.04.646-3.77 1.15-5.47 1.738-23.76 8.21-47.488 16.522-71.31 24.557-3.94 1.33-5.796 3.39-6.818 7.392-15.216 59.54-30.59 119.042-45.915 178.555-2.356 9.15-4.674 18.307-7.062 27.67 8.074 3.15 14.108 8.096 17.66 15.756 3.546 7.64 2.83 15.478.747 23.375 1.568.673 2.78 1.2 4.003 1.7.118.05.312-.09.47-.145 6.563-8.545 15.048-12.36 26.464-10.45m-786.77 81.63c15.396-.8 30.358-1.578 45.32-2.35 29.94-1.547 59.868-3.88 89.82-4.272 13.418-.176 23.056-4.546 31.3-14.482 5.934-7.15 12.63-13.67 19.21-20.71.06.087-.36-.62-.882-1.24-17.476-20.777-35.008-41.51-52.387-62.367-2.14-2.567-4.553-2.843-7.47-2.86-44.807-.255-89.613-.56-134.42-.853-1.767-.013-3.535-.003-5.726-.003l-4.82 90.334c10.808 2.088 16.99 8.52 20.057 18.805m-22.04-18.793l4.94-90.438c-2.573 0-4.37.007-6.164 0-23.33-.106-46.66-.13-69.985-.405-3.833-.047-6.513 1.184-9.235 3.752-34.186 32.24-68.463 64.382-102.73 96.538-1.202 1.13-2.525 2.13-3.696 3.11 1.31 2.394 2.75 4.142 3.26 6.13 1.09 4.258 3.72 4.938 7.686 4.85 43.48-.98 86.96-1.816 130.444-2.63 7.806-.147 15.615-.022 23.508-.022 2.313-12.658 9.263-19.547 21.97-20.885M66.652 691.796l13.115 107.652c3.684 0 6.506.017 9.327-.003 12.543-.083 24.168 3.16 34.463 10.31 3.128 2.17 4.776 2.03 7.454-.587 43.707-42.716 87.52-85.32 131.303-127.957 1.014-.987 1.916-2.09 3.715-4.07-67.005 4.926-132.808 9.76-199.376 14.656m526.23-332.37l-.525-1.09L443.43 365.9c-.32 14.73-9.226 20.35-22.058 22.095l-7.737 144.34 1.246.38 178-173.288m358.93-26.988c1.404-11.545 6.467-19.95 16.73-24.575 2.823-1.274 2.965-2.986 2.386-5.547-1.84-8.12-3.52-16.277-5.293-24.412-1.524-6.99-1.546-6.955-8.505-7.336-45.09-2.47-90.184-4.908-135.267-7.513-3.664-.212-6.206.676-8.82 3.267-22.125 21.947-44.39 43.755-66.605 65.614-1.163 1.145-2.24 2.377-3.035 3.225 1.566 3.034 3.453 5.51 4.13 8.28.908 3.725 2.938 4.128 6.18 3.87 18.768-1.495 37.547-2.84 56.324-4.24 34.56-2.573 69.12-5.142 103.68-7.726 12.61-.943 25.216-1.924 38.097-2.91M339.576 605.362l1.013-1.007-145.425-141.888c-7.588 4.595-14.993 5.16-22.366-.165l-54.458 57.296 160.943 94.044c17.098-20.054 42.007-20.386 60.292-8.28M35.125 432.94c43.816 3.26 56.777 37.545 43.064 63.194l37.66 22 54.616-57.082c-1.148-2.29-2.042-4.062-2.924-5.84-2.186-4.4-1.965-8.944.828-12.71 2.513-3.39 1.184-5.11-1.215-7.424-12.595-12.147-25.123-24.364-37.585-36.648-2.355-2.32-4.303-5.055-6.215-7.332-19.7 11.607-39.39 3.72-43.824-16.457H28.02l7.105 58.3M921.453 144.53c-2.022 0-4.177-.108-6.318.017-31.747 1.844-63.49 3.76-95.242 5.525-3.07.17-5.227 1.26-7.38 3.37-19.4 18.982-38.903 37.86-58.362 56.78-3.523 3.428-6.993 6.913-10.566 10.448 8.08 9.797 11.896 20.61 12.55 32.93 1.97.21 3.75.472 5.54.578 17.454 1.03 34.915 1.926 52.355 3.128 3.715.255 6.18-.92 8.745-3.457 32.826-32.41 65.74-64.728 98.675-97.026 1.293-1.267 3.01-2.107 4.03-2.805-1.69-3.975-2.826-6.656-4.027-9.487m-480.827 524.95l-.213.978 267.998 77.658c5-11.428 12.915-18.817 24.17-22.248 11.33-3.453 21.76-.602 31.65 5.758l32.424-36.267-356.027-25.88m631.332 6.53l.874.224c.726-1.653 1.5-3.29 2.17-4.964 39.937-99.875 79.868-199.752 119.796-299.63 5.5-13.76 10.975-27.533 16.48-41.29.808-2.022 2.094-4.122-.594-5.66-5.88-3.36-8.365-8.997-10.29-15.33-1.86.14-3.668.226-5.466.42-8.11.874-16.203 2.046-24.337 2.56-4.114.26-5.6 1.95-6.58 5.77-30.3 117.893-60.718 235.756-91.107 353.626-.364 1.414-.634 2.85-.948 4.276m-65.52-345.637c-.118 1.49-.168 2.46-.276 3.42-1.204 10.698-6.594 18.68-16.294 23.175-3.14 1.455-3.85 2.497-3.13 5.775 6.655 30.222 13.13 60.486 19.674 90.734.365 1.688.89 3.342 1.592 5.954 42.887-47.892 85.07-95 127.254-142.105l-.77-.932-128.05 13.98m-80.114-175.324l-103.32 101.59c.13.354.258.708.386 1.06 46.374 2.68 92.75 5.358 139.574 8.063-.597-2.947-.975-4.898-1.39-6.843-6.51-30.587-13.187-61.14-19.388-91.79-1.11-5.488-3.08-8.343-8.766-8.886-2.31-.22-4.478-1.963-7.096-3.194m-358.156 94.02l-57.114-67.84c-10.185 5.09-22.112 1.614-25.14-9.337-.568-2.057-2.02-2.64-4.178-2.48-6.973.517-13.962.795-20.942 1.227-2.102.13-4.192.462-6.512.727-.852 14.246-9.05 20.933-22.476 22.32l-2.936 55.38h139.298zm573.538 31.893l-174.8-9.75 7.477 34.1c16.264-.438 27.05 6.286 31.455 21.964 1.31-.08 2.468-.102 3.613-.23 19.845-2.23 39.69-4.46 59.53-6.72 22.483-2.56 44.97-5.123 67.444-7.768 1.555-.183 3.416-.662 4.465-1.688 3.17-3.1 6.01-6.54 8.76-9.6-1.984-3.57-4.015-6.457-5.247-9.652-1.28-3.317-1.79-6.93-2.696-10.657m-335.99-128.72c-.15-.44-.302-.88-.45-1.32-61.208 3.52-122.416 7.04-184.866 10.635l51.913 53.718c17.974-14.337 45.068-17.927 67.633.99 21.907-21.324 43.838-42.675 65.77-64.025m6.906 111.47c-.12-.38-.237-.763-.357-1.145l-56.354-3.18c-3.284 20.146-13.602 34.688-32.62 41.765-19.003 7.07-36.297 2.574-52.02-10.14-8.207 8.02-16.205 15.763-24.077 23.634-.766.767-1.314 2.498-1 3.47 1.664 5.18 3.636 10.26 5.565 15.55 14.528-1.86 24.363 3.213 27.937 17.996l24.262-1.318c.243-9.764 5.008-16.507 13.276-20.216 8.464-3.797 16.74-1.977 24.31 3.438 23.837-23.426 47.458-46.64 71.08-69.852m-239.057-99.5c-18.893 1.11-37.45 2.2-55.154 3.238l-5.348 13.044c.048.098.14.44.345.683 18.686 22.146 37.342 44.317 56.167 66.344 1.188 1.39 3.658 2.24 5.583 2.34 6.482.34 12.985.25 19.48.276 7.966.03 15.932.007 24.612.007L593.31 178.19c-10.435.986-16.836-4.238-19.743-13.98M853.58 699.496c-16.352-1.172-32.756-2.41-49.174-3.41-1.314-.08-3.016 1.207-4.05 2.313-5.22 5.6-10.297 11.333-15.393 17.05-5.728 6.43-11.42 12.89-16.66 18.803 3.366 6.326 6.45 12.126 9.7 18.232l113.472-16.862c-1.488-3.84-2.66-6.87-3.802-9.815-14.334 3.253-33.09-4.123-34.093-26.312M883.462 84.4l43.655 45.19 11.89-4.242 14.776-107.985-.92-.538-69.4 67.575M124.918 390.448l46.635 45.51 18.26-3.368c6.63-14.27 13.833-29.768 21.074-45.348-5.296-4.072-9.458-8.613-10.14-15.415-23.348.52-46.253 1.028-68.32 1.52l-7.51 17.1m543.43-170.81c-1.31-1.43-2.39-2.67-3.53-3.848-15.85-16.39-31.864-32.62-47.447-49.257-3.89-4.154-7.71-5.07-12.966-3.64-.3 6.59-3.11 11.65-9.377 14.455 8.55 23.607 16.954 46.894 25.483 70.137.42 1.142 1.908 2.675 2.923 2.694 10.444.2 20.893.122 31.63.122 1.613-11.55 5.264-21.992 13.283-30.665M388.46 647.66c3.976-1.8 7.596-4.362 11.518-4.967 4.273-.657 5.5-2.306 5.7-6.276 1.474-29.096 3.107-58.183 4.654-87.274.052-.992-.278-2.004-.512-3.552l-63.006 61.406 41.645 40.666m537.27-516.39c-14.4-14.88-29.038-30.008-43.856-45.323l-62.77 61.142.62.908 101.547-5.925c1.58-3.825 2.95-7.144 4.458-10.803M701.184 376.56c2.718 3.285 3.045 7.762 9.616 6.445 69.063-13.844 138.225-27.193 207.355-40.693 10.104-1.973 20.192-4.023 30.287-6.037-.04-.242-.08-.483-.122-.725l-198.88 14.322c-.604 10.156-4.955 17.664-13.835 21.75-9.127 4.196-17.622 1.49-25.31-4.256-3.23 3.26-6.032 6.09-9.11 9.195M18.478 296.23l9.162 75.218c16.858 0 33.15.036 49.44-.088 1.003-.007 2.5-1.057 2.91-1.996 1.873-4.287 3.44-8.708 5.395-13.806.325.433-.004-.148-.463-.597-19.766-19.306-39.568-38.577-59.287-57.932-2.163-2.123-4.217-2.192-7.157-.8m56.876 205.175c-4.983 3.773-9.186 7.668-14.034 10.427-4.82 2.743-10.288 4.347-15.782 6.575 2.575 21.143 5.16 42.366 7.912 64.944l58.177-60.8c-12.75-7.434-24.782-14.448-36.273-21.15m351.68-252.973l3.048-54.942c-4.807-2.346-8.88-4.334-13.205-6.443-21.27 19.984-42.778 40.19-64.285 60.394l.585.99h73.858zm614.078 470.47c-.17-.532-.338-1.064-.506-1.598L896.82 739.035l4.88 12.423c14.96-3.37 25.917 1.414 33.808 13.652 35.432-15.505 70.518-30.858 105.604-46.214m-4.02-4.86c-.043-.425-.088-.85-.132-1.272-43.42-3.14-86.84-6.28-130.4-9.432-1.634 7.26-4.562 13.16-10.163 17.537-5.155 4.03-5.098 4.13-2.55 10.408.482 1.19 1.126 2.316 1.823 3.733 47.287-7.01 94.355-13.99 141.422-20.973m-258.99 47.583c1.347.26 2.464.555 3.6.682 17.713 1.98 35.428 3.94 53.146 5.896 14.57 1.608 29.14 3.2 43.713 4.792 1.956.214 3.904.85 4.68-2.112 2.14-8.15 7.703-13.673 14.77-18.203l-5.048-13.064c-38.672 5.853-76.8 11.62-115.106 17.416.1 1.92.17 3.193.248 4.595M576.537 255.93l56.12 66.408c2.222-2.79 3.72-5.29 5.804-7.127 2.527-2.225 2.866-4.255 1.7-7.39-5.86-15.75-11.597-31.547-17.074-47.43-1.22-3.543-3.042-4.46-6.516-4.44-11.486.07-22.973-.17-34.46-.268-1.446-.012-2.893.126-5.573.25M431.41 117.44c.006-.023-.264.446-.25.906.306 9.817.53 19.64 1.117 29.44.076 1.262 1.91 3.243 3.19 3.477 10.147 1.862 15.678 8.277 18.343 18.142 10.315-.623 20.56-1.24 30.568-1.846l3.84-10.91c-14.96-14.567-30.072-29.277-44.935-43.747l-11.874 4.538M852.473 695.89c3.947-6.31 7.553-12.07 11.473-18.33l-18.344-29.73-40.043 44.75 46.915 3.31M655.025 256.56h-31.277c6.55 18.048 12.89 35.51 19.374 53.377L666.24 285.1c-6.215-7.168-9.637-17.365-11.216-28.543M580.39 149.4c12.586-3.734 16.572-2.23 23.216 9.04 1.86 3.154 3.865 1.737 7.204 1.538l-82.875-85.613-.918.814c17.746 24.68 35.493 49.36 53.372 74.22M345.382 609.014l-1.393.883c8.444 10.32 11.463 21.964 8.757 35.14 10.704 3.095 21.007 6.07 31.354 9.06l2.88-4.495c-13.987-13.65-27.79-27.12-41.595-40.588M708.338 365.1l-5.343-12.387-22.08 1.2-7.006 17.195 2.756 3.116c7.674-4.822 15.277-4.36 22.65.41l9.02-9.534m-74.54-38.007c-9.122 9.753-17.792 19.024-26.46 28.29l28.284-1.46c2.592-5.853 4.81-10.86 7.17-16.193l-8.993-10.637m-296.89 342.272c12.854-.942 25.6-1.893 38.35-2.806 6.01-.43 6.647-1.307 5.114-7.674-9.7-2.773-19.53-5.58-28.385-8.112-5.312 6.55-10.057 12.403-15.076 18.59m312.75-334.95c-2.01-5.54-3.878-10.682-5.9-16.253-3.04 2.97-5.454 5.323-8.017 7.82l9.59 11.355c1.44-.974 2.63-1.776 4.325-2.92m548.36-39.142l-12.69 11.867c4.783-.553 9.508-1.102 14.463-1.676l1.783-8.75c-1.586-.64-2.78-1.126-3.555-1.44m-44.61 8.884c-1.913 2.206-3.694 4.262-5.474 6.317l.753.862c4.308-.56 8.617-1.117 12.925-1.675l.158-1.11-8.362-4.394m-873.52 368.417l.446.874 10.956-1.02c.02-.295.042-.588.064-.88-2.146-1.407-4.292-2.813-5.926-3.88l-5.54 4.904"/>
      <path d="M128 974.28c-1.273-.675-2.488-1.504-3.826-2.003-37.466-13.987-74.942-27.948-112.43-41.875-1.512-.562-3.16-.756-4.744-1.122v-3c39.317 14.656 78.636 29.305 117.942 43.99 2.07.77 4.8.882 5.058 4.01h-2z"/>
    </g>
  </defs>
  <rect fill="#F4F6F6" width="100%" height="100%"/>
  <use xlink:href="#net" fill="#F9FAFA" transform="scale(-1,1), translate(-1400)"/>
</svg>
