<svg xmlns="http://www.w3.org/2000/svg" width="1707" height="976.67" viewBox="0 0 1707 976.67">
  <defs>
    <linearGradient id="grad1" x1="0%" y1="0%" x2="0%" y2="100%">
      <stop offset="75%" style="stop-color:#F4F6F6;stop-opacity:0" />
      <stop offset="100%" style="stop-color:#F4F6F6;stop-opacity:1" />
    </linearGradient>
  </defs>
  <rect fill="#F4F6F6" width="100%" height="100%"/>
  <path fill="#F6FAFA" d="M128 976.67c-1.273-.675-2.488-1.504-3.826-2.003-37.466-13.987-74.942-27.948-112.43-41.875-1.512-.562-3.16-.756-4.744-1.122v-3c39.317 14.656 78.636 29.305 117.942 43.99 2.07.77 4.8.882 5.058 4.01h-2zm1579-19.945c-11.672 5.362-23.355 10.703-35.007 16.11-1.737.805-3.332 1.92-4.993 2.89h-7c.895-1.087 1.566-2.668 2.718-3.184 14.067-6.316 28.2-12.485 42.334-18.654.565-.247 1.295-.115 1.948-.16v3zM-1 758.39v-5c1.298 1.255 2.745 2.39 3.87 3.783 6.79 8.41 13.504 16.88 20.327 25.436 7.987-4.88 16.228-7.654 25.366-8.148 9.3-.503 17.878 1.882 26.225 5.524l253.518-317.48c-9.666-10.592-9.4-21.362-1.79-32.403l-65.857-64.936c-11.46 7.974-23.606 10.06-36.37 4.895-12.997-5.26-20.28-15.174-21.684-29.366-1.196-.063-2.175-.147-3.154-.163-20.495-.342-40.99-.692-61.486-1.01-46.32-.72-92.644-1.423-138.966-2.133v-3l203.958 3.517c-.11-8.546 4.504-14.677 8.662-20.948-.652-.694-1.092-1.19-1.564-1.657-69.162-68.176-138.326-136.35-207.516-204.5-1-.985-2.352-1.616-3.54-2.412v-4c1.404 1.145 2.91 2.186 4.197 3.448 10.587 10.383 21.135 20.806 31.694 31.218 58.494 57.67 117 115.328 175.427 173.066 2.53 2.502 4.07 2.872 7.458.968 4.644-2.608 9.99-4.672 15.246-5.347 13.506-1.734 29.494 6.506 35.406 20.457 1.33 3.143 2.294 6.442 3.36 9.482h89.012c2.13-10.346 6.396-18.34 16.484-22.27 9.903-3.856 18.66-1.66 25.498 3.08 44.964-44.562 89.417-88.617 133.95-132.754-.51-.57-1.03-1.22-1.62-1.798-44.116-43.06-88.215-86.14-132.433-129.094-1.74-1.69-4.527-2.84-6.972-3.177-35.795-4.925-71.617-9.645-107.427-14.458-40.926-5.502-81.843-11.07-122.77-16.568C124.744 15.167 83.972 9.76 43.214 4.246 41.752 4.048 40.402 3.028 39 2.39h14c1.39.42 2.75 1.032 4.17 1.227 27.7 3.804 55.406 7.56 83.11 11.325 38.096 5.18 76.19 10.363 114.287 15.534C292.993 35.692 331.42 40.9 369.847 46.1c8.707 1.177 17.42 2.314 26.128 3.47-.732-2.06-1.95-3.33-3.208-4.56-12.867-12.564-25.757-25.106-38.595-37.7-1.528-1.5-2.788-3.273-4.172-4.92h8c16.036 15.746 32.04 31.523 48.168 47.174 1.183 1.148 3.188 1.722 4.902 2 6.57 1.065 13.172 1.923 19.767 2.818 53.756 7.293 107.513 14.583 161.27 21.858 7.195.974 14.4 1.857 21.554 2.777 3.626-13.94 11.87-21.94 26.213-22.862V9.795c-6.07-.637-10.323-2.97-13.872-7.405h34c.663.745 1.286 1.53 1.99 2.23 18.55 18.397 37.104 36.785 55.667 55.165.686.68 1.47 1.257 2.095 1.785.59-.173.964-.18 1.198-.366 11.797-9.352 28.556-4.485 33.012 10.325 1.07 3.55 3.25 3.166 5.72 3 16.93-1.14 33.86-2.3 50.786-3.477 8.1-.562 16.195-1.175 22.907-1.664l8.657-17.054L808 2.39h3c.697 1.45 1.237 3.002 2.118 4.33 3.218 4.843 6.548 9.613 9.84 14.41 6.297 9.18 12.688 18.3 18.837 27.58 1.715 2.588 3.1 2.97 6.045 1.783 3.306-1.332 7.067-1.536 10.988-2.3.71-14.95 1.44-30.376 2.172-45.802h6c-.655 14.31-1.198 28.627-2.042 42.925-.222 3.75.553 6.478 3.393 9.163 2.29 2.167 4.147 5.18 5.2 8.167 1.114 3.15 2.6 4 5.774 3.75 15.28-1.192 30.576-2.177 45.865-3.244 40.716-2.84 81.43-5.71 122.147-8.524 36.232-2.505 72.468-4.938 108.7-7.43 42.215-2.903 84.428-5.83 126.64-8.76 12.617-.877 25.23-1.797 37.44-2.67 2.406-5.502 4.624-10.58 6.938-15.876-5.26-5.735-10.657-11.617-16.055-17.5h3c4.363 4.747 8.665 9.555 13.145 14.19.874.902 3.064 1.947 3.598 1.543 5.286-4.01 11.32-5.004 17.94-4.616 1.16-3.895 2.238-7.506 3.315-11.116h2l-2.83 11.49c5.13 1.857 9.51 4.62 11.715 9.38 1.65 3.56 3.467 3.4 6.565 2.373 21.574-7.147 43.203-14.124 64.797-21.21 1.33-.438 2.505-1.344 3.753-2.03h7c-1.523.857-2.957 1.994-4.587 2.53-15.023 4.94-30.085 9.77-45.132 14.642-9.632 3.12-19.257 6.26-29.146 9.474.73 10.382-1.924 19.19-11.036 25.26l109.128 192.46c23.494-10.517 51.537-1.446 57.664 26.883 2.227-.18 4.52-.307 6.797-.56 16.552-1.842 33.1-3.71 49.65-5.567 28.3-3.176 56.598-6.39 84.904-9.51 11.907-1.31 23.84-2.415 35.76-3.614v3c-15.23 1.67-30.463 3.34-45.695 5.004-37.913 4.14-75.83 8.265-113.742 12.42-5.732.627-11.452 1.377-15.79 1.903-2.616 7.706-4.497 14.51-7.233 20.95-2.857 6.725-8.688 11.05-14.902 15.13l163.357 288.404c1.468-2.07 2.296-3.533 3.396-4.747 8.51-9.38 17.037-18.74 25.647-28.026 1.436-1.547 3.298-2.702 4.963-4.04v7c-9.372 10.15-18.655 20.38-28.175 30.387-2.582 2.714-2.982 4.74-1.015 8.117 9.054 15.53 17.79 31.244 26.67 46.876.722 1.272 1.674 2.416 2.52 3.62v5c-1.334-1.288-3.06-2.353-3.943-3.898-9.18-16.05-18.222-32.182-27.32-48.28-.842-1.49-1.815-2.91-2.9-4.64-1.65 1.748-2.804 2.94-3.922 4.162-39.486 43.147-78.97 86.296-118.45 129.446-16.647 18.195-33.3 36.386-49.928 54.598-1.388 1.52-3.156 2.682-2.12 5.51 1.903 5.188 3.263 10.573 5.008 16.41.353.075 1.462.436 2.596.54 29.854 2.786 59.71 5.533 89.563 8.313 26.867 2.503 53.726 5.087 80.6 7.523 10.26.932 20.546 1.556 30.82 2.32v4c-2.322-.08-4.655-.035-6.963-.252-26.52-2.494-53.036-5.04-79.554-7.55-30.663-2.9-61.327-5.787-91.992-8.667-8.566-.806-17.138-1.566-25.77-2.353-1.81 9.328-4.883 17.575-11.973 24.238l67.697 72.24c28.567-16.26 52.213-8.9 72.736 14.684 11.728-5.626 23.453-11.165 35.074-16.915 1.856-.918 3.412-2.634 4.82-4.23 10.466-11.868 20.827-23.825 31.312-35.673 1.26-1.423 3.06-2.36 4.61-3.523v6c-1.2 1.073-2.517 2.038-3.576 3.23-5.72 6.45-11.376 12.954-17.053 19.44-2.015 2.307-4.024 4.618-6.036 6.926l.663.85c6.82-3.235 13.62-6.52 20.48-9.673 1.742-.803 3.678-1.192 5.524-1.77v4c-.64.11-1.344.086-1.91.355-10.203 4.854-20.396 9.73-30.57 14.646-1.18.57-2.446 1.23-3.294 2.186-9.473 10.666-18.87 21.398-27.977 31.76 2.786 2.907 5.27 5.5 7.88 8.218 1.39-.926 2.78-1.807 4.127-2.75 15.518-10.876 31.017-21.777 46.56-32.616 1.6-1.117 3.45-1.876 5.185-2.8v2c-18.143 12.746-36.286 25.494-54.126 38.03l6.126 10.97h-127c3.13-5.4 6.388-10.732 9.323-16.235 1.024-1.92 1.306-4.253 1.833-6.42 1.233-5.07 1.756-10.442 3.8-15.16 1.99-4.59 5.513-8.517 8.556-13.02l-67.185-71.968c-4.6 2.353-8.88 4.547-13.36 6.842 11.364 14.713 19.04 30.83 22.82 48.69 3.783 17.863 3.214 35.68-1.757 53.52 1.806.74 3.312 1.396 4.846 1.98 6.837 2.618 13.686 5.212 20.525 7.825 1.85.707 4.01 1.158 3.596 3.943h-9l-21.532-8.635-3.467 8.636h-202c-1.963-3.967-4.084-7.867-5.863-11.917-8.755-19.93-12.2-40.742-8.83-62.292 2.77-17.7 9.64-33.89 20.63-48.26-.302-.396-.535-.856-.9-1.157-20.295-16.755-40.58-33.522-60.95-50.187-1.317-1.077-3.243-1.778-4.955-1.95-21.045-2.09-42.1-4.058-63.156-6.037-33.488-3.15-66.98-6.27-100.47-9.436-33.485-3.165-66.97-6.38-100.455-9.56-34.313-3.26-68.63-6.507-102.945-9.744-8.09-.763-16.187-1.46-24.488-2.204-.224 1.287-.49 2.232-.54 3.188-2.316 44.242-4.592 88.487-6.918 132.73-1.348 25.61-2.77 51.216-4.16 76.825h-6c1.71-31.44 3.46-62.875 5.124-94.314 1.92-36.27 3.775-72.544 5.616-108.817.166-3.284.022-6.58.022-10.318-47.97-4.535-95.843-9.06-144.268-13.636-3.65 16.97-13.88 27.07-31.57 29.76 2.36 65.86 4.72 131.59 7.076 197.322h-3c-.2-1.646-.528-3.287-.58-4.937-.758-23.646-1.48-47.296-2.207-70.943-1.158-37.64-2.305-75.277-3.487-112.914-.092-2.924-.416-5.84-.635-8.796-8.533-.352-15.567-2.916-21.64-8.367-6.04-5.42-8.887-12.458-11-20.09-172.187 22.02-344.08 44-515.482 65.916-4.344 32.008-23.033 46.717-54.273 47.94 1.946 1.863 3.37 3.237 4.806 4.598 35.94 34.02 71.89 68.026 107.776 102.106 1.566 1.486 2.498 3.64 3.725 5.484h-7c-.992-1.26-1.847-2.663-3-3.754-36.52-34.614-73.072-69.195-109.615-103.787-4.083-3.865-7.945-7.87-13.66-9.613-2.557-.777-4.67-3.014-6.975-4.602-1.582-1.09-3.146-2.202-4.593-3.218L-1 857.388v-5l10.67-7.692c-1.908-3.795-3.314-7.298-5.35-10.387-1.29-1.96-3.514-3.304-5.32-4.923v-9c1.975.482 3.213.08 3.18-2.32-.028-1.976-.1-4.015.323-5.92 2.48-11.198 8.538-20.162 17.797-27.598-7.1-8.717-14.2-17.44-21.3-26.16m1663.123-155.14L1498.997 314.1c-11.727 4.61-23.07 5.357-34.45.577-11.83-4.97-18.548-14.31-22.026-26.392-133.664 24.16-266.946 48.248-398.683 72.058-2.007 6.68-2.644 12.558-5.475 17.057-2.332 3.707-1.714 5.158.795 7.764 127.485 132.372 254.922 264.79 382.372 397.195 1.122 1.164 2.34 2.24 3.694 3.53 9.777-7.926 21.103-9.83 32.627-8.073 11.434 1.745 21.16 7.673 28.528 17.483 58.83-64.286 117.18-128.05 175.746-192.05M619.857 718.603c-1.854-1.557-3.075-2.448-4.14-3.497-83.57-82.346-167.13-164.705-250.695-247.058-1.54-1.518-2.988-3.913-4.755-4.2-1.87-.303-4.067 1.433-6.127 2.262-.458.184-.937.324-1.417.444-7.74 1.94-15.28 1.796-22.42-2.47l-252.3 317.422c3.632 4.327 7.384 7.89 9.992 12.15 2.693 4.404 4.275 9.487 6.71 15.124l515.145-64.86c1.416-9.206 2.9-18.024 10.007-25.316m332.95-152.435c1.136 1.02 1.842 1.71 2.6 2.335 31.11 25.668 62.222 51.33 93.337 76.993 58.887 48.563 117.766 97.138 176.707 145.638 1.835 1.508 4.237 2.968 6.505 3.203 18.393 1.91 36.817 3.51 55.23 5.222 26.872 2.502 53.742 5.035 80.615 7.53 13.27 1.23 26.55 2.388 39.82 3.628 1.925.18 4.04.414 4.354-2.002 1.02-7.883 4.763-14.312 10.58-20.234L1034.094 383.2c-11.72 7.916-22.804 7.115-33.086-.125-9.662 9.393-18.87 18.56-28.355 27.43-2.807 2.625-2.965 4.707-1.46 8.11 13.624 30.815 16.138 62.62 7.698 95.22-4.946 19.11-13.725 36.4-26.082 52.334M875.662 68.4c-.224 1.04-.382 1.654-.486 2.277-.865 5.15-2.612 9.99-6.466 13.602-3.98 3.73-4.156 3.548-1.868 8.406 30.513 64.78 61.023 129.558 91.544 194.333.75 1.596 1.605 3.143 2.512 4.906 9.1-3.7 17.68-3.18 25.624 1.488 8.104 4.76 12.69 12.255 14.173 21.712 11.93-.617 23.56-1.212 35.187-1.837.633-.034 1.252-.318 1.832-.474.628-21.86 26.665-41.51 52.225-23.04 1.19-1.42 2.374-3.042 3.77-4.452 76.127-76.797 152.27-153.576 228.413-230.357.82-.828 1.86-1.543 2.39-2.53.47-.874.79-2.216.458-3.07-1.462-3.75-3.186-7.394-4.957-11.397l-444.35 30.434M621.2 717.124c5.77-4.902 11.884-7.94 19.004-8.773.737-.084 1.654-1.535 1.87-2.492.326-1.428.114-2.98.11-4.48l-1.223-331.485c-.003-1.166.333-2.502-.123-3.456-.538-1.126-1.673-2.615-2.71-2.755-10.23-1.38-17.29-6.89-21.405-16.17-1.435-3.242-2.236-6.764-3.425-10.464l-199.598 2.15c-1.834 18.872-15.797 27.8-35.14 23.458l-25.28 62.223c6.703 3.815 11.717 8.745 13.53 16.093 1.84 7.456-1.307 13.917-5.086 20.325L621.2 717.125m706.177-664.39L1091.61 290.613c3.04 6.45 5.744 12.182 8.643 18.326l340.172-27.285c2.77-7.217 4.318-13.76 7.648-19.216 3.423-5.608 8.587-10.153 13.15-15.35-35.917-63.714-72.02-127.764-107.994-191.58-9.63 3.543-17.97 3.1-25.854-2.773M828.36 756.19c7.233 2.174 385.307 36.747 388.55 35.563l-267.89-220.78c-30.514 33.848-68.417 50.3-113.694 50.183L828.36 756.19M641.93 112.15c-.077 1.54-.234 3.155-.228 4.77.216 52.818.475 105.637.613 158.457.01 3.446 1.043 5.904 3.52 8.29 14.28 13.754 28.67 27.414 42.48 41.63 4.912 5.057 9.807 6.59 16.655 6.163 36.912-2.298 73.852-4.14 110.78-6.164 9.455-.518 18.904-1.127 28.622-1.71.216-1.844.47-3.293.545-4.75 2.023-39.1 3.997-78.2 6.095-117.293.167-3.113-.718-5.27-2.902-7.477-32.126-32.44-64.165-64.963-96.237-97.456-1.118-1.132-2.363-2.137-3.513-3.17-10.18 9.603-30.678 6.6-34.918-13.967-14.964 1.055-29.983 2.114-44.938 3.17-.315 17.648-10.4 27.615-26.573 29.507m28.53 222.992c-.14 1.53-.227 2.338-.286 3.147-.99 13.726-9.59 21.97-21.066 25.14-6.028 1.667-6.123 1.378-6.093 7.52.28 57.144.577 114.286.848 171.428.252 53.31.475 106.62.725 159.93.026 5.606.15 5.512 5.845 6.32 2.554.36 5.104 1.27 7.466 2.345 2.965 1.35 5.737 3.127 8.842 4.86L775.55 606.137c-42.298-22.925-68.93-56.945-77.335-103.72-8.424-46.895 4.838-88.172 36.213-123.97-14.73-14.383-29.124-28.472-43.592-42.486-.865-.84-2.31-1.547-3.473-1.53-5.474.08-10.944.43-16.9.71M538.6 187.58c-44.24 44.52-88.247 88.803-131.93 132.76 2.667 5.5 5.144 10.602 8.01 16.51l199.002-1.856c2.4-16.067 11.052-25 26.912-27.06 0-5.464-.196-10.775.067-16.063.185-3.67-1.16-6.19-3.754-8.71-31.546-30.633-62.99-61.37-94.47-92.075-1.168-1.14-2.41-2.206-3.835-3.505m290.747 433.152c-1.762-.198-2.883-.332-4.006-.453-14.66-1.58-28.866-5.012-42.317-11.07-3.73-1.68-5.948-1.44-8.926 1.584-34.11 34.662-68.388 69.157-102.617 103.7-1.05 1.06-2.047 2.164-3.194 3.382 6.338 6.977 9.198 15.186 9.043 24.925 48.277 4.494 96.28 8.96 145.04 13.5l6.975-135.568M411.94 53.78c-.16.354-.32.71-.482 1.064L541.448 181.7c1.22-1.116 1.98-1.754 2.677-2.453 24.472-24.527 48.938-49.06 73.405-73.592.587-.59 1.4-1.1 1.68-1.816.378-.966.853-2.465.4-3.093-4.23-5.84-6.173-12.312-5.442-19.817L411.94 53.78m130.815 129.2c32.612 31.823 64.61 63.048 97.175 94.828v-164.68l-17.697-8.1c-26.408 25.902-52.692 51.68-79.478 77.95m556.623 128.358c-.13 13.86-6.18 23.912-18.033 29.465-12.118 5.678-23.762 3.23-33.482-4.82l-11.76 10.855c2.085 3.93 3.99 7.52 6.07 11.447 132.882-24.183 265.985-48.408 399.087-72.633l-.193-1.227c-113.82 8.967-227.638 17.933-341.69 26.916M856.625 89.74c-12.986-.043-19.128-7.595-21.896-18.55-26.91 1.86-53.086 3.666-78.223 5.4l-5.945 16.145 99.734 100.795 1.022-.506 5.305-103.283m1.436 114.498l-1.285.242c-2.02 39.46-4.038 78.92-6.08 118.854l91.33-4.97 8.29-20.602c-30.294-30.708-61.275-62.116-92.255-93.524M351.03 423.85l25.178-61.8c-1.17-.946-2.16-1.785-3.19-2.572-5.243-4.013-9.726-8.693-10.727-15.477-.56-3.817-2.51-4.347-5.75-4.302-27.132.376-54.27.64-81.404.968-1.248.015-2.492.31-3.867.493.276 8.8-3.587 15.605-8.843 22.23 22.017 21.71 43.918 43.307 66.11 65.194 6.785-4.76 14.332-5.895 22.495-4.732M863.96 91.015c-.363.03-.726.063-1.09.094-.172 1.284-.438 2.565-.506 3.855-1.73 33.444-3.388 66.892-5.22 100.33-.2 3.662.848 6.178 3.426 8.77 29.616 29.768 59.11 59.657 88.646 89.505 1.14 1.15 2.362 2.22 3.602 3.38 2.102-1.458 3.967-2.75 5.916-4.103L863.96 91.014m-13.9 242.533c53.152 5.348 92.526 31.39 118.004 77.652 9.767-9.573 19.135-18.813 28.586-27.966 1.96-1.896 1.776-3.306.33-5.55-3.727-5.773-5.18-12.138-2.867-18.858 1.364-3.97 3.137-7.797 4.35-10.763l-7.633-8.16c-8.817 7.186-18.597 8.687-29.27 4.836-11.153-4.024-16.42-12.51-17.935-24.266-30.99 1.68-61.842 3.35-93 5.038-.19 2.715-.34 4.837-.566 8.034M642.16 11.646V56.15c11.197 1.042 22.946 9.67 25.113 21.433.46 2.503 2.18 3.27 4.77 3.047 8.124-.703 16.267-1.18 24.402-1.747 5.766-.402 11.532-.81 16.583-1.165l4.348-13.167-58.052-59.684-17.163 6.78m201.868 314.19l-145.49 7.838-.288 1.056 40.366 39.393c30.15-27.102 65.078-41.098 105.415-40.788v-7.5zm391.724 472.244l-.49 1.24c18.51 15.265 37.02 30.53 55.708 45.938 18.19-20.233 40.53-31.537 66.75-35.687l-121.967-11.49m-198.86-482.616l-35.216 1.946c-.563 2.062-.98 3.803-1.516 5.507-.97 3.1-1.575 6.412-3.105 9.215-3.453 6.322-3.65 6.223 1.45 11.242.807.794 1.696 1.503 2.73 2.408 10.927-7.972 21.952-8.085 31.477-1.393 4.604-3.85 8.646-7.23 12.002-10.034l-7.825-18.894m-393.973-7.11c7.674-.02 14 2.707 18.415 7.545 4.366 4.783 7.055 11.095 10.71 17.116l13.527-.778.48-1-43.132-42.093v19.21zm986.82 640.165c.492.166.984.33 1.477.497l20.02-22.838-.96-1.047-25.49 12.202c1.832 4.14 3.392 7.66 4.95 11.185"/>
  <rect fill="url(#grad1)" width="100%" height="100%"/>
</svg>
