<?xml version="1.0" standalone="no"?>
<!DOCTYPE svg PUBLIC "-//W3C//DTD SVG 1.1//EN" "http://www.w3.org/Graphics/SVG/1.1/DTD/svg11.dtd">
<svg width="100%" height="100%" viewBox="0 0 1376 519" version="1.1" xmlns="http://www.w3.org/2000/svg" xmlns:xlink="http://www.w3.org/1999/xlink" xml:space="preserve" style="fill-rule:evenodd;clip-rule:evenodd;stroke-linejoin:round;stroke-miterlimit:1.41421;">
    <g transform="matrix(1,0,0,1,-470.907,-1356.76)">
        <g transform="matrix(5.23405,0,0,5.23405,470.906,1356.76)">
            <path d="M10.89,24.48L11.577,32.132C13.309,29.418 15.493,27.3 18.125,25.78C20.758,24.259 23.725,23.499 27.029,23.499C32.556,23.499 36.865,25.175 39.955,28.527C43.045,31.879 44.591,37.104 44.591,44.2L44.591,77.557L32.67,77.557L32.67,44.297C32.67,40.308 31.844,37.471 30.193,35.787C28.541,34.103 26.031,33.26 22.663,33.26C20.341,33.26 18.264,33.776 16.433,34.806C14.601,35.835 13.098,37.251 11.92,39.049L11.92,77.557L0,77.557L0,24.48L10.89,24.48Z" style="fill:rgb(49,61,62);fill-rule:nonzero;"/>
        </g>
        <g transform="matrix(5.23405,0,0,5.23405,470.906,1356.76)">
            <path d="M73.366,33.063C70.423,33.063 68.002,34.233 66.106,36.571C64.209,38.91 63.032,41.877 62.574,45.474L62.672,45.719L83.717,45.719L83.717,44.493C83.717,41.126 82.858,38.378 81.141,36.251C79.424,34.126 76.832,33.063 73.366,33.063M74.74,78.586C67.217,78.586 61.225,76.126 56.761,71.204C52.297,66.282 50.065,59.962 50.065,52.244L50.065,50.282C50.065,42.564 52.28,36.163 56.712,31.077C61.143,25.992 66.695,23.465 73.366,23.498C80.528,23.498 86.014,25.665 89.824,29.998C93.634,34.331 95.539,40.144 95.539,47.436L95.539,54.452L62.427,54.452L62.329,54.696C62.525,58.901 63.759,62.339 66.033,65.012C68.305,67.685 71.453,69.021 75.475,69.021C78.68,69.021 81.427,68.628 83.717,67.843C86.005,67.058 88.213,65.93 90.339,64.459L94.165,72.275C92.17,74.05 89.521,75.546 86.219,76.762C82.915,77.978 79.089,78.586 74.74,78.586" style="fill:rgb(49,61,62);fill-rule:nonzero;"/>
        </g>
        <g transform="matrix(5.23405,0,0,5.23405,470.906,1356.76)">
            <path d="M118.663,11.577L118.663,24.479L128.18,24.479L128.18,33.308L118.663,33.308L118.663,62.643C118.663,64.835 119.137,66.396 120.085,67.329C121.034,68.261 122.293,68.726 123.863,68.726C124.517,68.726 125.154,68.67 125.776,68.555C126.397,68.44 126.985,68.285 127.542,68.089L128.817,76.821C127.803,77.377 126.593,77.809 125.187,78.121C123.781,78.431 122.325,78.587 120.821,78.587C116.438,78.587 113.005,77.304 110.52,74.736C108.034,72.169 106.791,68.138 106.791,62.643L106.791,33.308L98.698,33.308L98.698,24.479L106.791,24.479L106.791,11.577L118.663,11.577Z" style="fill:rgb(49,61,62);fill-rule:nonzero;"/>
        </g>
        <g transform="matrix(5.23405,0,0,5.23405,470.906,1356.76)">
            <rect x="136.326" y="1.031" width="11.92" height="76.526" style="fill:rgb(49,61,62);fill-rule:nonzero;"/>
        </g>
        <g transform="matrix(5.23405,0,0,5.23405,470.906,1356.76)">
            <path d="M171.802,77.557L159.881,77.557L159.881,24.48L171.802,24.48L171.802,77.557ZM171.802,11.479L159.881,11.479L159.881,1.03L171.802,1.03L171.802,11.479Z" style="fill:rgb(49,61,62);fill-rule:nonzero;"/>
        </g>
        <g transform="matrix(5.23405,0,0,5.23405,470.906,1356.76)">
            <path d="M186.609,77.557L186.609,33.309L178.515,33.309L178.515,24.48L186.609,24.48L186.609,18.298C186.609,12.445 188.204,7.932 191.392,4.759C194.581,1.587 199.052,0 204.808,0C205.953,0 207.114,0.091 208.292,0.271C209.468,0.451 210.794,0.704 212.265,1.031L211.039,10.253C210.383,10.123 209.657,10.008 208.855,9.91C208.053,9.812 207.195,9.763 206.28,9.763C203.696,9.763 201.758,10.498 200.467,11.97C199.174,13.442 198.53,15.551 198.53,18.298L198.53,24.48L209.322,24.48L209.322,33.309L198.53,33.309L198.53,77.557L186.609,77.557Z" style="fill:rgb(49,61,62);fill-rule:nonzero;"/>
        </g>
        <g transform="matrix(5.23405,0,0,5.23405,470.906,1356.76)">
            <path d="M236.62,56.267L237.798,61.565L238.092,61.565L249.718,24.48L262.766,24.48L240.79,85.602C239.384,89.297 237.405,92.453 234.854,95.07C232.304,97.686 228.689,98.995 224.013,98.995C223.032,98.995 221.977,98.896 220.849,98.7C219.721,98.503 218.633,98.275 217.587,98.013L218.911,88.79C219.336,88.823 219.941,88.871 220.726,88.938C221.512,89.003 222.099,89.036 222.492,89.036C224.65,89.036 226.375,88.3 227.668,86.829C228.959,85.357 230.014,83.656 230.832,81.727L232.794,76.919L213.516,24.48L226.515,24.48L236.62,56.267Z" style="fill:rgb(49,61,62);fill-rule:nonzero;"/>
        </g>
    </g>
</svg>
