<?xml version="1.0" encoding="utf-8"?>
<!-- Generator: Adobe Illustrator 16.0.0, SVG Export Plug-In . SVG Version: 6.00 Build 0)  -->
<!DOCTYPE svg PUBLIC "-//W3C//DTD SVG 1.1//EN" "http://www.w3.org/Graphics/SVG/1.1/DTD/svg11.dtd">
<svg version="1.1" id="Layer_1" xmlns:svg="http://www.w3.org/2000/svg"
	 xmlns="http://www.w3.org/2000/svg" xmlns:xlink="http://www.w3.org/1999/xlink" x="0px" y="0px" width="885px" height="294px"
	 viewBox="-314.5 7 885 294" enable-background="new -314.5 7 885 294" xml:space="preserve">
<g>
	
		<linearGradient id="SVGID_1_" gradientUnits="userSpaceOnUse" x1="244.0254" y1="-326.1416" x2="244.0253" y2="-1292.5488" gradientTransform="matrix(0.3333 0 0 -0.3333 48.1664 -127.4998)">
		<stop  offset="0" style="stop-color:#E1563F"/>
		<stop  offset="1" style="stop-color:#E76D5A"/>
	</linearGradient>
	<path fill="url(#SVGID_1_)" d="M-320.492,3.938h900v300h-900V3.938z"/>
</g>
<g>
	<path fill="#FFFFFF" d="M57.9,219.55c0.2-0.5,0.4-1,0.6-1.5l0.1-0.2c0.5-1.199,1-2.5,1.5-3.699c0.6-1.601,1.2-3.301,1.8-4.9
		c0.4-0.9,0.7-1.8,1-2.8c0.8-2.2,1.9-5.101,3.2-7.9c0.8-1.7,1.4-2.899,2.1-4c0.8-1.3,1.6-2.5,2.5-3.7l0.7-1l1.1-0.699
		c0.1-0.101,0.3-0.2,0.5-0.301c0.5-0.3,1.1-0.5,1.5-0.699c0.7-0.301,1.6-0.601,2.6-0.9c1.4-0.4,3-0.8,4.9-1.2
		c2.8-0.6,5.8-1.2,9.6-1.8c5.7-0.9,11.8-1.7,19.1-2.5c12.9-1.4,25.8-2.4,38.2-3c6.6-0.3,11.6-0.4,16.3-0.4c1,0,2,0,3,0
		c3.1,0.101,6.7,0.2,10,0.7c1.2,0.2,2.3,0.4,3.1,0.7c0.3,0.1,0.601,0.2,0.7,0.3l1,0.4l0.8,0.7c0.3,0.3,0.601,0.6,0.9,0.899
		c1.1,1.101,2.3,2.4,3.5,3.9c3.8,4.8,7.2,10.6,10.2,17.2c2.899,6.399,4.699,12.1,5.8,17.699l1.5,7.9h-18.4l-1.1-5.3
		c-1.2-5.601-16.3-20.4-23.8-23.3c-0.801-0.301-4-1.2-13.9-1.2c-20.4,0-49.2,3.6-53.3,4.5c-4.9,2.3-12.4,11.899-16.7,21.5
		l-1.8,3.899"/>
	<path fill="#BA8449" d="M182.9,190.35c-0.9-1.199-1.9-2.3-3-3.3c-0.2-0.2-0.5-0.5-0.7-0.7c0,0-0.101,0-0.2-0.1
		c-0.5-0.2-1.2-0.3-1.9-0.4c-2.899-0.399-6-0.5-9.1-0.6c-6.3-0.1-12.6,0.1-18.9,0.4c-12.6,0.6-25.3,1.6-37.8,3
		c-6.3,0.699-12.6,1.5-18.8,2.5c-3.1,0.5-6.2,1-9.2,1.699c-1.5,0.301-3,0.7-4.4,1.101c-0.7,0.2-1.4,0.399-2,0.7
		c-0.3,0.1-0.6,0.199-0.7,0.399c0,0-0.1,0-0.1,0.101c-0.7,1-1.4,2-2.1,3.1s-1.2,2.3-1.8,3.5c-1.1,2.4-2.1,4.9-3,7.4
		c-0.9,2.5-1.9,5.1-2.8,7.699c-0.5,1.301-1,2.601-1.6,3.9c-0.2,0.6-0.5,1.2-0.8,1.8h8.5c4.6-10.3,13.3-22.1,20.5-25
		c2-0.8,34.2-4.8,55.5-4.8c7.9,0,13.3,0.6,16.3,1.7c8.7,3.399,26.101,19.5,27.9,28.2h4.899c-1-5.5-3-10.9-5.3-16.101
		C189.7,200.55,186.6,195.05,182.9,190.35"/>
	<path fill="#FFFFFF" d="M179.1,186.15L179.1,186.15L179.1,186.15L179.1,186.15L179.1,186.15L179.1,186.15z"/>
	<path fill="#BA8449" d="M179.1,186.15L179.1,186.15L179.1,186.15L179.1,186.15L179.1,186.15L179.1,186.15z"/>
	<path fill="#FFFFFF" d="M192.1,228.85l-1-5.399c-0.899-4.5-2.399-9.3-4.8-14.601c-2.6-5.6-5.399-10.5-8.6-14.399
		c-0.601-0.8-1.2-1.5-1.8-2.101c-2.5-0.399-5.4-0.399-8-0.5c-0.9,0-1.801,0-2.801,0c-4.5,0-9.3,0.101-15.699,0.4
		c-12.2,0.6-24.7,1.6-37.4,3c-7.1,0.8-13,1.6-18.4,2.4c-3.5,0.5-6.3,1.1-8.8,1.6c-1.6,0.4-2.8,0.7-3.9,1c-0.2,0-0.3,0.1-0.4,0.1
		c-0.2,0.4-0.5,0.7-0.7,1.101c-0.5,0.8-0.9,1.7-1.6,2.899c-1.1,2.301-2,4.7-2.8,6.801c-0.4,0.899-0.7,1.8-1,2.699
		c-0.6,1.7-1.2,3.4-1.9,5.101c-0.5,1.3-1.1,2.6-1.6,4l-0.1,0.2c-0.2,0.6-0.5,1.199-0.7,1.699l-1.8,4H56.6l-1.7-0.8l-0.2-0.1
		c-4-2.3-4-5.7-3.9-7.101v-0.3l0.2-0.899l0.3-1.101c0.2-0.7,0.4-1.5,0.6-2.2c0.4-1.5,0.9-2.899,1.4-4.3c0.9-2.6,2-5.399,3.3-8.399
		c1.4-3.101,2.7-5.801,4.2-8.301c0.7-1.3,1.5-2.6,2.5-4.1c0.9-1.4,1.9-2.8,2.9-4.1c0.9-1.101,1.7-1.801,2.3-2.2h0.1
		c0.6-0.5,1.2-0.8,1.5-0.9c0.9-0.5,1.6-0.8,2.1-1c1.2-0.5,2.3-0.8,3.2-1.1c2-0.601,3.9-1,5.3-1.3c2.9-0.601,6-1.2,9.9-1.801
		c5.8-0.899,11.9-1.6,19.4-2.399c13-1.3,26-2.3,38.6-2.8c6-0.2,10.7-0.4,15-0.4c1.601,0,3.101,0,4.601,0c3.2,0.1,6.8,0.2,10.7,0.8
		h0.1c0.9,0.2,2.3,0.4,3.9,0.9h0.1c0.4,0.2,1,0.399,1.7,0.7c0.5,0.3,0.899,0.5,1.2,0.699l0.5,0.4l0.399,0.3l0.4,0.4
		c0.399,0.399,0.7,0.7,1.1,1.1c1.3,1.3,2.5,2.7,3.8,4.4c4,5.2,7.5,11.2,10.7,18.3c1.5,3.3,2.8,6.6,3.8,9.8c1.101,3.5,1.9,6.8,2.5,10
		l1.2,7.7h-18.2V228.85z"/>
	<path fill="#FFFFFF" d="M64.3,228.85l4.4-9.5c3.7-7.899,12.6-22.399,22.5-26.5l0.2-0.1c3.3-1.2,36.7-5.1,57.1-5.1
		c11.4,0,15.7,1.1,17.9,2c10.3,4,28.199,20.899,30.6,30.899l2,8.2H64.3V228.85z"/>
	<path fill="#FFFFFF" d="M185.4,228.85l-1.2-5.1c-1.101-4.7-15.2-18.8-22.5-21.7c-0.7-0.3-3.601-1.1-13.2-1.1
		c-19.6,0-48,3.5-52.6,4.399c-3.8,1.9-10.7,10-15.2,19.601l-1.8,3.8H62.3l4.2-9.3c4.9-11,14.6-24.601,24.1-28.4
		c3.7-1.5,37.5-5.3,58-5.3c8.9,0,14.9,0.7,18.601,2.1c10.3,4,29.6,21.4,32,33l1.6,8H185.4z"/>
	<path fill="#FFFFFF" d="M193.1,228.85l-1.899-1.8c-7.2-6.7-9.2-20.6-7-26.3c1.5-3.8,4.7-5.1,7.1-5.1c0.7,0,1.3,0.1,1.9,0.3
		c1.3-0.101,4.3-2.601,5.2-4c1.399-2.601,4.1-4.2,7.399-4.2c4.9,0,12.9,3.9,15.5,7.6c1.5,2.101,1.9,4.601,1.101,6.801
		c-0.101,0.199-0.2,0.6-0.4,1.1c-2.7,8.1-6.2,18-9,22.6l-1.9,3.101L193.1,228.85L193.1,228.85z"/>
	<path fill="#FFFFFF" d="M192.5,228.85l6.2-10.1c3-4.9,5.1-8.9,6.5-12c-3.5,2.5-8.4,4-15.7,4.4l-0.2-0.2l-0.1,0.7
		c-4.3,0-7.8-3.5-8-7.801c-0.101-2.1,0.7-4.199,2.1-5.8c1.4-1.6,3.4-2.5,5.5-2.6c7.2-0.3,8.101-2,9.4-4.5c1.8-3.4,5.7-5.4,10.8-5.4
		c1.3,0,2.6,0.101,3.8,0.4c6.3,1.399,10.4,6.2,10.7,12.399c0.3,6.301-3.2,15.5-10.2,27.301l-1.899,3.199H192.5L192.5,228.85z"/>
	<path fill="#FFFFFF" d="M218.8,209.15c-8.1,0-16.899-5.301-21.399-10.5c-4.101-4.7-4.5-8.9-4.101-11.601c0.5-3.3,3.2-6.6,8.101-6.6
		c0.899,0,1.8,0.1,2.6,0.2c0.8-3.601,2.7-11.101,10.4-11.101c0.399,0,0.699,0,1.1,0c3.7,0.4,6.5,2.7,7.6,6.2
		c1.2-0.6,2.601-1.1,4.2-1.1c2.4,0,4.7,1,6.4,2.8c2.7,2.899,3.3,6.899,1.6,10.7c1.8,1.1,3.2,2.8,3.8,5
		c0.801,2.8,0.301,5.8-1.5,8.199c-3.5,4.9-11.6,7.2-18,7.4C219.2,209.15,219,209.15,218.8,209.15"/>
	<path fill="#FFFFFF" d="M210.8,44.45c-7.3,4.6-15.3,15.1-25.1,29.5c-1.5,2.3-4,3.5-6.8,3.5c-3.601,0-8.2-2.2-13.5-6.5
		c-8.4-6.8-8.601-10.6-8.7-12.1c-0.2-4,2.8-7.4,7-7.8c8.1-0.7,14.8-5.6,21.3-10.3s12.5-9,19.7-9c1.399,0,2.899,0.2,4.3,0.5"/>
	<path fill="#FFF8EE" d="M164.3,57.75c19.601-1.8,31.101-22.1,43-19c-8,5-15.899,15-27,31.4C177.6,74.05,158.9,58.25,164.3,57.75"/>
	<path fill="#FFFFFF" d="M37.3,48.45c4.9-4.5,11.5-6.8,19.6-6.8c7,0,15.3,1.7,24.6,5.1c2.5,0.9,5.8,1.1,8.3,1.1c0.7,0,1.4,0,2,0
		c0.6,0,1.2,0,1.7,0c2.3,0,7.2,0,9.3,4.5c0.7,1.7,1.6,5.2-1.1,9.3c-3.3,5.1-12,10.5-20.4,10.5c-0.1,0-0.3,0-0.4,0
		c-4.5-0.1-8.7-2.5-13.6-5.2c-6.1-3.4-13-7.3-21.2-7.3c-1.1,0-2.3,0.1-3.4,0.2"/>
	<path fill="#FFFFFF" d="M188.1,96.95c-3.6,0-10.399-1.5-14.699-11.7c-2.4-5.4-3.2-11.5-3.2-14.9c0-7,3.7-8.9,6-9.4
		c1.6-1.6,4.6-5.7,6.8-8.8c9.1-12.4,15.7-20.5,23.4-20.5c1.3,0,2.5,0.2,3.699,0.7c10.301,4.1,15.301,12.8,13.601,23.8
		c-1.2,8.1-6.3,17.7-13.8,26.5c-3.5,4.1-12.601,13.7-20.7,14.3C188.8,96.95,188.5,96.95,188.1,96.95"/>
	<path fill="#FFFFFF" d="M69.9,100.75c-0.9,0-1.8,0-2.6-0.2c-12.8-2.1-28.8-15-34.8-28.3c-4.1-9.1-2.3-15.3,0-18.9
		c3.7-5.9,9.2-9,16-9c8.2,0,16.4,4.5,23.6,8.4c2.8,1.5,6.8,3.7,8.5,4.1c0.6-0.2,1.2-0.3,1.9-0.3c2.6,0,5,1.4,6.4,3.8
		c3.3,5.8,1.3,21.4-3.9,30.4C81.4,97.35,76,100.75,69.9,100.75L69.9,100.75z"/>
	<path fill="#FFFFFF" d="M114.5,212.35c-30,0-59.7-14.699-69.6-25.399c-10.3-11.101-14-23.7-11.2-37.5c2.4-11.3,8.7-21.4,14.2-30.4
		c3.8-6.2,7.4-12,8.4-16.2c12.2-53.9,42.8-60.8,68.1-60.8c1.6,0,3.3,0,5.2,0.1c53.9,1.6,59.301,27.6,62.5,43.2
		c0.601,2.9,1.2,5.6,1.9,7.4c18.1,44.4,21.1,71,10,89c-10.9,17.7-34.8,26.4-82.4,30.3C119.3,212.25,116.9,212.35,114.5,212.35
		L114.5,212.35z"/>
	<path fill="#FFFFFF" d="M113.4,212.45c-30.6,0-58.9-15.2-68.4-25.5c-10.3-11.101-14-23.7-11.2-37.5c2.4-11.3,8.7-21.4,14.2-30.4
		c3.8-6.2,7.4-12,8.4-16.2c12.2-53.9,42.8-60.8,68.1-60.8c1.6,0,3.3,0,5.2,0.1c53.899,1.6,59.3,27.6,62.5,43.2
		c0.6,2.9,1.2,5.6,1.899,7.4c17.801,43.7,20.7,70.1,9.801,88.1c-12.5,20.7-41.9,27.4-82.101,31.2
		C119,212.35,116.2,212.45,113.4,212.45"/>
	<path fill="#FFFFFF" d="M191.3,174.85c0.4-0.899,0.8-1.899,1.2-2.8c4.1-9.8,7.2-18.399,2.3-23.899c-5.8-6.4-30.3-18-52.1-28.2
		c-41.7-19.7-67.5-32.4-71.2-45c-0.9-3.2-0.5-6.5,1.2-9.3c7.2-11.3,27.3-23.4,54.8-23.4c0.3,0,0.5,0,0.8,0
		c25.9,0.2,44.7,7.7,56,22.1c9.601,12.2,11.7,26.5,13.3,36.9c0.5,3.5,1.2,8,1.9,9.2c19.6,33.7,10.6,58.6,3.5,70.3L191.3,174.85z"/>
	<path fill="#FFFFFF" d="M170.8,136.05c-10.1,0-27-2.5-32.8-8.1c-4.6-4.4-6.3-11.7-8.1-18.8c-0.7-3-1.9-7.8-3-10h-0.1
		c-0.4,1.1-0.9,2.5-1.3,3.6c-2.7,7.6-6.5,18.1-14.4,23.8c-3.4,2.5-15.7,4.7-25.2,4.7l0,0c-9.5,0-16.7-2-21.5-6.1
		c-6.9-5.8-12.1-16.5-15.6-31.8c-0.2-0.1-0.3-0.2-0.5-0.3c-1.6-1.1-3.7-2.4-4.8-4.7c-1.8-3.6-1.1-10,0.8-13.4
		c1.4-2.5,3.8-4.1,6.4-4.3c0.3,0,0.5,0,0.9,0c1.4,0,2.8,0.2,4.4,0.5c1.6,0.3,3.5,0.6,5.1,0.6c0.4,0,0.7,0,0.9,0
		c9.5-1.4,18.4-2,26.5-2c19.7,0,30.1,4,34,5.6c0.3,0.1,0.6,0.2,0.8,0.3c1.1,0.3,3.2,0.7,5.4,0.7c0.8,0,1.6,0,2.3-0.2
		c8.9-1.4,17.4-2,25.2-2c20.8,0,31.8,4.7,36.6,6.8c0.4,0.2,0.8,0.4,1.101,0.4c0,0,0.199,0,0.399,0c1.3,0,3.2-0.4,4.8-0.7
		c1.2-0.3,2.4-0.5,3.5-0.7c0.301,0,0.601,0,0.9,0c3.1,0,5.9,1.8,7.6,4.8c1.9,3.5,3.2,10.8,0.5,15c-1.8,2.8-4.699,4.1-7.1,5.2
		c-0.3,0.1-0.7,0.3-1,0.5c-0.8,1.4-2.2,4.2-3.4,6.5c-3.5,6.8-7.399,14.6-11,18.8C185.9,134.35,179.9,136.05,170.8,136.05"/>
	<g>
		<g>
			<defs>
				<rect id="SVGID_2_" x="42.5" y="75.25" width="169.5" height="59.2"/>
			</defs>
			<clipPath id="SVGID_3_">
				<use xlink:href="#SVGID_2_"  overflow="visible"/>
			</clipPath>
			<g opacity="0.3" clip-path="url(#SVGID_3_)">
				<g transform="translate(443.9775,368.7813)">
					<path fill="#FFFFFF" d="M-277.2-234.35c-8,0-19.3-1.2-27.4-6.9c-4.6-3.3-6.699-9.9-9.6-20.5c-0.8-3-2-7.2-2.9-9.3l0,0
						c-0.5,1.2-1.1,2.8-1.6,4.1c-3,8.1-7.1,19.1-14.6,23.7c-3.9,2.4-16,4.6-25.4,4.6c-10.1,0-17.4-2.3-21.6-6.699
						c-10.7-11.2-12.8-21.9-14.1-28.2c-0.2-0.9-0.4-2.1-0.6-2.8c-6.3-3.3-6.7-8.2-6.6-10.3c0.3-3.9,3.3-6.8,7-6.8
						c2.5,0,4.1,1.2,5.3,2c0.1,0.1,0.2,0.2,0.4,0.2c0.1,0,0.4,0.1,0.5,0.2c1.6,0.5,6.3,1.8,7.3,7.9c0.2,1.1,1.8,7.5,4.4,14.2
						c4.1,10.7,7,12.5,7.3,12.6c3.4,1.2,7.4,1.8,11.9,1.8c7.4,0,13.6-1.6,16.1-2.4c1.5-2.3,4.5-8.3,6.6-12.4
						c6.3-12.5,7.4-14.4,10.1-15.8c1.5-0.8,3.3-1.2,5.6-1.2c3,0,7.3,0.7,9.3,1.6c4.6,2,7,8,12.4,23.5c1,2.8,2.199,6.4,3,8.2
						c4,1.9,13.1,3.2,22.6,3.2c2.699,0,4.699-0.1,6-0.2c0.9-1.9,2.199-4.6,3.3-6.9c7.601-16.2,8.8-18.1,10.7-19.6
						c3.3-2.5,9.1-4.2,12.4-4.2c4.399,0,6.799,2.9,7.399,5.7c1.101,5.8-4.601,8-6.5,8.7c-0.5,0.2-1.2,0.5-1.7,0.7
						c-0.699,1.2-2,3.8-3,5.9c-8.199,16-10.9,20.4-14,22.301C-261-235.35-270.2-234.35-277.2-234.35"/>
				</g>
			</g>
		</g>
	</g>
	<g>
		<g>
			<defs>
				<rect id="SVGID_4_" x="45" y="70.95" width="33.4" height="16.2"/>
			</defs>
			<clipPath id="SVGID_5_">
				<use xlink:href="#SVGID_4_"  overflow="visible"/>
			</clipPath>
			<g opacity="0.3" clip-path="url(#SVGID_5_)">
				<g transform="translate(285.2881,440.1162)">
					<path fill="#FFFFFF" d="M-223.9-353.05c-1.2,0-3.5-0.2-8.1-1.7c-1.2-0.4-2.3-0.8-3-1.1c-1.5-0.6-5.4-2.1-5.4-6.7v-6.7h6.6
						c0.9,0,1.5,0.2,2,0.3c1.4,0.2,5.9,0.5,7.4,0.6l0.9,0.1c1.2,0,4.9-0.5,6.5-0.7c2-0.3,2.6-0.4,3.4-0.4h5.7l0.9,5.6
						c0.4,2.8-1.1,6.3-4.8,7.4c-0.2,0.1-0.9,0.3-1.5,0.5c-3.5,1.3-7,2.5-10,2.6C-223.5-353.05-223.7-353.05-223.9-353.05"/>
				</g>
			</g>
		</g>
	</g>
	<g>
		<g>
			<defs>
				<rect id="SVGID_6_" x="181" y="79.55" width="25.4" height="17.2"/>
			</defs>
			<clipPath id="SVGID_7_">
				<use xlink:href="#SVGID_6_"  overflow="visible"/>
			</clipPath>
			<g opacity="0.3" clip-path="url(#SVGID_7_)">
				<g transform="translate(484.2881,425.6104)">
					<path fill="#FFFFFF" d="M-290.8-328.95c-2.2,0-4.4-0.9-7.4-3c-2.9-2-5.1-4-5.1-7.5v-6.7h6.5c0.9,0,1.8,0.2,2.699,0.6
						c0.701,0.3,3.4,1.2,4.601,1.5c0.399,0,1.2-0.2,2.8-0.5c0.801-0.2,1.301-0.2,2-0.2h5.7l0.899,5.6c0.4,2.7-0.799,6.1-4.5,7.4
						c-0.199,0.1-0.799,0.4-1.199,0.6c-1.801,0.9-3.9,1.9-6,2.3C-290-328.95-290.399-328.95-290.8-328.95"/>
				</g>
			</g>
		</g>
		<path fill="#FFFFFF" d="M171.7,243.55H147.1v-21.3H171.7V243.55z"/>
	</g>
	<path fill="#BA8449" d="M182.9,190.35c-0.9-1.199-1.9-2.3-3-3.3c-0.2-0.2-0.5-0.5-0.7-0.7c0,0-0.101,0-0.2-0.1
		c-0.5-0.2-1.2-0.3-1.9-0.4c-2.899-0.399-6-0.5-9.1-0.6c-6.3-0.1-12.6,0.1-18.9,0.4c-12.6,0.6-25.3,1.6-37.8,3
		c-6.3,0.699-12.6,1.5-18.8,2.5c-3.1,0.5-6.2,1-9.2,1.699c-1.5,0.301-3,0.7-4.4,1.101c-0.7,0.2-1.4,0.399-2,0.7
		c-0.3,0.1-0.6,0.199-0.7,0.399c0,0-0.1,0-0.1,0.101c-0.7,1-1.4,2-2.1,3.1s-1.2,2.3-1.8,3.5c-1.1,2.4-2.1,4.9-3,7.4
		c-0.9,2.5-1.9,5.1-2.8,7.699c-0.5,1.301-1,2.601-1.6,3.9c-0.2,0.6-0.5,1.2-0.8,1.8h8.5c4.6-10.3,13.3-22.1,20.5-25
		c2-0.8,34.2-4.8,55.5-4.8c7.9,0,13.3,0.6,16.3,1.7c8.7,3.399,26.101,19.5,27.9,28.2h4.899c-1-5.5-3-10.9-5.3-16.101
		C189.7,200.55,186.6,195.05,182.9,190.35"/>
	<path fill="#BA8449" d="M179.1,186.15L179.1,186.15L179.1,186.15L179.1,186.15L179.1,186.15L179.1,186.15z"/>
	<path fill="#895B2E" d="M179.1,186.15L179.1,186.15L179.1,186.15L179.1,186.15L179.1,186.15L179.1,186.15z M196.9,204.05
		c-2.7-6-5.801-11.7-9.9-16.899c-1-1.301-2.1-2.601-3.3-3.801c-0.3-0.3-0.601-0.6-0.9-0.899l-0.2-0.2l-0.1-0.1l-0.2-0.2
		c-0.2-0.101-0.399-0.2-0.5-0.3c-0.3-0.2-0.6-0.301-0.899-0.4c-1.101-0.4-1.9-0.5-2.801-0.7c-3.399-0.5-6.6-0.6-9.8-0.7
		c-6.5-0.1-12.8,0-19.2,0.301c-12.8,0.5-25.5,1.5-38.2,2.8c-6.3,0.7-12.7,1.399-19.1,2.399c-3.2,0.5-6.3,1-9.5,1.7
		c-1.6,0.4-3.2,0.7-4.8,1.2c-0.8,0.2-1.6,0.5-2.5,0.9c-0.4,0.199-0.9,0.399-1.4,0.699c-0.2,0.2-0.5,0.301-0.8,0.5
		c-0.3,0.2-0.6,0.5-1,1l0,0c-0.9,1.101-1.8,2.4-2.6,3.601c-0.8,1.2-1.6,2.5-2.3,3.8c-1.4,2.5-2.7,5.1-3.9,7.7
		c-1.1,2.6-2.2,5.2-3.1,7.899c-0.5,1.301-0.9,2.601-1.2,4c-0.2,0.7-0.4,1.301-0.6,2l-0.3,1l-0.1,0.5c0,0.101,0.2,0.2,0.6,0.5h0.1
		h5.8c0.3-0.6,0.5-1.199,0.8-1.8c0.5-1.3,1.1-2.6,1.6-3.8c1-2.6,1.9-5.1,2.8-7.7c0.9-2.5,1.9-5.1,3-7.399c0.6-1.2,1.2-2.301,1.8-3.5
		c0.7-1.101,1.3-2.101,2.1-3.101c0,0,0.1,0,0.1-0.1c0.2-0.101,0.5-0.2,0.7-0.4c0.6-0.2,1.3-0.5,2-0.7c1.4-0.399,2.9-0.8,4.4-1.1
		c3-0.7,6.1-1.2,9.2-1.7c6.2-1,12.5-1.8,18.8-2.5c12.6-1.399,25.2-2.399,37.8-3c6.3-0.3,12.601-0.5,18.9-0.399
		c3.1,0.1,6.3,0.199,9.1,0.6c0.7,0.1,1.4,0.3,1.9,0.4c0.1,0,0.2,0,0.2,0.1c0.199,0.2,0.5,0.5,0.699,0.7c1.101,1.1,2,2.2,3,3.3
		c3.7,4.7,6.801,10.2,9.4,15.8c2.3,5.2,4.3,10.601,5.3,16.101h5c-0.5-3.101-1.3-6.101-2.2-9C199.4,210.05,198.2,207.05,196.9,204.05
		"/>
	<path fill="#FFF8EE" d="M164.1,195.95c-2.6-1-7.899-1.601-15.5-1.601c-21.399,0-53,4-54.7,4.7c-6.5,2.601-14.6,13.601-19.1,23.2
		h115.9C188.8,214.75,172.7,199.35,164.1,195.95"/>
	<path fill="#E5D0AE" d="M164.8,194.05c-2.899-1.1-8.399-1.7-16.3-1.7c-21.3,0-53.5,4-55.5,4.801c-7.3,3-15.9,14.699-20.5,25h2.2
		c4.5-9.5,12.6-20.5,19.1-23.2c1.7-0.7,33.3-4.7,54.7-4.7c7.6,0,12.9,0.5,15.5,1.6c8.6,3.301,24.7,18.801,26.6,26.301h2
		C190.9,213.55,173.5,197.45,164.8,194.05"/>
	<path fill="#BA8449" d="M204.4,194.95c-1.2,2.5-7.5,8.899-12.801,7.399c-2.8-0.8-2.3,14,4.101,19.9h11.6c3.2-5.1,8.2-20.7,8.8-22.3
		C216.8,198.05,205.6,192.45,204.4,194.95"/>
	<path fill="#895B2E" d="M216.7,198.65c-0.2-3.2-2.101-5.5-5.5-6.301c-2.7-0.6-6.3-0.1-7.2,1.601c-1.8,3.399-4,7.5-14.9,8.1
		c-0.699,0-1.3,0.7-1.3,1.4s0.7,1.3,1.4,1.3c11.399-0.5,14.7-4.9,17.1-9.4c0.5-0.399,3.2-0.899,5.4,0c1.6,0.7,2.3,1.801,2.399,3.5
		c0.301,6.2-6.199,17.7-9.699,23.5h3.1C211.4,215.55,217,205.05,216.7,198.65"/>
	<g>
		<g>
			<defs>
				<rect id="SVGID_8_" x="193.5" y="196.75" width="23.5" height="27.3"/>
			</defs>
			<clipPath id="SVGID_9_">
				<use xlink:href="#SVGID_8_"  overflow="visible"/>
			</clipPath>
			<g opacity="0.15" clip-path="url(#SVGID_9_)">
				<g transform="translate(485.335,236)">
					<path fill="#E3AB5E" d="M-291.101-13.45c7.101-1.7,13.4-8.8,13.9-18.899c0.1-1.9-3.8-5.5-3.8-6.5s11.899,0.199,12.5,3
						c0.5,2.8-7.399,19.699-10.101,22.5C-281.2-10.65-295.3-12.45-291.101-13.45"/>
				</g>
			</g>
		</g>
	</g>
	<path fill="#FCD4C3" d="M199.8,188.05c-0.899,6.2,11.2,14.7,19.4,14.5c6.8-0.2,14.5-3.399,13.399-7.2c-1.1-3.899-7.699,0.7-8.3-2
		c-0.5-2.6,7.7-7.5,4.4-11.1c-3.101-3.3-6.7,5.2-10.3,4c-3.601-1.2,0.699-9.5-3.801-10c-5.3-0.5-3.3,11.3-7.3,11.5
		C204.5,188.05,200.1,186.05,199.8,188.05"/>
	<path fill="none" stroke="#F8A38F" stroke-width="2" stroke-miterlimit="10" d="M199.8,188.05c-0.899,6.2,11.2,14.7,19.4,14.5
		c6.8-0.2,14.5-3.399,13.399-7.2c-1.1-3.899-7.699,0.7-8.3-2c-0.5-2.6,7.7-7.5,4.4-11.1c-3.101-3.3-6.7,5.2-10.3,4
		c-3.601-1.2,0.699-9.5-3.801-10c-5.3-0.5-3.3,11.3-7.3,11.5C204.5,188.05,200.1,186.05,199.8,188.05z"/>
	<g>
		<g>
			<defs>
				<rect id="SVGID_10_" x="203.2" y="183.05" width="7.8" height="6.4"/>
			</defs>
			<clipPath id="SVGID_11_">
				<use xlink:href="#SVGID_10_"  overflow="visible"/>
			</clipPath>
			<g opacity="0.5" clip-path="url(#SVGID_11_)">
				<g transform="translate(498.9385,288.042)">
					<path fill="#FCD4C3" d="M-295.7-100.05c1.301,1,6,2.3,6.7,0.6c0.8-1.699,1.399-5.1,0.899-5.6c-0.399,1.6-0.899,4.6-2.6,5.3
						C-292-99.25-294.8-99.851-295.7-100.05"/>
				</g>
			</g>
		</g>
	</g>
	<g>
		<g>
			<defs>
				<rect id="SVGID_12_" x="215.9" y="181.45" width="7.699" height="7.2"/>
			</defs>
			<clipPath id="SVGID_13_">
				<use xlink:href="#SVGID_12_"  overflow="visible"/>
			</clipPath>
			<g opacity="0.5" clip-path="url(#SVGID_13_)">
				<g transform="translate(518.459,298.042)">
					<path fill="#FCD4C3" d="M-302.3-116.649c-0.2,1.1-1.101,6.299,1.6,7c2.3,0.6,4-0.801,5.8-3.701c-1,0.9-3.5,3.101-5.399,2.301
						C-302.2-111.95-302.4-113.95-302.3-116.649"/>
				</g>
			</g>
		</g>
	</g>
	<g>
		<g>
			<defs>
				<rect id="SVGID_14_" x="204.5" y="193.25" width="15.8" height="8.6"/>
			</defs>
			<clipPath id="SVGID_15_">
				<use xlink:href="#SVGID_14_"  overflow="visible"/>
			</clipPath>
			<g opacity="0.25" clip-path="url(#SVGID_15_)">
				<g transform="translate(500.876,276.958)">
					<path fill="#FCD4C3" d="M-296.3-81.55c13.6-6.7,16.4,4.199,15.699,6.4C-286-74.25-295.5-79.851-296.3-81.55"/>
				</g>
			</g>
		</g>
	</g>
	<g>
		<g>
			<defs>
				<rect id="SVGID_16_" x="223" y="191.15" width="5.7" height="5"/>
			</defs>
			<clipPath id="SVGID_17_">
				<use xlink:href="#SVGID_16_"  overflow="visible"/>
			</clipPath>
			<g opacity="0.5" clip-path="url(#SVGID_17_)">
				<g transform="translate(530.751,283.3955)">
					<path fill="#FCD4C3" d="M-306.399-92.25c-2.301,2.601-1.201,4.7,0.299,5c1.9,0.399,4.4-1.601,4-1.601
						c-0.5,0-4.199,1.201-4.899-0.6C-307.5-90.851-306.7-91.649-306.399-92.25"/>
				</g>
			</g>
		</g>
	</g>
	<g>
		<g>
			<defs>
				<rect id="SVGID_18_" x="66.1" y="182.85" width="128.9" height="36.5"/>
			</defs>
			<clipPath id="SVGID_19_">
				<use xlink:href="#SVGID_18_"  overflow="visible"/>
			</clipPath>
			<g opacity="0.15" clip-path="url(#SVGID_19_)">
				<g transform="translate(296.834,257.166)">
					<path fill="#E3AB5E" d="M-227.8-48.65C-184.1-23.55-97.4-49.05-102-57.25c-6.1-10.9-8.5-17.7-21.9-17.1
						c-13.3,0.699-98.899,7.5-102.399,10.1C-229.7-61.55-233.5-51.95-227.8-48.65"/>
				</g>
			</g>
		</g>
	</g>
	<path fill="#FFF8EE" d="M164.3,57.75c19.601-1.8,31.101-22.1,43-19c-8,5-15.899,15-27,31.4C177.6,74.05,158.9,58.25,164.3,57.75"/>
	<path fill="none" stroke="#E5D0AE" stroke-width="3" stroke-linecap="round" stroke-linejoin="round" stroke-miterlimit="10" d="
		M164.3,57.75c19.601-1.8,31.101-22.1,43-19c-8,5-15.899,15-27,31.4C177.6,74.05,158.9,58.25,164.3,57.75z"/>
	<path fill="#BA8449" d="M41.8,53.35c8.8-8.2,24.7-5,37.5-0.4c7.3,2.6,16.8,0.5,17.4,2c1.6,3.5-7.9,10.7-15.7,10.5
		C73.3,65.35,60.4,50.85,41.8,53.35"/>
	<path fill="none" stroke="#895B2E" stroke-width="2" stroke-linecap="round" stroke-linejoin="round" stroke-miterlimit="10" d="
		M41.8,53.35c8.8-8.2,24.7-5,37.5-0.4c7.3,2.6,16.8,0.5,17.4,2c1.6,3.5-7.9,10.7-15.7,10.5C73.3,65.35,60.4,50.85,41.8,53.35z"/>
	<path fill="#FCD4C3" d="M177.7,67.45c4.5,1.3,21.6-32.2,29.899-28.9c26.4,10.5-8,50.9-18.899,51.8
		C177.7,91.15,175.2,66.65,177.7,67.45"/>
	<path fill="none" stroke="#F8A38F" stroke-width="2" stroke-miterlimit="10" d="M177.7,67.45c4.5,1.3,21.6-32.2,29.899-28.9
		c26.4,10.5-8,50.9-18.899,51.8C177.7,91.15,175.2,66.65,177.7,67.45z"/>
	<path fill="#FCD4C3" d="M82.3,63.45c-7.3,3.2-33.2-23.9-44.1-6.5c-7.2,11.5,14.6,34.7,30.2,37.2S86.1,61.75,82.3,63.45"/>
	<path fill="none" stroke="#F8A38F" stroke-width="2" stroke-miterlimit="10" d="M82.3,63.45c-7.3,3.2-33.2-23.9-44.1-6.5
		c-7.2,11.5,14.6,34.7,30.2,37.2S86.1,61.75,82.3,63.45z"/>
	<g>
		<g>
			<defs>
				<rect id="SVGID_20_" x="180.5" y="45.05" width="18" height="44.6"/>
			</defs>
			<clipPath id="SVGID_21_">
				<use xlink:href="#SVGID_20_"  overflow="visible"/>
			</clipPath>
			<g clip-path="url(#SVGID_21_)">
				<g transform="translate(491.167,503.5005)">
					<path fill="#FCD4C3" d="M-293.101-458.45c-1.399,4.6-13.199,16.5-11.6,26.7c0.6,3.8,4.6,15,6.301,14.6c1.699-0.4,6-3.1,5.6-2.5
						s-6,4.7-8.1,5.8c-2.101-1.1-11-21.8-9.701-22.9C-306.7-440.25-294.8-458.25-293.101-458.45"/>
				</g>
			</g>
		</g>
	</g>
	<g>
		<g>
			<defs>
				<rect id="SVGID_22_" x="38.6" y="51.75" width="44.2" height="31.6"/>
			</defs>
			<clipPath id="SVGID_23_">
				<use xlink:href="#SVGID_22_"  overflow="visible"/>
			</clipPath>
			<g clip-path="url(#SVGID_23_)">
				<g transform="translate(250.833,484.5005)">
					<path fill="#FCD4C3" d="M-212.3-426.85c8-4.9,22.6-2.8,31.1,5.5c3,3,3.9,13-2.9,19.8c-2.7,2.7,16-9.6,16.1-13.2
						c0-3.6-1.2-4.6-4-5.6c-10.3-3.8-21.1-12.6-30.5-12.4C-208.6-432.65-211.4-428.45-212.3-426.85"/>
				</g>
			</g>
		</g>
	</g>
	<g>
		<g>
			<defs>
				<rect id="SVGID_24_" x="181.1" y="42.45" width="26.2" height="44.2"/>
			</defs>
			<clipPath id="SVGID_25_">
				<use xlink:href="#SVGID_24_"  overflow="visible"/>
			</clipPath>
			<g opacity="0.25" clip-path="url(#SVGID_25_)">
				<g transform="translate(496,507.375)">
					<path fill="#FCD4C3" d="M-294.7-464.95c18.2,10-11.1,25.2-8.899,44.1c-3.801-0.4-13.2-18.7-10.9-20.3
						C-311.3-443.35-297.8-465.75-294.7-464.95"/>
				</g>
			</g>
		</g>
	</g>
	<path fill="#E5D0AE" d="M60.9,103.85c0.3-1.3,0.5-2.7,0.5-4c0.1-1.4,0.2-2.8,0.5-4.1c0.1-0.7,0.3-1.4,0.6-2s0.5-1.3,0.7-1.9
		c0.5-1.3,1-2.6,1.6-3.8c2.3-5.1,4.9-9.9,8.1-14.4c3.2-4.5,6.7-8.7,10.7-12.3c4-3.7,8.7-6.7,13.7-8.7c5-2.1,10.4-3.4,15.8-4
		c5.4-0.7,10.8-0.8,16.2-0.7c5.4,0.1,10.8,0.4,16.2,1.1c5.4,0.7,10.8,1.9,16,3.8c2.6,1,5.1,2.1,7.5,3.5s4.7,3.1,6.8,5.1
		c2.101,1.9,3.9,4.2,5.4,6.6c1.5,2.4,2.6,5,3.6,7.7c0.9,2.6,1.601,5.3,2.2,8s1,5.3,1.6,7.8c0.301,1.2,0.7,2.4,1.101,3.6
		c0.5,1.2,1,2.5,1.399,3.8c0.9,2.5,1.9,5.1,2.801,7.6c3.5,10.2,6.6,20.601,8.5,31.2c0.899,5.3,1.6,10.7,1.699,16.1
		c0.101,5.4-0.399,10.801-1.899,16c-0.4,1.301-0.8,2.601-1.3,3.801c-0.5,1.199-1.2,2.399-1.601,3.699c-0.2,0.7-0.399,1.301-0.7,1.9
		c-0.3,0.6-0.699,1.2-1.1,1.8c-0.7,1.101-1.6,2.3-2.5,3.3c-3.5,4.2-8,7.601-12.8,10.2c-4.8,2.601-10,4.601-15.2,6.101
		c-5.3,1.5-10.5,2.699-15.9,3.699c-5.399,1-10.699,1.7-16,2.4c-2.699,0.3-5.399,0.6-8.1,0.9l-4,0.399c-1.3,0.101-2.7,0.2-4.1,0.3
		c-11,0.601-22-1-32.5-3.899c-5.3-1.5-10.4-3.3-15.4-5.5s-9.9-4.7-14.5-7.7c-2.3-1.5-4.6-3.2-6.7-5.1c-0.5-0.5-1.1-1-1.6-1.5
		s-0.9-1.101-1.4-1.601c-0.9-1.1-1.8-2.2-2.6-3.3c-3.1-4.6-5.6-10-6.4-15.6c-0.9-5.7-0.1-11.5,1.5-16.801
		c1.6-5.399,4.1-10.3,6.7-15.1c2.7-4.7,5.6-9.3,8.4-13.8c1.4-2.3,2.7-4.6,3.9-6.9C59.4,108.55,60.4,106.25,60.9,103.85L60.9,103.85z
		 M64.9,104.75c-0.7,2.8-1.9,5.4-3.2,7.9c-1.3,2.5-2.7,4.8-4.1,7.1c-2.8,4.6-5.7,9.1-8.2,13.7c-2.5,4.6-4.8,9.399-6.2,14.3
		c-1.4,4.9-2,10-1.2,15c0.8,4.9,2.9,9.6,5.9,13.7c0.7,1,1.6,2,2.4,3c0.4,0.5,0.9,1,1.3,1.399c0.4,0.5,0.9,0.9,1.3,1.301
		c1.8,1.699,3.9,3.199,6.1,4.699c4.4,2.801,9,5.301,13.9,7.4c4.8,2.1,9.8,3.9,14.9,5.3c5.1,1.4,10.2,2.5,15.4,3.2
		c5.2,0.7,10.4,0.9,15.6,0.7c1.3-0.101,2.6-0.2,3.9-0.3l4-0.4c2.6-0.2,5.3-0.5,8-0.8c5.3-0.5,10.6-1.2,15.8-2.101
		c5.3-0.899,10.4-1.899,15.5-3.3c5.1-1.399,10.1-3,14.9-5.1c4.699-2.2,9.3-4.9,13-8.601c0.899-0.899,1.8-1.899,2.6-2.899
		c0.4-0.5,0.8-1.101,1.2-1.601c0.399-0.5,0.899-1,1.3-1.6c0.9-1.1,1.3-2.3,1.9-3.5c0.5-1.2,0.899-2.5,1.199-3.8
		c1.301-5.2,1.601-10.601,1.301-15.9c-0.4-5.3-1.301-10.6-2.601-15.8c-2.5-10.4-6.2-20.4-10.1-30.3c-1-2.5-2-5-3-7.4l-1.601-3.7
		c-0.5-1.3-1-2.7-1.399-4c-0.7-2.7-1.2-5.3-1.8-7.9c-0.5-2.6-1.2-5.1-2-7.5c-1.7-4.9-4.2-9.3-7.9-12.8c-3.6-3.5-8.1-6.2-12.9-8.2
		c-4.8-2-10-3.3-15.199-4.2c-5.2-0.9-10.5-1.4-15.801-1.7c-5.3-0.2-10.7-0.3-16,0.3c-5.3,0.6-10.5,1.7-15.4,3.8
		c-4.9,2-9.4,4.9-13.2,8.5c-3.9,3.6-7,8-9.3,12.6c-2.4,4.7-4.1,9.7-5.6,14.7c-0.4,1.2-0.7,2.5-1,3.8c-0.2,0.6-0.3,1.3-0.5,1.9
		c-0.1,0.3-0.1,0.7-0.2,1c-0.1,0.3-0.2,0.6-0.4,0.9c-0.5,1.2-1.1,2.4-1.7,3.6C65.6,102.25,65.2,103.45,64.9,104.75L64.9,104.75z"/>
	<path fill="#FFF8EE" d="M62.9,104.35c-4.2,18.6-40.9,48-13,78.1c9.5,10.2,40.3,25.899,71.2,23c80.4-7.601,100.7-27,66.8-110.2
		c-5.5-13.5,0.699-44.7-58.4-46.5C104.7,48.05,74.9,51.45,62.9,104.35"/>
	<path fill="#E5BFA1" d="M76.8,67.95c2.6-4,6-7.3,9.8-10c3.8-2.7,8.1-4.7,12.4-6.3c8.8-3.2,18-4.4,27.2-4.7
		c9.2-0.2,18.5,0.5,27.5,2.8c4.5,1.2,8.899,2.8,13.1,5.1c4.2,2.3,8.101,5.1,11.4,8.6s6,7.4,8.1,11.7c2.101,4.3,3.601,8.8,4.7,13.3
		c1.1,4.6,1.8,9.1,2.4,13.6c0.3,2.3,0.6,4.5,1.1,6.6c0.2,1.1,0.5,2.1,0.8,2.9c0.101,0.2,0.2,0.4,0.3,0.6l0.101,0.1l0.1,0.1l0.2,0.4
		l0.9,1.5c4.399,8.1,7.699,17,8.899,26.3c0.601,4.601,0.7,9.3,0.2,14c-0.5,4.601-1.7,9.2-3.5,13.5c-0.9,2.101-1.9,4.2-3.1,6.3
		c-0.301,0.5-0.601,1-0.9,1.5s-0.6,0.9-1,1.5c-0.1,0.101-0.1,0.2-0.2,0.301c-0.3-0.2,0.4,0.699-1.6,0c-0.5-0.9-0.2-0.7-0.3-0.9
		c0-0.3,0.1-0.4,0.1-0.6l0.3-0.9l0.5-1.6c1.4-4.301,2.601-8.601,3.101-13.101c0.199-2.2,0.3-4.399,0-6.7c-0.301-2.199-0.9-4.3-2-6.1
		c-0.301-0.5-0.601-0.9-1-1.3c-0.4-0.4-0.7-0.8-1.101-1.2c-0.8-0.8-1.6-1.5-2.5-2.2c-1.8-1.399-3.7-2.5-5.7-3.5
		c-4.1-1.8-8.6-2.5-13-2.3c-4.5,0.2-8.899,1.1-13.199,2.3c-2.2,0.601-4.301,1.3-6.5,2c-1.101,0.4-2.2,0.7-3.301,1
		c-0.6,0.2-1.1,0.3-1.8,0.4c-0.6,0.1-1.1,0.2-1.7,0.2c-4.6,0.5-9.1,0.8-13.8,0.699c-4.6-0.1-9.2-0.6-13.8-1.6c-4.5-1-9-2.5-13.2-4.4
		c-4.2-2-8.2-4.399-11.8-7.399s-6.8-6.4-9.6-10.1c-5.6-7.5-9.3-16.2-11.1-25.3c-0.9-4.6-1.3-9.2-1.1-13.9c0.1-2.3,0.4-4.7,0.9-7
		C74.7,72.35,75.5,70.05,76.8,67.95L76.8,67.95z M78.8,69.25c-1.1,1.8-1.8,3.8-2.3,6c-0.5,2.1-0.7,4.3-0.9,6.5
		c-0.2,4.4,0.3,8.9,1.2,13.2c1.9,8.7,5.6,17,11,24c2.7,3.5,5.8,6.7,9.2,9.5s7.2,5.2,11.2,7.1c4,1.9,8.2,3.3,12.6,4.3
		c4.3,1,8.8,1.601,13.2,1.7c4.5,0.2,8.9,0,13.4-0.5l1.699-0.2c0.5-0.1,1-0.199,1.601-0.3c1.1-0.3,2.1-0.6,3.2-0.899
		c2.199-0.601,4.399-1.301,6.6-1.801c4.4-1.1,9-1.899,13.7-1.899c4.6,0,9.3,0.8,13.5,2.8c2.1,1,4.1,2.2,5.899,3.6
		c0.9,0.7,1.801,1.5,2.601,2.301c0.399,0.399,0.8,0.8,1.2,1.199c0.399,0.4,0.8,0.9,1.1,1.4c1.3,2,2,4.3,2.3,6.7
		c0.3,2.399,0.3,4.7,0.101,7c-0.4,4.6-1.4,9.1-2.7,13.5l-0.5,1.6l-0.2,0.8c0,0.101-0.1,0.301,0,0.301c-0.1-0.101,0.2,0.199-0.2-0.7
		c-1.899-0.7-1.2,0.2-1.399-0.101l0,0c0.199-0.399,0.5-0.899,0.8-1.399s0.5-1,0.8-1.5c1-2,1.9-4,2.7-6.101
		c3-8.3,3.6-17.399,2.1-26.1c-0.7-4.4-2-8.6-3.6-12.7c-1.601-4.1-3.5-8.1-5.7-12l-0.8-1.4l-0.2-0.4l-0.1-0.2l-0.101-0.2
		c-0.2-0.3-0.3-0.6-0.399-0.9c-0.5-1.2-0.801-2.5-1.101-3.6c-0.5-2.3-0.899-4.6-1.2-6.8c-0.699-4.5-1.3-8.9-2.399-13.2
		c-1-4.3-2.4-8.5-4.3-12.4c-1.9-3.9-4.2-7.5-7.2-10.7c-5.8-6.3-13.8-10.5-22.3-13s-17.5-3.3-26.5-3.3c-8.9,0-17.9,1.1-26.3,3.9
		c-4.2,1.4-8.2,3.3-11.9,5.8C84.4,62.55,81.2,65.55,78.8,69.25L78.8,69.25z"/>
	<path fill="#895B2E" d="M75.6,67.45c1.5-2.4,3.3-4.3,5.1-6.1c1.9-1.8,3.9-3.3,6-4.7c4.2-2.8,8.7-5,13.4-6.7
		c9.4-3.3,19.3-4.6,29.1-4.4c9.7,0.3,19.5,1.5,28.899,4.9c4.7,1.7,9.2,3.9,13.301,6.9c4.1,2.9,7.699,6.5,10.699,10.6
		c2.9,4.1,5.101,8.6,6.801,13.3c1.6,4.7,2.699,9.5,3.5,14.2c0.399,2.4,0.699,4.7,1.1,7.1c0.4,2.3,0.7,4.7,1.1,6.8
		c0.2,1.1,0.5,2.1,0.9,2.9l0.1,0.2l0.101,0.2l0.2,0.4l0.399,0.8l0.9,1.6c1.1,2.1,2.2,4.3,3.2,6.5c1.899,4.399,3.5,9.1,4.6,13.899
		c1.1,4.7,1.6,9.601,1.6,14.5c-0.1,9.801-2.8,19.5-7.899,27.801l0,0c-0.4,0.6-1.2,0.899-1.8,0.5c-0.601-0.4-0.801-1.101-0.601-1.601
		l0,0c1.4-3.6,2.9-7,4-10.5c1.2-3.5,2-7.1,2-10.6s-0.899-6.9-3-9.601c-0.1-0.199-0.3-0.399-0.399-0.5l-0.2-0.199l-0.2-0.301
		c-0.3-0.3-0.6-0.6-0.9-0.899c-0.6-0.601-1.3-1.2-2-1.7c-1.399-1.1-3-2.1-4.5-3.1c-6.3-3.9-13-7.301-19.8-10.7
		c-6.8-3.3-13.7-6.5-20.5-9.6c-13.8-6.3-27.6-12.6-41.2-19.4c-6.8-3.5-13.5-7-20.1-11.2c-3.5-2.5-6.7-4.7-9.8-7.5
		c-1.5-1.4-3-3-4.2-5.2c-0.6-1.1-1.1-2.4-1.2-4c0-0.8,0-1.6,0.2-2.4c0.1-0.4,0.2-0.8,0.4-1.2c0.1-0.3,0.4-0.9,0.5-1H75.6z
		 M81.2,70.85c-0.2,0.3-0.1,0.2-0.2,0.3c0,0.1,0,0.1-0.1,0.2c0,0.1,0,0.2,0,0.4c0,0.3,0.2,0.8,0.4,1.4c0.6,1.2,1.7,2.5,2.9,3.6
		c2.5,2.4,5.4,4.6,8.5,6.6c6.1,4.1,12.7,7.7,19.4,11.3c13.3,7,27,13.5,40.6,20.1c6.8,3.3,13.6,6.7,20.399,10.1
		c6.801,3.5,13.5,7,20,11.301c1.601,1.1,3.2,2.199,4.7,3.5c0.8,0.6,1.5,1.3,2.3,2c0.4,0.399,0.7,0.699,1.101,1.199l0.2,0.301
		l0.3,0.3c0.2,0.2,0.3,0.399,0.5,0.6c1.2,1.7,2.1,3.601,2.7,5.601c0.6,2,0.699,4.1,0.699,6.1c-0.1,4-1.199,7.9-2.5,11.6
		c-1.3,3.7-2.899,7.101-4.399,10.601l-2.4-1.2l0,0c4.7-8,6.9-17.2,6.8-26.4c-0.199-9.199-2.6-18.3-6.5-26.699
		c-1-2.101-2-4.2-3.199-6.2l-1.801-3.2c-0.699-1.3-1-2.6-1.3-3.8c-0.6-2.5-1-4.8-1.399-7.2c-0.4-2.4-0.801-4.7-1.2-6.9
		c-0.9-4.6-2-9-3.601-13.3c-1.6-4.2-3.699-8.3-6.3-11.8c-2.6-3.6-5.899-6.7-9.5-9.2c-3.7-2.5-7.7-4.5-12-5.9c-8.6-2.9-17.8-3.9-27-4
		c-4.6,0-9.1,0.2-13.6,1c-4.5,0.7-8.9,1.8-13.1,3.3c-4.2,1.5-8.3,3.4-12,5.8c-1.9,1.2-3.6,2.5-5.2,4S82.3,69.25,81.2,70.85
		L81.2,70.85z"/>
	<path fill="#BA8449" d="M77.8,68.55c-11,17,2.1,82.3,71.2,73.5c7.3-0.899,31.6-13.899,48,4.3c8.9,10-3.1,35.301,0,30
		c3.5-5.8,16.9-28.199-3.2-62.7c-6.399-11.1,4.2-64.4-65-65.1C102.3,48.45,85.1,57.25,77.8,68.55"/>
	<g>
		<g>
			<defs>
				<rect id="SVGID_26_" x="61.7" y="64.85" width="117.3" height="111.9"/>
			</defs>
			<clipPath id="SVGID_27_">
				<use xlink:href="#SVGID_26_"  overflow="visible"/>
			</clipPath>
			<g opacity="0.15" clip-path="url(#SVGID_27_)">
				<g transform="translate(307.168,461.833)">
					<path fill="#E3AB5E" d="M-231.2-389.15c19.9-12.8,80.101-11.9,99.3,18.8c12.801,20.4-10.6,70.8-19.3,77.201
						c-8.6,6.399-20.6,12-52.2,4.399c-26.8-6.399,13.5-31.3-17.9-34.899C-250-326.95-252.9-375.15-231.2-389.15"/>
				</g>
			</g>
		</g>
	</g>
	<g>
		<g>
			<defs>
				<rect id="SVGID_28_" x="118.5" y="119.45" width="13.1" height="5.5"/>
			</defs>
			<clipPath id="SVGID_29_">
				<use xlink:href="#SVGID_28_"  overflow="visible"/>
			</clipPath>
			<g opacity="0.25" clip-path="url(#SVGID_29_)">
				<g transform="translate(391,387.166)">
					<path fill="#E3AB5E" d="M-259.4-264.95c0,1.5-2.899,2.8-6.5,2.8s-6.5-1.199-6.5-2.8c0-1.5,2.9-2.8,6.5-2.8
						C-262.3-267.65-259.4-266.45-259.4-264.95"/>
				</g>
			</g>
		</g>
	</g>
	<path fill="#F8A38F" d="M120.1,114.05c1.5-1,9.5-0.7,10.5,0.4c1,1,3.2,5.2,0.7,7c-0.899,0.6-0.899-1.9-2.9-1.5
		c-2.4,0.5-1.1,3.6-3,3.6c-2.9-0.1-0.1-3.4-2.6-3.8c-1.9-0.4-2.3,1.5-3.2,1.3C116.7,120.45,118,115.45,120.1,114.05"/>
	<g>
		<g>
			<defs>
				<rect id="SVGID_30_" x="117.9" y="113.45" width="14.5" height="9.899"/>
			</defs>
			<clipPath id="SVGID_31_">
				<use xlink:href="#SVGID_30_"  overflow="visible"/>
			</clipPath>
			<g clip-path="url(#SVGID_31_)">
				<g transform="translate(380.2207,400.4053)">
					<path fill="#F8A38F" d="M-255.8-286.95c-1.9,0-3.7,0.2-4.3,0.6c-2.1,1.4-3.4,6.4-0.6,6.9h0.1c0.7,0,1.1-1.4,2.6-1.4
						c0.2,0,0.3,0,0.5,0c2.5,0.4-0.2,3.8,2.6,3.8l0,0c1.8,0,0.5-3,3-3.5c0.2,0,0.3,0,0.4,0c1.4,0,1.6,1.6,2.2,1.6
						c0.1,0,0.2,0,0.3-0.1c2.6-1.8,0.4-6-0.7-7C-250.2-286.55-253.1-286.95-255.8-286.95 M-255.8-286.25L-255.8-286.25
						c3,0,5.3,0.4,5.7,0.7c0.6,0.6,1.8,2.8,1.6,4.4c-0.1,0.6-0.3,1.1-0.7,1.4c0-0.1-0.1-0.1-0.2-0.2c-0.399-0.5-1-1.3-2.1-1.3
						c-0.2,0-0.4,0-0.5,0.1c-1.7,0.4-2,1.7-2.3,2.6c-0.2,0.9-0.3,0.9-0.6,0.9l0,0c-0.8,0-0.8-0.2-0.8-1.1s0-2.3-1.8-2.6
						c-0.2,0-0.4,0-0.6,0c-1.1,0-1.8,0.7-2.3,1.1c-0.1,0.1-0.3,0.3-0.4,0.3c-0.4-0.1-0.8-0.3-1-1.1c-0.3-1.4,0.7-3.8,1.8-4.6
						C-259.4-286.05-258-286.25-255.8-286.25"/>
				</g>
			</g>
		</g>
	</g>
	<g>
		<g>
			<defs>
				<rect id="SVGID_32_" x="74.1" y="125.15" width="112.9" height="64.1"/>
			</defs>
			<clipPath id="SVGID_33_">
				<use xlink:href="#SVGID_32_"  overflow="visible"/>
			</clipPath>
			<g opacity="0.25" clip-path="url(#SVGID_33_)">
				<g transform="translate(474.0986,359.9502)">
					<path fill="#F7E8D0" d="M-287.3-219.649c3,19.199-21,43.299-53.301,48.299c-32.299,4.9-56.1-23.899-59.1-43.199
						c-3-19.2,16.8-11.9,49.1-16.801C-318.3-236.25-290.3-238.85-287.3-219.649"/>
				</g>
			</g>
		</g>
	</g>
	<g>
		<g>
			<defs>
				<rect id="SVGID_34_" x="80" y="126.15" width="93.6" height="47.5"/>
			</defs>
			<clipPath id="SVGID_35_">
				<use xlink:href="#SVGID_34_"  overflow="visible"/>
			</clipPath>
			<g opacity="0.5" clip-path="url(#SVGID_35_)">
				<g transform="translate(347.2148,315.9766)">
					<path fill="#D8CAB2" d="M-244.7-146.45c-0.9-1.399-1.4-3.1-1.9-4.7c-0.5-1.6-1-3.199-1.5-4.8c-1-3.2-2.1-6.399-3.6-9.399
						s-3.4-5.801-5.8-7.9s-5.3-3.5-8.4-4.1l0,0l0,0c-1.1-0.4-1.6-1.5-1.2-2.5s1.4-1.5,2.3-1.301c7.2,1.7,14.7,2.5,22.1,2.601
						c7.4,0.1,15-0.3,22.5-1.2s14.9-2.2,22.2-3.9c7.3-1.699,14.6-3.699,21.7-6.1c1.1-0.4,2.2,0.2,2.5,1.2c0.3,0.8,0,1.6-0.601,2.1
						l0,0l0,0c-0.199,0.2-0.6,0.5-0.899,0.8c-0.3,0.301-0.601,0.7-0.9,1c-0.6,0.7-1.2,1.5-1.8,2.301c-1.2,1.6-2.3,3.199-3.3,4.899
						c-2.2,3.3-4.2,6.7-6.101,10.2c-1.899,3.5-3.8,7-5.5,10.5c-0.899,1.8-1.699,3.6-2.399,5.4c-0.4,0.899-0.7,1.8-1.101,2.8
						c-0.199,0.5-0.3,0.899-0.399,1.399c0,0,0,0.101,0,0.2c0,0.101,0,0.101-0.101,0.2c0,0.1-0.1,0.2-0.199,0.2
						c-0.101,0.1-0.2,0.2-0.4,0.3c-0.2,0.2-0.5,0.3-0.7,0.4c-1.899,0.8-3.899,1.199-5.8,1.6s-3.9,0.7-5.9,0.9
						c-4,0.5-7.899,0.899-11.899,1c-4,0.199-8,0.199-11.9-0.2c-2-0.2-4-0.5-5.9-1c-1-0.3-1.9-0.601-2.8-1.101
						C-243.3-145.05-244.1-145.65-244.7-146.45 M-244.6-146.55c0.5,0.8,1.4,1.399,2.3,1.8c0.9,0.4,1.8,0.7,2.8,1
						c1.9,0.5,3.9,0.8,5.9,0.9c4,0.3,7.9,0.3,11.9,0.1s7.9-0.7,11.8-1.2c1.9-0.3,3.9-0.6,5.801-1.1c1.899-0.5,3.899-0.9,5.6-1.7
						c0.2-0.1,0.4-0.2,0.6-0.4c0.2-0.1,0.301-0.199,0.301-0.3c0.1-0.5,0.199-1,0.399-1.5c0.3-1,0.601-1.899,0.9-2.899
						c0.7-1.9,1.399-3.7,2.2-5.601c1.6-3.7,3.199-7.3,4.899-10.899c1.7-3.601,3.5-7.2,5.4-10.7c0.899-1.8,1.899-3.5,3-5.3
						c0.5-0.9,1.1-1.801,1.7-2.601c0.3-0.399,0.6-0.899,0.899-1.3c0.399-0.4,0.7-0.9,1.2-1.3l0,0l1.9,3.399
						c-7.301,2.5-14.601,4.5-22.101,6.2s-15,3.101-22.6,4c-7.6,0.9-15.3,1.4-23,1.2c-7.7-0.2-15.4-1.1-23-2.9l1.1-4l0,0
						c3.3,2,6.3,3.9,8.6,6.601s3.9,5.8,5.2,9c1.2,3.2,2.2,6.5,3,9.7c0.4,1.6,0.9,3.3,1.3,4.899
						C-246-149.55-245.5-147.95-244.6-146.55"/>
				</g>
			</g>
		</g>
	</g>
	<g>
		<g>
			<defs>
				<rect id="SVGID_36_" x="81" y="127.15" width="91.6" height="46.5"/>
			</defs>
			<clipPath id="SVGID_37_">
				<use xlink:href="#SVGID_36_"  overflow="visible"/>
			</clipPath>
			<g opacity="0.5" clip-path="url(#SVGID_37_)">
				<g transform="translate(347.2324,315.9883)">
					<path fill="#D8CAB2" d="M-244.7-146.45c-0.9-1.399-1.4-3-1.9-4.6c-0.5-1.601-0.9-3.2-1.4-4.8c-1-3.2-2-6.4-3.5-9.5
						c-1.4-3-3.3-5.801-5.6-8c-2.4-2.301-5.3-3.9-8.4-4.601l0,0v-0.1c-0.5-0.2-0.8-0.8-0.6-1.3c0.2-0.5,0.7-0.801,1.2-0.7
						c7.3,1.7,14.8,2.5,22.4,2.6c7.6,0.101,15.1-0.3,22.6-1.2c7.5-0.899,14.9-2.3,22.3-3.899c7.399-1.7,14.699-3.7,21.8-6.101
						c0.5-0.199,1.1,0.101,1.3,0.601c0.1,0.399,0,0.8-0.3,1.1l0,0l0,0c-0.601,0.5-1.3,1.3-1.9,2c-0.6,0.7-1.2,1.601-1.8,2.3
						c-1.1,1.601-2.2,3.301-3.2,5c-2.1,3.301-4.1,6.801-6,10.301c-1.899,3.5-3.7,7-5.3,10.6c-0.8,1.8-1.6,3.6-2.4,5.4
						c-0.399,0.899-0.699,1.8-1,2.8c-0.199,0.5-0.3,0.899-0.399,1.399c-0.101,0.4-0.4,0.5-0.601,0.7c-0.199,0.2-0.5,0.3-0.699,0.4
						c-1.9,0.8-3.9,1.2-5.801,1.6c-1.899,0.4-3.899,0.7-5.899,1c-3.9,0.5-7.9,0.9-11.9,1.101c-4,0.199-8,0.199-11.9-0.2
						c-2-0.2-4-0.5-5.9-1c-1-0.3-1.9-0.601-2.8-1C-243.3-145.05-244.2-145.65-244.7-146.45 M-244.7-146.55
						c0.5,0.8,1.4,1.399,2.3,1.899c0.9,0.4,1.8,0.7,2.8,1c1.9,0.5,3.9,0.801,5.9,0.9c4,0.4,7.9,0.3,11.9,0.1
						c4-0.199,7.899-0.6,11.899-1.199c1.9-0.301,3.9-0.601,5.9-1.101c1.9-0.399,3.9-0.899,5.6-1.7c0.2-0.1,0.4-0.199,0.601-0.399
						c0.2-0.101,0.399-0.3,0.399-0.4c0.101-0.5,0.2-1,0.4-1.5c0.3-1,0.6-1.899,1-2.8c0.7-1.9,1.5-3.7,2.3-5.5
						c1.601-3.7,3.3-7.2,5.101-10.8c1.8-3.601,3.6-7.101,5.6-10.601c1-1.8,2-3.5,3.1-5.1c0.5-0.9,1.101-1.7,1.7-2.5
						c0.601-0.8,1.2-1.6,2.101-2.4l0,0l1,1.801c-7.2,2.5-14.601,4.5-22,6.199c-7.4,1.7-14.9,3-22.5,4c-7.6,0.9-15.2,1.4-22.9,1.2
						c-7.6-0.2-15.3-1-22.8-2.7l0.5-1.899l0,0c3.3,1.3,6.3,3.3,8.6,5.899c2.3,2.601,4,5.601,5.3,8.7c1.3,3.101,2.3,6.3,3.2,9.601
						c0.4,1.6,0.9,3.199,1.4,4.899C-246.1-149.55-245.6-147.95-244.7-146.55"/>
				</g>
			</g>
		</g>
	</g>
	<path fill="#333333" d="M102.6,169.45c5.1,8,46.8,2.5,47.5-0.7c1.801-8.1,16.801-36.7,21.601-40.7c-8.601,3-53.3,17.3-89.6,8.601
		C98.4,142.15,98.6,163.25,102.6,169.45"/>
	<g>
		<g>
			<defs>
				<rect id="SVGID_38_" x="82" y="128.15" width="89.6" height="45.399"/>
			</defs>
			<clipPath id="SVGID_39_">
				<use xlink:href="#SVGID_38_"  overflow="visible"/>
			</clipPath>
			<g clip-path="url(#SVGID_39_)">
				<g transform="translate(451.25,378.25)">
					<path fill="#333333" d="M-279.7-250.05c-6.7,2.3-34.899,11.399-64.1,11.399c-8.6,0-17.2-0.8-25.5-2.699
						c16.4,5.3,16.6,26.5,20.6,32.699c1.9,3,9.2,4.101,17.5,4.101c13.4,0,29.5-2.8,30-4.8C-299.4-217.55-284.5-246.15-279.7-250.05
						 M-285.3-246.15c-6.5,9.801-15.9,28.7-17.8,35.801c-2.5,1.399-15.4,3.8-28.101,3.8c-10.2,0-14.8-1.7-15.8-3.2s-1.8-4.3-2.6-7.5
						c-1.7-6.1-4.1-14.5-9.8-20.3c5,0.6,10.2,0.899,15.7,0.899C-319.9-236.75-296.6-242.75-285.3-246.15"/>
				</g>
			</g>
		</g>
	</g>
	<path fill="#FCD4C3" d="M119.7,173.65c-8.6,0-14.2-1.2-16.4-3.601c-0.2-0.2-0.2-1.399,0.8-3.7c2.4-5.5,9.8-14.899,22.6-15.699
		c0.9,0,1.7-0.101,2.5-0.101c15,0,24,7.601,24,8.9c-0.2,0.399-0.4,1-0.7,1.8c-0.8,1.9-2,4.9-3.1,8.1
		C148.1,170.65,133.1,173.65,119.7,173.65"/>
	<path fill="#F8A38F" d="M129.2,150.05c-0.9,0-1.7,0-2.6,0.101c-17.5,1.1-25.6,18.399-23.8,20.5c2.6,2.8,9.3,3.8,16.9,3.8
		c13.5,0,29.8-3.101,30.3-4.601c1.5-4.5,3.2-8.199,3.9-10C154.5,158.05,144.4,149.95,129.2,150.05 M129.2,151.35
		c13.399,0,22.399,6.4,23.3,8.301c-0.2,0.399-0.4,0.899-0.6,1.5c-0.801,1.899-2,4.699-3.101,7.899c-2.1,1.2-16.1,3.9-29.1,3.9
		c-8.1,0-13.7-1.2-15.8-3.3c-0.1-0.7,0.6-3.5,3.1-7c2.2-3.2,8.6-10.7,19.7-11.301C127.5,151.35,128.4,151.35,129.2,151.35
		L129.2,151.35"/>
	<g>
		<g>
			<defs>
				<rect id="SVGID_40_" x="103.1" y="149.65" width="50.2" height="20.699"/>
			</defs>
			<clipPath id="SVGID_41_">
				<use xlink:href="#SVGID_40_"  overflow="visible"/>
			</clipPath>
			<g clip-path="url(#SVGID_41_)">
				<g transform="translate(348.084,315.917)">
					<path fill="#FCD4C3" d="M-245-146.351c-1.2,5.4,31.9-21.1,49.7-8.399c3.7-4.899-16-13.2-27.5-11.3
						C-232.5-164.351-242.5-158.149-245-146.351"/>
				</g>
			</g>
		</g>
	</g>
	<path fill="#FFF7E3" d="M109.8,141.05c1.7,3,4.8,17.601,6.1,17.9c1.3,0.3,9.5,2.6,10.6,2.1c1.2-0.5,1.1-3.3,2.3-2.5
		c1,0.7,1.5,2,2.5,1.5c1.8-0.899,7.101-4.2,8-5.6c0.8-1.5,0.7-9.8,0-16.4C135.9,139.65,115.8,141.75,109.8,141.05"/>
	<g>
		<g>
			<defs>
				<rect id="SVGID_42_" x="109.8" y="138.15" width="30.101" height="23.199"/>
			</defs>
			<clipPath id="SVGID_43_">
				<use xlink:href="#SVGID_42_"  overflow="visible"/>
			</clipPath>
			<g clip-path="url(#SVGID_43_)">
				<g transform="translate(402.75,363.25)">
					<path fill="#FFDC99" d="M-263.4-225.15c-3,1.301-18.7,3.101-26.6,3.101c-1.2,0-2.1,0-2.9-0.101c1.7,3,4.8,17.601,6.1,17.9
						c1.2,0.3,8,2.2,10.1,2.2c0.2,0,0.4,0,0.5-0.101c1-0.399,1.1-2.6,1.9-2.6c0.1,0,0.3,0,0.399,0.2c0.9,0.5,1.301,1.6,2.101,1.6
						c0.1,0,0.3,0,0.399-0.1c1.801-0.9,7.101-4.2,8-5.601C-262.5-210.15-262.7-218.45-263.4-225.15 M-263.9-224.25
						c0.601,6.8,0.601,14,0,15.2c-0.699,1.2-5.5,4.3-7.699,5.399h-0.101c-0.2,0-0.5-0.3-0.7-0.6c-0.3-0.3-0.6-0.6-1-0.9
						c-0.3-0.199-0.5-0.3-0.8-0.3c-0.9,0-1.2,0.9-1.5,1.601c-0.2,0.399-0.4,1-0.7,1.1c0,0-0.1,0-0.3,0c-1.7,0-6.8-1.4-8.9-1.9
						c-0.4-0.1-0.7-0.199-0.9-0.199c-0.6-0.7-1.9-5.4-2.9-8.801c-0.9-3.1-1.7-6-2.4-7.699c0.5,0,1.2,0,1.9,0
						C-282.4-221.35-268.4-222.95-263.9-224.25"/>
				</g>
			</g>
		</g>
	</g>
	<g>
		<g>
			<defs>
				<rect id="SVGID_44_" x="109.9" y="137.75" width="29.7" height="10.3"/>
			</defs>
			<clipPath id="SVGID_45_">
				<use xlink:href="#SVGID_44_"  overflow="visible"/>
			</clipPath>
			<g clip-path="url(#SVGID_45_)">
				<g transform="translate(361.751,348.25)">
					<path fill="#EADCBE" d="M-249.6-200.15c-0.5-5.399,24.4-7.199,27.5-6.699c0-1.301-0.199-2.101-0.199-3.601
						c-4.1,2.101-26.5,4.3-29.5,3.4C-251.5-206.45-250.4-203.45-249.6-200.15"/>
				</g>
			</g>
		</g>
	</g>
	<g>
		<g>
			<defs>
				<rect id="SVGID_46_" x="124" y="144.05" width="5.5" height="14.7"/>
			</defs>
			<clipPath id="SVGID_47_">
				<use xlink:href="#SVGID_46_"  overflow="visible"/>
			</clipPath>
			<g clip-path="url(#SVGID_47_)">
				<g transform="translate(380.458,354.3682)">
					<path fill="#FFDC99" d="M-255.9-210.351c0.5,1.201,1,2.301,1.4,3.5c0.4,1.201,0.8,2.4,1.2,3.601l1.1,3.601l1.1,3.6l-1.699,0.5
						l-0.8-3.7l-0.9-3.7c-0.3-1.199-0.6-2.4-0.9-3.6c-0.4-1.2-0.7-2.4-1.1-3.5L-255.9-210.351z"/>
				</g>
			</g>
		</g>
	</g>
	<g>
		<g>
			<defs>
				<rect id="SVGID_48_" x="39.1" y="51.75" width="39.4" height="35.7"/>
			</defs>
			<clipPath id="SVGID_49_">
				<use xlink:href="#SVGID_48_"  overflow="visible"/>
			</clipPath>
			<g opacity="0.4" clip-path="url(#SVGID_49_)">
				<g transform="translate(253.584,481.9165)">
					<path fill="#FCD4C3" d="M-213.2-422.55c13.2,3.4,11.1,26.2,18.9,28c7.9,1.8,18.2-18.8,19.2-23.3c-15.2-6.5-22.3-14.1-33.2-11.9
						C-211.9-429.05-216.9-423.55-213.2-422.55"/>
				</g>
			</g>
		</g>
	</g>
	<g>
		<g>
			<defs>
				<rect id="SVGID_50_" x="59.9" y="88.95" width="133.7" height="42.5"/>
			</defs>
			<clipPath id="SVGID_51_">
				<use xlink:href="#SVGID_50_"  overflow="visible"/>
			</clipPath>
			<g opacity="0.5" clip-path="url(#SVGID_51_)">
				<g transform="translate(308.667,381.333)">
					<path fill="#E3AB5E" d="M-231.7-255.25c16.6,1.3,30.3,2,35.2-3.1s6.7-27.7,14.7-27.1c6.8,0.5,9.1,29.9,13.5,30.7
						c4.4,0.899,35.5,9.399,43.3,1.399c7.7-8,11.3-13,9.5-17.799c-1.8-4.8-47.3-20.3-56.601-21.2c-9.299-0.9-72.1,7-73.699,10.9
						c-1.6,4-3.3,3.4-3,7.6C-248.2-265.75-248.3-256.55-231.7-255.25"/>
				</g>
			</g>
		</g>
	</g>
	<path fill="#333333" d="M123.5,92.65c1.2,0,5.9-0.4,7,0.5c6,4.7,5.8,24,12.1,30c5.601,5.399,36.2,9.3,41.5,3.199
		c5.301-6.1,13.101-24.7,14.9-26.1c1.8-1.3,5.8-2.3,7-4.2c1.2-1.8,0.2-10-2.6-9.6c-2.801,0.4-8.101,2.1-11.4,1.2
		c-3.3-1-19.4-11.1-59.9-5c-3.899,0.6-7.8,0-10.5-0.7c-2.7-0.7-17.9-9.5-58.6-3.7c-4,0.6-9.6-1.2-11.6-1s-2.6,6.5-1.8,8.1
		c0.8,1.6,5,3,5.5,5s4.2,21.6,13.8,29.7c10.2,8.601,36.2,2.6,38.5,1C117.7,113.75,120,92.65,123.5,92.65"/>
	<g>
		<g>
			<defs>
				<rect id="SVGID_52_" x="49.1" y="76.35" width="157.3" height="53.1"/>
			</defs>
			<clipPath id="SVGID_53_">
				<use xlink:href="#SVGID_52_"  overflow="visible"/>
			</clipPath>
			<g clip-path="url(#SVGID_53_)">
				<g transform="translate(326.0381,456.2231)">
					<path fill="#1A1A1A" d="M-237.6-379.85c-7.1,0-15.6,0.5-25.6,2c-0.6,0.1-1.2,0.1-1.8,0.1c-3.5,0-7.6-1.1-9.5-1.1
						c-0.1,0-0.2,0-0.3,0c-2,0.2-2.6,6.5-1.8,8.1c0.8,1.7,5,3,5.5,5s4.2,21.6,13.8,29.7c4,3.4,10.6,4.5,17.2,4.5
						c10,0,19.9-2.5,21.3-3.5c10.4-7.4,12.8-28.5,16.3-28.5c0.5,0,1.8-0.1,3-0.1c1.6,0,3.3,0.1,3.899,0.5c6,4.7,5.801,24,12.101,30
						c3.601,3.399,17.399,6.3,28.2,6.3c6.1,0,11.3-0.9,13.199-3.1c5.301-6.101,13.101-24.7,14.9-26.101c1.801-1.4,5.801-2.3,7-4.2
						c1.1-1.8,0.2-9.6-2.5-9.6c0,0-0.1,0-0.199,0c-2.201,0.3-6,1.4-9.101,1.4c-0.8,0-1.601-0.1-2.3-0.3c-2.6-0.8-12.7-6.9-35.7-6.9
						c-6.899,0-14.899,0.5-24.2,1.9c-1.1,0.2-2.3,0.2-3.3,0.2c-2.7,0-5.2-0.4-7.1-0.9C-206.6-374.65-215.8-379.85-237.6-379.85
						 M-237.6-377.85c18.1,0,27.4,3.6,30.8,5c0.7,0.3,1.2,0.5,1.7,0.6c1.8,0.4,4.5,1,7.6,1c1.2,0,2.5-0.1,3.601-0.3
						c8.5-1.3,16.5-1.9,23.899-1.9c19,0,28.899,4.2,33.2,6.1c0.9,0.4,1.5,0.6,2,0.8c0.9,0.3,1.8,0.4,2.9,0.4
						c2.199,0,4.6-0.5,6.6-0.9c0.9-0.2,1.8-0.4,2.5-0.5c0.9,1,1.5,5.4,1,6.6c-0.4,0.6-2.1,1.4-3.301,1.9c-1.199,0.5-2.299,1-3.1,1.6
						c-1.1,0.8-2.199,2.9-5.4,9.3c-3.1,6.1-6.899,13.7-9.799,17c-1,1.2-4.601,2.399-11.801,2.399c-10.5,0-23.9-2.8-26.9-5.7
						c-2.799-2.6-4.199-8.7-5.6-14.6c-1.6-6.6-3.1-12.8-6.6-15.6c-0.9-0.7-2.301-1-5.1-1c-0.8,0-1.6,0-2.2,0c-0.4,0-0.7,0-0.9,0
						c-2.8,0-4,3.3-6.1,9.3c-2.3,6.6-5.6,15.5-11.3,19.6c-1.3,0.8-10.7,3.2-20.2,3.2c-7.3,0-12.8-1.4-15.9-4
						c-3.8-3.2-9.1-10.7-12.9-27.8c-0.1-0.4-0.2-0.7-0.2-0.9c-0.5-1.9-2.3-3-3.8-4c-0.6-0.4-1.6-1.1-1.8-1.4c-0.4-0.9,0-4.2,0.6-5.3
						c0.7,0,1.7,0.2,2.8,0.4c1.9,0.3,4.3,0.7,6.5,0.7c0.7,0,1.5,0,2.1-0.2C-253.8-377.15-245.3-377.85-237.6-377.85"/>
				</g>
			</g>
		</g>
	</g>
	<g>
		<g>
			<defs>
				<rect id="SVGID_54_" x="64.4" y="83.65" width="50.5" height="34.2"/>
			</defs>
			<clipPath id="SVGID_55_">
				<use xlink:href="#SVGID_54_"  overflow="visible"/>
			</clipPath>
			<g opacity="0.5" clip-path="url(#SVGID_55_)">
				<g transform="translate(292.5,434.75)">
					<path fill="none" stroke="#333333" stroke-width="4" stroke-miterlimit="10" d="M-226.3-344.05c-0.9,1.2-1.5,18.9,6,23.7
						c4.9,3.2,25.7,2.5,29.9,0.2c6.5-3.7,12.9-20.5,11.1-22.9c-3-4-24.6-9.3-40.8-5.1C-222.1-347.75-225.2-345.55-226.3-344.05z"/>
				</g>
			</g>
		</g>
	</g>
	<path fill="#FFFFFF" d="M66.2,90.65c-0.9,1.2-1.5,18.9,6,23.7c4.9,3.2,25.7,2.5,29.9,0.2c6.5-3.7,12.9-20.5,11.1-22.9
		c-3-4-24.6-9.3-40.8-5.1C70.4,87.05,67.3,89.15,66.2,90.65"/>
	<g>
		<g>
			<defs>
				<rect id="SVGID_56_" x="139.8" y="88.35" width="50.101" height="35"/>
			</defs>
			<clipPath id="SVGID_57_">
				<use xlink:href="#SVGID_56_"  overflow="visible"/>
			</clipPath>
			<g opacity="0.5" clip-path="url(#SVGID_57_)">
				<g transform="translate(476.5938,423.063)">
					<path fill="none" stroke="#333333" stroke-width="4" stroke-miterlimit="10" d="M-288.2-324.65c0.8,1.3-1,18.9-9,22.8
						c-5.3,2.5-25.8-0.9-29.6-3.7c-6-4.5-10.2-22-8.101-24.2c3.5-3.6,25.601-6,41.101,0.2C-291.9-328.85-289.1-326.25-288.2-324.65z
						"/>
				</g>
			</g>
		</g>
	</g>
	<path fill="#FFFFFF" d="M188.4,98.45c0.8,1.3-1,18.9-9,22.8c-5.301,2.5-25.801-0.9-29.601-3.7c-6-4.5-10.2-22-8.1-24.2
		c3.5-3.6,25.6-6,41.1,0.2C184.7,94.25,187.4,96.75,188.4,98.45"/>
	<path d="M89.9,101.45c-0.5,3.9-2.5,6.8-4.4,6.5c-1.9-0.3-2.9-3.6-2.4-7.5c0.5-3.9,2.5-6.8,4.4-6.5
		C89.4,94.25,90.4,97.55,89.9,101.45"/>
	<path d="M169.6,105.85c0.4,3.9-0.8,7.2-2.6,7.4c-1.9,0.2-3.7-2.8-4.1-6.7c-0.4-3.9,0.8-7.2,2.6-7.4
		C167.3,99.05,169.1,102.05,169.6,105.85"/>
	<g>
		<g>
			<defs>
				<rect id="SVGID_58_" x="49.1" y="81.85" width="156.3" height="46"/>
			</defs>
			<clipPath id="SVGID_59_">
				<use xlink:href="#SVGID_58_"  overflow="visible"/>
			</clipPath>
			<g opacity="0.3" clip-path="url(#SVGID_59_)">
				<g transform="translate(270.375,446.25)">
					<path fill="#333333" d="M-218.9-363.25c2.3,1.5,4.4,0.6,4.9,3.6s7.4,29,16,32c14.1,4.9,31.9,0.1,34.3-1.4
						c2.4-1.5,13.7-26.8,15.6-27.8s7.9,0.1,9.2,0.7c3.9,1.7,11.101,29.1,13,30.5c8.7,6.1,36.601,5.6,37.9,4
						c1.4-1.7,11.8-25.6,13.7-27c2.7-2.1,9-3.5,9.2-2.6c0.199,0.9-5.101,1.8-6.7,3.7c-1.601,2-12.101,24.899-15.4,26.899
						s-27.7,5.301-40.1-3.399c-5.9-4.2-8.2-29.1-12.9-30.5c-3-0.9-5.3-0.8-7.5-0.2c-2.9,1.9-7,23.1-15.7,28.4
						c-3.5,2.1-30.6,7.4-38.7-1.1c-15.1-15.8-10.5-29.9-15.4-31.9c-3.3-1.4-4-3.2-4-4.4C-221.2-365.05-220.1-364.05-218.9-363.25"/>
				</g>
			</g>
		</g>
	</g>
	<g>
		<g>
			<defs>
				<rect id="SVGID_60_" x="51.6" y="77.45" width="20.2" height="3"/>
			</defs>
			<clipPath id="SVGID_61_">
				<use xlink:href="#SVGID_60_"  overflow="visible"/>
			</clipPath>
			<g opacity="0.3" clip-path="url(#SVGID_61_)">
				<g transform="translate(270.75,454.25)">
					<path fill="#333333" d="M-219-376.55c-1.6-0.6,6.8,2.9,9.9,2.7c3.1-0.2,8.3-2.4,10-2.9c1.5-0.5-7.8,1.2-10.1,1.1
						C-211.5-375.75-218.1-376.25-219-376.55"/>
				</g>
			</g>
		</g>
	</g>
	<g>
		<g>
			<defs>
				<rect id="SVGID_62_" x="116.6" y="82.35" width="21.7" height="5.3"/>
			</defs>
			<clipPath id="SVGID_63_">
				<use xlink:href="#SVGID_62_"  overflow="visible"/>
			</clipPath>
			<g opacity="0.3" clip-path="url(#SVGID_63_)">
				<g transform="translate(368.5,447.25)">
					<path fill="#333333" d="M-251.9-364.85c2.9,1.3,4.2,4.6,7,4.9c2.8,0.3,6.2,0.8,7.8-0.1c1.6-0.9,5.6-3,6.699-3.2
						c1.2-0.2-8.699,1.3-12.399,1C-246.5-362.65-250.8-364.75-251.9-364.85"/>
				</g>
			</g>
		</g>
	</g>
	<g>
		<g>
			<defs>
				<rect id="SVGID_64_" x="187.4" y="86.25" width="12.3" height="3.9"/>
			</defs>
			<clipPath id="SVGID_65_">
				<use xlink:href="#SVGID_64_"  overflow="visible"/>
			</clipPath>
			<g opacity="0.3" clip-path="url(#SVGID_65_)">
				<g transform="translate(475.375,441.375)">
					<path fill="#333333" d="M-287.8-355.15c-1.2-0.5,4.399,4,6.1,3.8c1.7-0.2,4.7-2.1,6-2.6c1-0.4-4,1-5.5,0.7
						C-282.7-353.35-286.6-354.65-287.8-355.15"/>
				</g>
			</g>
		</g>
	</g>
	<g>
		<g>
			<defs>
				<rect id="SVGID_66_" x="62.3" y="83.05" width="28.9" height="28.6"/>
			</defs>
			<clipPath id="SVGID_67_">
				<use xlink:href="#SVGID_66_"  overflow="visible"/>
			</clipPath>
			<g opacity="0.3" clip-path="url(#SVGID_67_)">
				<g transform="translate(287.75,438.625)">
					<path fill="#333333" d="M-224.7-350.55c7.4-7.3,25-4.8,28.2-4.2c-21.1,1.5-21.5,3.1-25.2,6.8c-0.5,2.9-1.2,12.5,2.1,20.9
						C-223.3-329.05-227.2-348.05-224.7-350.55"/>
				</g>
			</g>
		</g>
	</g>
	<g>
		<g>
			<defs>
				<rect id="SVGID_68_" x="165.1" y="88.05" width="27.801" height="30.5"/>
			</defs>
			<clipPath id="SVGID_69_">
				<use xlink:href="#SVGID_68_"  overflow="visible"/>
			</clipPath>
			<g opacity="0.3" clip-path="url(#SVGID_69_)">
				<g transform="translate(482.6602,426.7979)">
					<path fill="#333333" d="M-290.2-330.85c-6.399-8.2-24.1-8.1-27.399-7.8c20.699,4.3,20.899,5.9,24.1,10.1
						c0.2,2.9-0.4,12.5-4.7,20.4C-294.4-309.75-288.1-328.15-290.2-330.85"/>
				</g>
			</g>
		</g>
	</g>
	<g>
		<g>
			<defs>
				<rect id="SVGID_70_" x="65.8" y="85.05" width="47.8" height="27.5"/>
			</defs>
			<clipPath id="SVGID_71_">
				<use xlink:href="#SVGID_70_"  overflow="visible"/>
			</clipPath>
			<g clip-path="url(#SVGID_71_)">
				<g transform="translate(292.8125,416.375)">
					<path fill="#D0DDDC" d="M-226.4-313.55c0.7-8.6,1.5-15.6,18.6-16.1c13.7-0.4,24.6,2.8,26.1,6.1c1,2.1,0.2,11.3-6.6,19.7
						c4.4-3.9,11.4-19.4,8.4-21.3c-11.1-7.1-33.2-7.3-41.4-4.4c-1.5,0.5-3.9,2.2-5.5,4C-227.1-323.35-227.1-314.75-226.4-313.55"/>
				</g>
			</g>
		</g>
	</g>
	<g>
		<g>
			<defs>
				<rect id="SVGID_72_" x="66.8" y="103.25" width="35.2" height="13.9"/>
			</defs>
			<clipPath id="SVGID_73_">
				<use xlink:href="#SVGID_72_"  overflow="visible"/>
			</clipPath>
			<g clip-path="url(#SVGID_73_)">
				<g transform="translate(293.584,415.5)">
					<path fill="#D0DDDC" d="M-226.7-312.05c2.6,16.8,33.3,11.7,35.1,11c-0.1,0.9-16.1,5.4-29.5,0.2
						C-226.5-302.85-226.9-313.95-226.7-312.05"/>
				</g>
			</g>
		</g>
	</g>
	<g>
		<g>
			<defs>
				<rect id="SVGID_74_" x="141.2" y="89.75" width="47.7" height="25.5"/>
			</defs>
			<clipPath id="SVGID_75_">
				<use xlink:href="#SVGID_74_"  overflow="visible"/>
			</clipPath>
			<g clip-path="url(#SVGID_75_)">
				<g transform="translate(474.457,405.0869)">
					<path fill="#D0DDDC" d="M-287.5-294.75c0.4-8.7,0.4-15.6-16.4-18.2c-13.5-2.1-24.699-0.3-26.699,2.8
						c-1.2,1.9-1.601,11.2,4.199,20.4c-3.899-4.5-9-20.6-5.699-22.2c11.899-5.7,33.899-3.2,41.6,0.7c1.4,0.7,3.7,2.6,5,4.7
						C-285.6-304.45-286.6-295.85-287.5-294.75"/>
				</g>
			</g>
		</g>
	</g>
	<g>
		<g>
			<defs>
				<rect id="SVGID_76_" x="150.2" y="110.65" width="36.3" height="11.7"/>
			</defs>
			<clipPath id="SVGID_77_">
				<use xlink:href="#SVGID_76_"  overflow="visible"/>
			</clipPath>
			<g clip-path="url(#SVGID_77_)">
				<g transform="translate(473.583,404.3135)">
					<path fill="#D0DDDC" d="M-287.2-293.45c-4.6,16.301-34.5,7.5-36.199,6.6c0,0.9,15.299,7.3,29.299,3.9
						C-288.5-284.35-286.601-295.35-287.2-293.45"/>
				</g>
			</g>
		</g>
	</g>
	<g>
		<g>
			<defs>
				<rect id="SVGID_78_" x="87.3" y="95.45" width="2" height="2"/>
			</defs>
			<clipPath id="SVGID_79_">
				<use xlink:href="#SVGID_78_"  overflow="visible"/>
			</clipPath>
			<g opacity="0.25" clip-path="url(#SVGID_79_)">
				<g transform="translate(327.375,426)">
					<path fill="#FFFFFF" d="M-238-329.55c0-0.5-0.4-1-1-1s-1,0.4-1,1c0,0.6,0.4,1,1,1S-238-328.95-238-329.55"/>
				</g>
			</g>
		</g>
	</g>
	<g>
		<g>
			<defs>
				<rect id="SVGID_80_" x="166.3" y="100.15" width="2" height="2"/>
			</defs>
			<clipPath id="SVGID_81_">
				<use xlink:href="#SVGID_80_"  overflow="visible"/>
			</clipPath>
			<g opacity="0.25" clip-path="url(#SVGID_81_)">
				<g transform="translate(446.375,419)">
					<path fill="#FFFFFF" d="M-278-317.85c0-0.5-0.4-1-1-1c-0.5,0-1,0.4-1,1s0.4,1,1,1C-278.5-316.85-278-317.35-278-317.85"/>
				</g>
			</g>
		</g>
	</g>
	<g>
		<g>
			<defs>
				<rect id="SVGID_82_" x="52" y="79.35" width="64.8" height="9.5"/>
			</defs>
			<clipPath id="SVGID_83_">
				<use xlink:href="#SVGID_82_"  overflow="visible"/>
			</clipPath>
			<g opacity="0.1" clip-path="url(#SVGID_83_)">
				<g transform="translate(271.125,447.875)">
					<path fill="#D0DDDC" d="M-219.1-365.95c2.4,2.7,3.9,3,7.1,2.6c31.1-4,48.3-3.9,56.8,4c1.8,1.7,0.8-5.1-2.6-6
						c-26.2-6.9-45.2-0.7-49.2-0.2C-211.1-364.95-214-365.85-219.1-365.95"/>
				</g>
			</g>
		</g>
	</g>
	<g>
		<g>
			<defs>
				<rect id="SVGID_84_" x="137.7" y="82.55" width="47.899" height="9.2"/>
			</defs>
			<clipPath id="SVGID_85_">
				<use xlink:href="#SVGID_84_"  overflow="visible"/>
			</clipPath>
			<g opacity="0.1" clip-path="url(#SVGID_85_)">
				<g transform="translate(400.625,441.875)">
					<path fill="#D0DDDC" d="M-262.6-355.95c-0.7,0.7-0.4,7.9,3,5.2c9.8-7.8,30.3-6,44.6-1.2c-2.3-4.5-19-7.6-28.4-7.5
						C-247.9-359.25-260.7-357.95-262.6-355.95"/>
				</g>
			</g>
		</g>
	</g>
	<path fill="#D0DDDC" d="M197.2,91.65c0,0.3-1.601,0.5-3.5,0.5c-1.9,0-3.5-0.2-3.5-0.5c0-0.3,1.6-0.5,3.5-0.5
		C195.7,91.15,197.2,91.45,197.2,91.65"/>
	<path fill="#D0DDDC" d="M62.4,83.05c0,0.3-1.6,0.3-3.5,0c-1.9-0.3-3.4-0.8-3.3-1.1c0.1-0.3,1.6-0.3,3.5,0
		C61,82.15,62.5,82.65,62.4,83.05"/>
	<g transform="translate(578.4404,204.8359)">
		<path fill="#FFFFFF" d="M-322.399,38.45c-0.601-6.101-5.101-8.8-9.201-8.8c-1.899,0-3.399,0.5-4,0.8l-0.799,0.399l-0.701,0.5
			c-1,0.7-2.699,1.801-4.199,2.301c-0.1-1.2,0-2.801,0.199-4.2v-0.2c1.101-10.7-1.1-17-6.699-18.6c-0.9-0.301-1.9-0.4-2.9-0.4
			c-3.4,0-6.4,1.6-8.3,3c-1.601-2.1-4.399-3.2-7.8-3.2c-5.1,0-9.2,2.4-10.7,6.2c-0.2,0.4-0.399,1-0.601,1.8
			c-3-6.6-9.1-9.1-14.799-9.1c-5.4,0-10.601,2.1-12.5,3.6c-0.101,0.101-0.201,0.101-0.301,0.2c-5.1,3.6-9.1,8.2-11.9,13.7
			c-1.399-4.7-4.399-9.2-9.699-12.5l-0.1-0.101c-0.201-0.1-0.301-0.199-0.4-0.199c5.3-9.301,9.9-21.7,7.1-33.5
			c-3-12.601-10.4-14.4-14.5-14.4c-1.699,0-3.5,0.3-5.3,0.9h-0.101h-0.1c-7.8,3.1-11.2,7.699-12,8.8c-0.8,1.2-9.3,14.2-11.4,33.2
			c-0.2,2.1-0.5,4.3-0.7,6.5c-1.2-1.7-3.2-3.301-6.3-4.2c-1-0.3-2-0.4-3-0.4c-4.3,0-7.8,2.601-9.7,4.4l0,0c-1.6-2.4-4.2-3.9-7.1-4
			c-0.2,0-0.5,0-0.7,0c-4.6,0-8.2,2-10.9,4.3c-1.7-3-4.9-4.9-8.6-4.9c-0.3,0-0.6,0-0.9,0c-0.2,0-0.4,0-0.6,0
			c-5.1,0-9.1,2.4-10.7,6.4c-0.1,0.3-0.3,0.7-0.4,1.2c-4-5-9.1-7.3-16-7.3c-0.2,0-0.4,0-0.7,0c-4.3,0.1-14.9,1.899-21.5,16.6
			c-1,2.3-1.8,4.6-2.4,6.8c-1.4-0.7-2.8-0.8-3.7-0.8c-3.4,0-6,1.9-7.2,3.8c-1,1.5-4.2,6.7-2.6,11.9c0.9,2.8,2.8,4.899,5.6,6
			c2.5,1,5.6,1.899,7.9,2.6c1.4,3.3,4,7,8.6,10.5c3.2,2.5,7.4,3.7,12.2,3.7c8.2,0,16.1-3.5,16.9-3.9l0.3-0.199l0.1-0.101
			c1.6,1.601,3.6,2.8,6.2,3.3c0.8,0.2,1.8,0.301,3,0.301c4.4,0,7.5-2.301,10.4-6.5c2.3,3.699,6.6,5.699,11.6,5.699l0,0
			c0.3,0,0.5,0.2,0.9,0.2c2.6,0,6-0.899,8.7-5.399c2.3,4.1,6.5,6.5,11.5,6.5c4.4,0,8.3-1.801,9-2.2l0.2-0.101c1.5-0.8,2.7-1.5,3.7-2
			c3.3,1.801,8.3,3.7,14.5,3.7c1.101,0,2.101,0,3.2-0.2h0.3h0.3c13-2.6,21.5-5.699,26.6-8.1c3.5,4,9.201,7.8,17.201,8.4
			c0.899,0.1,1.799,0.1,2.699,0.1c6.6,0,11.9-1.9,15.801-3.9c1.199,1.301,2.799,2.5,4.799,3.301c1.201,0.5,2.5,0.699,3.701,0.699
			c8.1,0,11.899-9.6,12.899-12.899l1.899-5.2c1.701,1.8,3.9,3.3,6.701,4.1c1.5,0.4,3.199,0.7,4.799,0.7c8.9,0,17.5-6.3,18.801-7.399
			C-324.5,48.35-321.899,44.15-322.399,38.45"/>
	</g>
	<g transform="translate(455.4502,200.8125)">
		<path fill="#E24B31" d="M-281.101,45.15c0,0-1.1-4,3.101-11.601c4.2-7.6,7.399-3.5,7.399-3.5s3.601,3.9-0.5,9.7
			C-275.2,45.55-281.101,45.15-281.101,45.15 M-313.2,50.65c-4.8,12.5-16.4,7.399-16.4,7.399s-1.3-4.5,2.5-17
			c3.8-12.5,12.6-7.6,12.6-7.6S-308.399,38.15-313.2,50.65 M-321.899-1.85c0,0,7.199-18.9,9-9.7c1.799,9.2-15.201,36.5-15.201,36.5
			C-327.9,18.85-321.899-1.85-321.899-1.85 M-425.4,45.15c0.3-12.101,8.2-17.4,11-14.801c2.8,2.601,1.8,8.4-3.5,11.9
			C-423,45.85-425.4,45.15-425.4,45.15 M-206.101,43.15c-0.399-4.101-4.1-2.601-4.1-2.601s-5.9,4.601-11.1,4.101
			c-5.2-0.5-3.5-12.101-3.5-12.101s1.1-10.7-1.9-11.6c-3.1-0.9-6.8,2.8-6.8,2.8s-4.7,5.2-6.899,11.8l-0.601,0.2
			c0,0,0.7-11.6-0.101-14.3c-0.6-1.3-6.199-1.2-7.1,1.1s-5.4,18.601-5.699,25.5c0,0-8.801,7.4-16.4,8.7c-7.7,1.2-9.5-3.6-9.5-3.6
			s20.8-5.801,20.1-22.4c-0.699-16.6-16.8-10.5-18.6-9.1c-1.801,1.3-11.1,7-13.9,22.6c-0.1,0.5-0.3,2.9-0.3,2.9
			s-8.101,5.399-12.5,6.8c0,0,12.5-21.101-2.8-30.7c-6.9-4.2-12.5,4.6-12.5,4.6s20.699-23,16.1-42.5c-2.199-9.3-6.8-10.3-11.1-8.8
			c-6.5,2.601-8.9,6.3-8.9,6.3s-8.4,12.101-10.3,30.2c-1.9,18.101-4.8,39.8-4.8,39.8s-4,3.9-7.6,4.101c-3.7,0.2-2-10.9-2-10.9
			s2.8-16.899,2.6-19.8c-0.2-2.9-0.4-4.4-3.8-5.4c-3.3-1-7,3.301-7,3.301s-9.7,14.699-10.5,16.899l-0.5,0.9l-0.5-0.601
			c0,0,6.8-20,0.3-20.3s-10.8,7.101-10.8,7.101s-7.4,12.5-7.7,13.899l-0.5-0.6c0,0,3.1-14.5,2.5-18.101c-0.6-3.6-4-2.8-4-2.8
			s-4.3-0.5-5.4,2.3c-1.1,2.801-5.2,21-5.7,26.801c0,0-10.7,7.699-17.7,7.699c-7,0.101-6.3-4.5-6.3-4.5s25.8-8.8,18.8-26.3
			c-3.2-4.5-6.8-5.899-12-5.8c-5.2,0.1-11.3,3.3-15.5,12.6c-2,4.5-2.8,8.7-2.8,11.9l0,0c0,0-4.8,0.9-7.3-1.1s-3.9,0-3.9,0
			s-4.3,6.1-0.1,7.699c4.2,1.601,10.6,3.2,10.6,3.2l0,0c0.6,2.601,2.3,7,7.4,10.8c7.6,5.801,22.3-0.899,22.3-0.899l6-3.601
			c0,0,0.2,5.4,4.6,6.2c4.4,0.8,6.2-0.1,13.9-18.6c4.5-9.5,4.8-9,4.8-9l0.5-0.101c0,0-3.5,18.101-2.1,23c1.4,4.9,7.1,4.4,7.1,4.4
			s3.2,1.1,5.7-7.9c2.6-9,7.4-18.399,7.4-18.399h0.6c0,0-2.1,18.1,1.1,24c3.3,5.899,11.7,1.8,11.7,1.8s5.9-3.1,6.8-4
			c0,0,7,5.9,16.9,4.8c22.1-4.399,30-10.3,30-10.3s3.799,9.6,15.6,10.5c13.5,1,20.8-7.5,20.8-7.5s-0.101,5.5,4.601,7.4
			c4.699,1.899,7.899-8.301,7.899-8.301l7.899-21.1h0.701c0,0,0.399,13.5,8.199,15.7c7.801,2.2,17.9-5.601,17.9-5.601
			S-205.601,47.25-206.101,43.15"/>
	</g>
</g>
</svg>
