<?xml version="1.0" encoding="utf-8"?>
<!-- Generator: Adobe Illustrator 16.0.0, SVG Export Plug-In . SVG Version: 6.00 Build 0)  -->
<!DOCTYPE svg PUBLIC "-//W3C//DTD SVG 1.1//EN" "http://www.w3.org/Graphics/SVG/1.1/DTD/svg11.dtd">
<svg version="1.1" id="Layer_1" xmlns="http://www.w3.org/2000/svg" xmlns:xlink="http://www.w3.org/1999/xlink" x="0px" y="0px"
	 width="960px" height="256px" viewBox="-352 0 960 256" enable-background="new -352 0 960 256" xml:space="preserve">
<rect x="-351.575" y="0.708" fill="#F1C761" width="960" height="256"/>
<g>
	<path fill="#F1C761" d="M22,0h212c12.15,0,22,9.85,22,22v212c0,12.15-9.85,22-22,22H22c-12.15,0-22-9.85-22-22V22
		C0,9.85,9.85,0,22,0z"/>
	<g transform="translate(19.561462, 32.318937)">
		<path fill-opacity="0.35" d="M98.535,156.878V35.899l-29.421,4.132L46.616,83.632l-21.381-38.41L0.503,49.131v95.353l23.28,3.964
			V88.099L46.56,131.03h0.503l24.006-43.099v64.871L98.535,156.878"/>
		<path fill-opacity="0.35" d="M0,21.664v12.505l108.864-18.032V0.17L0,21.664"/>
		<path fill-opacity="0.35" d="M0,169.551l108.864,21.438v-15.911L0,156.99V169.551"/>
	</g>
	<g transform="translate(128.425249, 32.318937)">
		<path fill="#FFFFFF" d="M0,0.17v15.966l108.864,18.032V21.664L0,0.17"/>
		<path fill="#FFFFFF" d="M108.362,144.484V49.131l-24.732-3.908l-21.381,38.41l-22.5-43.601l-29.42-4.132v120.979l27.467-4.076
			V87.931l24.006,43.099h0.502l22.777-42.931v60.349L108.362,144.484"/>
		<path fill="#FFFFFF" d="M0,190.989l108.864-21.438V156.99L0,175.078V190.989"/>
	</g>
</g>
</svg>
